NotoSansMyanmarUI-CondensedLight.ufo
<glyph name="question" format="2">
  <advance width="263"/>
  <unicode hex="003F"/>
  <outline>
    <contour>
      <point x="85" y="355" type="line"/>
      <point x="110" y="355" type="line"/>
      <point x="111" y="364" type="line" smooth="yes"/>
      <point x="113" y="381"/>
      <point x="114" y="414"/>
      <point x="161" y="476" type="curve" smooth="yes"/>
      <point x="200" y="527"/>
      <point x="240" y="570"/>
      <point x="240" y="658" type="curve" smooth="yes"/>
      <point x="240" y="756"/>
      <point x="189" y="801"/>
      <point x="115" y="801" type="curve" smooth="yes"/>
      <point x="76" y="801"/>
      <point x="40" y="788"/>
      <point x="17" y="773" type="curve"/>
      <point x="30" y="754" type="line"/>
      <point x="54" y="769"/>
      <point x="83" y="778"/>
      <point x="114" y="778" type="curve" smooth="yes"/>
      <point x="177" y="778"/>
      <point x="213" y="740"/>
      <point x="213" y="659" type="curve" smooth="yes"/>
      <point x="213" y="584"/>
      <point x="182" y="542"/>
      <point x="138" y="485" type="curve" smooth="yes"/>
      <point x="96" y="430"/>
      <point x="90" y="399"/>
      <point x="86" y="364" type="curve" smooth="yes"/>
    </contour>
    <contour>
      <point x="100" y="140" type="curve" smooth="yes"/>
      <point x="139" y="140"/>
      <point x="168" y="170"/>
      <point x="168" y="223" type="curve" smooth="yes"/>
      <point x="168" y="275"/>
      <point x="139" y="305"/>
      <point x="100" y="305" type="curve" smooth="yes"/>
      <point x="60" y="305"/>
      <point x="32" y="269"/>
      <point x="32" y="222" type="curve" smooth="yes"/>
      <point x="32" y="172"/>
      <point x="60" y="140"/>
    </contour>
    <contour>
      <point x="100" y="162" type="curve" smooth="yes"/>
      <point x="73" y="162"/>
      <point x="58" y="182"/>
      <point x="58" y="222" type="curve" smooth="yes"/>
      <point x="58" y="258"/>
      <point x="74" y="283"/>
      <point x="100" y="283" type="curve" smooth="yes"/>
      <point x="125" y="283"/>
      <point x="142" y="258"/>
      <point x="142" y="222" type="curve" smooth="yes"/>
      <point x="142" y="184"/>
      <point x="125" y="162"/>
    </contour>
  </outline>
</glyph>
<glyph name="kha" format="2">
  <advance width="446"/>
  <unicode hex="1001"/>
  <note>
kha
</note>
  <outline>
    <contour>
      <point x="225" y="140" type="curve" smooth="yes"/>
      <point x="333" y="140"/>
      <point x="403" y="242"/>
      <point x="403" y="384" type="curve" smooth="yes"/>
      <point x="403" y="521"/>
      <point x="333" y="631"/>
      <point x="213" y="631" type="curve" smooth="yes"/>
      <point x="117" y="631"/>
      <point x="66" y="572"/>
      <point x="43" y="487" type="curve"/>
      <point x="66" y="475" type="line"/>
      <point x="86" y="554"/>
      <point x="130" y="609"/>
      <point x="214" y="609" type="curve" smooth="yes"/>
      <point x="315" y="609"/>
      <point x="377" y="511"/>
      <point x="377" y="384" type="curve" smooth="yes"/>
      <point x="377" y="251"/>
      <point x="314" y="163"/>
      <point x="225" y="163" type="curve" smooth="yes"/>
      <point x="154" y="163"/>
      <point x="104" y="203"/>
      <point x="73" y="276" type="curve"/>
      <point x="107" y="320"/>
      <point x="156" y="344"/>
      <point x="214" y="344" type="curve" smooth="yes"/>
      <point x="284" y="344"/>
      <point x="331" y="306"/>
      <point x="365" y="271" type="curve"/>
      <point x="380" y="288" type="line"/>
      <point x="346" y="328"/>
      <point x="288" y="367"/>
      <point x="215" y="367" type="curve" smooth="yes"/>
      <point x="140" y="367"/>
      <point x="81" y="332"/>
      <point x="47" y="280" type="curve"/>
      <point x="77" y="191"/>
      <point x="138" y="140"/>
    </contour>
  </outline>
</glyph>
<glyph name="ga" format="2">
  <advance width="443"/>
  <unicode hex="1002"/>
  <note>
ga
</note>
  <outline>
    <contour>
      <point x="121" y="140" type="curve"/>
      <point x="138" y="158" type="line"/>
      <point x="97" y="196"/>
      <point x="69" y="299"/>
      <point x="69" y="375" type="curve" smooth="yes"/>
      <point x="69" y="526"/>
      <point x="137" y="609"/>
      <point x="221" y="609" type="curve" smooth="yes"/>
      <point x="305" y="609"/>
      <point x="374" y="526"/>
      <point x="374" y="375" type="curve" smooth="yes"/>
      <point x="374" y="299"/>
      <point x="345" y="196"/>
      <point x="305" y="158" type="curve"/>
      <point x="321" y="140" type="line"/>
      <point x="365" y="183"/>
      <point x="400" y="285"/>
      <point x="400" y="375" type="curve" smooth="yes"/>
      <point x="400" y="532"/>
      <point x="327" y="631"/>
      <point x="221" y="631" type="curve" smooth="yes"/>
      <point x="115" y="631"/>
      <point x="43" y="530"/>
      <point x="43" y="375" type="curve" smooth="yes"/>
      <point x="43" y="285"/>
      <point x="78" y="183"/>
    </contour>
  </outline>
</glyph>
<glyph name="gha" format="2">
  <advance width="773"/>
  <unicode hex="1003"/>
  <note>
gha
</note>
  <outline>
    <contour>
      <point x="222" y="140" type="curve" smooth="yes"/>
      <point x="331" y="140"/>
      <point x="406" y="240"/>
      <point x="406" y="397" type="curve" smooth="yes"/>
      <point x="406" y="497"/>
      <point x="371" y="580"/>
      <point x="326" y="631" type="curve"/>
      <point x="310" y="613" type="line"/>
      <point x="352" y="568"/>
      <point x="380" y="483"/>
      <point x="380" y="397" type="curve" smooth="yes"/>
      <point x="380" y="248"/>
      <point x="311" y="163"/>
      <point x="223" y="163" type="curve" smooth="yes"/>
      <point x="129" y="163"/>
      <point x="76" y="233"/>
      <point x="76" y="333" type="curve" smooth="yes"/>
      <point x="76" y="397"/>
      <point x="95" y="433"/>
      <point x="129" y="477" type="curve" smooth="yes"/>
      <point x="159" y="515"/>
      <point x="166" y="536"/>
      <point x="166" y="563" type="curve" smooth="yes"/>
      <point x="166" y="600"/>
      <point x="144" y="630"/>
      <point x="108" y="630" type="curve" smooth="yes"/>
      <point x="79" y="630"/>
      <point x="58" y="616"/>
      <point x="45" y="589" type="curve"/>
      <point x="62" y="573" type="line"/>
      <point x="73" y="594"/>
      <point x="89" y="607"/>
      <point x="107" y="607" type="curve" smooth="yes"/>
      <point x="129" y="607"/>
      <point x="141" y="589"/>
      <point x="141" y="563" type="curve" smooth="yes"/>
      <point x="141" y="544"/>
      <point x="132" y="519"/>
      <point x="110" y="492" type="curve" smooth="yes"/>
      <point x="73" y="446"/>
      <point x="50" y="401"/>
      <point x="50" y="333" type="curve" smooth="yes"/>
      <point x="50" y="222"/>
      <point x="115" y="140"/>
    </contour>
    <contour>
      <point x="555" y="142" type="curve" smooth="yes"/>
      <point x="665" y="142"/>
      <point x="729" y="253"/>
      <point x="729" y="398" type="curve" smooth="yes"/>
      <point x="729" y="543"/>
      <point x="659" y="631"/>
      <point x="557" y="631" type="curve" smooth="yes"/>
      <point x="518" y="631"/>
      <point x="489" y="627"/>
      <point x="462" y="613" type="curve"/>
      <point x="473" y="593" type="line"/>
      <point x="496" y="605"/>
      <point x="527" y="609"/>
      <point x="555" y="609" type="curve" smooth="yes"/>
      <point x="644" y="609"/>
      <point x="703" y="532"/>
      <point x="703" y="398" type="curve" smooth="yes"/>
      <point x="703" y="267"/>
      <point x="653" y="164"/>
      <point x="555" y="164" type="curve" smooth="yes"/>
      <point x="490" y="164"/>
      <point x="439" y="199"/>
      <point x="390" y="314" type="curve"/>
      <point x="379" y="284" type="line"/>
      <point x="416" y="191"/>
      <point x="475" y="142"/>
    </contour>
  </outline>
</glyph>
<glyph name="ca" format="2">
  <advance width="444"/>
  <unicode hex="1005"/>
  <note>
ca
</note>
  <outline>
    <contour>
      <point x="220" y="140" type="curve" smooth="yes"/>
      <point x="330" y="140"/>
      <point x="401" y="241"/>
      <point x="401" y="384" type="curve" smooth="yes"/>
      <point x="401" y="520"/>
      <point x="335" y="631"/>
      <point x="220" y="631" type="curve" smooth="yes"/>
      <point x="104" y="631"/>
      <point x="43" y="517"/>
      <point x="43" y="384" type="curve" smooth="yes"/>
      <point x="43" y="244"/>
      <point x="109" y="140"/>
    </contour>
    <contour>
      <point x="123" y="195" type="line"/>
      <point x="166" y="232"/>
      <point x="197" y="294"/>
      <point x="197" y="381" type="curve" smooth="yes"/>
      <point x="197" y="461"/>
      <point x="168" y="529"/>
      <point x="118" y="574" type="curve"/>
      <point x="102" y="556" type="line"/>
      <point x="144" y="517"/>
      <point x="171" y="458"/>
      <point x="171" y="381" type="curve" smooth="yes"/>
      <point x="171" y="307"/>
      <point x="145" y="245"/>
      <point x="105" y="211" type="curve"/>
    </contour>
    <contour>
      <point x="220" y="163" type="curve" smooth="yes"/>
      <point x="133" y="163"/>
      <point x="68" y="246"/>
      <point x="68" y="384" type="curve" smooth="yes"/>
      <point x="68" y="506"/>
      <point x="123" y="609"/>
      <point x="220" y="609" type="curve" smooth="yes"/>
      <point x="316" y="609"/>
      <point x="375" y="511"/>
      <point x="375" y="384" type="curve" smooth="yes"/>
      <point x="375" y="251"/>
      <point x="312" y="163"/>
    </contour>
  </outline>
</glyph>
<glyph name="ja" format="2">
  <advance width="457"/>
  <unicode hex="1007"/>
  <note>
ja
</note>
  <outline>
    <contour>
      <point x="220" y="140" type="curve" smooth="yes"/>
      <point x="287" y="140"/>
      <point x="340" y="180"/>
      <point x="371" y="244" type="curve"/>
      <point x="351" y="257" type="line"/>
      <point x="324" y="198"/>
      <point x="278" y="163"/>
      <point x="220" y="163" type="curve" smooth="yes"/>
      <point x="131" y="163"/>
      <point x="69" y="246"/>
      <point x="69" y="384" type="curve" smooth="yes"/>
      <point x="69" y="506"/>
      <point x="124" y="609"/>
      <point x="238" y="609" type="curve" smooth="yes"/>
      <point x="249" y="609"/>
      <point x="257" y="609"/>
      <point x="272" y="606" type="curve"/>
      <point x="270" y="610" type="line"/>
      <point x="238" y="596"/>
      <point x="213" y="556"/>
      <point x="213" y="504" type="curve" smooth="yes"/>
      <point x="213" y="447"/>
      <point x="242" y="394"/>
      <point x="300" y="394" type="curve" smooth="yes"/>
      <point x="328" y="394"/>
      <point x="360" y="408"/>
      <point x="374" y="447" type="curve"/>
      <point x="364" y="428" type="line"/>
      <point x="364" y="340"/>
      <point x="392" y="307"/>
      <point x="440" y="307" type="curve" smooth="yes"/>
      <point x="445" y="307" type="line"/>
      <point x="445" y="330" type="line"/>
      <point x="399" y="330"/>
      <point x="389" y="363"/>
      <point x="389" y="440" type="curve" smooth="yes"/>
      <point x="389" y="458"/>
      <point x="389" y="467"/>
      <point x="389" y="492" type="curve" smooth="yes"/>
      <point x="389" y="589"/>
      <point x="355" y="631"/>
      <point x="237" y="631" type="curve" smooth="yes"/>
      <point x="106" y="631"/>
      <point x="43" y="516"/>
      <point x="43" y="384" type="curve" smooth="yes"/>
      <point x="43" y="247"/>
      <point x="105" y="140"/>
    </contour>
    <contour>
      <point x="301" y="416" type="curve" smooth="yes"/>
      <point x="259" y="416"/>
      <point x="239" y="457"/>
      <point x="239" y="504" type="curve" smooth="yes"/>
      <point x="239" y="554"/>
      <point x="267" y="598"/>
      <point x="305" y="598" type="curve" smooth="yes"/>
      <point x="343" y="598"/>
      <point x="363" y="559"/>
      <point x="363" y="496" type="curve" smooth="yes"/>
      <point x="363" y="453"/>
      <point x="335" y="416"/>
    </contour>
  </outline>
</glyph>
<glyph name="jha" format="2">
  <advance width="571"/>
  <unicode hex="1008"/>
  <note>
jha
</note>
  <outline>
    <contour>
      <point x="401" y="-270" type="curve" smooth="yes"/>
      <point x="488" y="-270"/>
      <point x="511" y="-204"/>
      <point x="511" y="-35" type="curve" smooth="yes"/>
      <point x="511" y="621" type="line"/>
      <point x="485" y="621" type="line"/>
      <point x="485" y="-35" type="line" smooth="yes"/>
      <point x="485" y="-183"/>
      <point x="472" y="-246"/>
      <point x="402" y="-246" type="curve" smooth="yes"/>
      <point x="343" y="-246"/>
      <point x="316" y="-197"/>
      <point x="316" y="-35" type="curve" smooth="yes"/>
      <point x="316" y="182" type="line"/>
      <point x="290" y="171" type="line"/>
      <point x="290" y="-35" type="line" smooth="yes"/>
      <point x="290" y="-209"/>
      <point x="327" y="-270"/>
    </contour>
    <contour>
      <point x="220" y="140" type="curve" smooth="yes"/>
      <point x="328" y="140"/>
      <point x="401" y="242"/>
      <point x="401" y="384" type="curve" smooth="yes"/>
      <point x="401" y="521"/>
      <point x="331" y="631"/>
      <point x="220" y="631" type="curve" smooth="yes"/>
      <point x="107" y="631"/>
      <point x="43" y="516"/>
      <point x="43" y="384" type="curve" smooth="yes"/>
      <point x="43" y="249"/>
      <point x="109" y="140"/>
    </contour>
    <contour>
      <point x="220" y="163" type="curve" smooth="yes"/>
      <point x="133" y="163"/>
      <point x="68" y="246"/>
      <point x="68" y="384" type="curve" smooth="yes"/>
      <point x="68" y="506"/>
      <point x="123" y="609"/>
      <point x="220" y="609" type="curve" smooth="yes"/>
      <point x="316" y="609"/>
      <point x="375" y="511"/>
      <point x="375" y="384" type="curve" smooth="yes"/>
      <point x="375" y="251"/>
      <point x="312" y="163"/>
    </contour>
    <contour>
      <point x="123" y="195" type="line"/>
      <point x="165" y="231"/>
      <point x="197" y="300"/>
      <point x="197" y="381" type="curve" smooth="yes"/>
      <point x="197" y="461"/>
      <point x="167" y="531"/>
      <point x="118" y="574" type="curve"/>
      <point x="102" y="556" type="line"/>
      <point x="145" y="517"/>
      <point x="172" y="453"/>
      <point x="172" y="381" type="curve" smooth="yes"/>
      <point x="172" y="307"/>
      <point x="146" y="245"/>
      <point x="105" y="211" type="curve"/>
    </contour>
  </outline>
</glyph>
<glyph name="nya" format="2">
  <advance width="449"/>
  <unicode hex="1009"/>
  <note>
nya
</note>
  <outline>
    <contour>
      <point x="191" y="-272" type="curve" smooth="yes"/>
      <point x="607" y="-272" type="line" smooth="yes"/>
      <point x="695" y="-272"/>
      <point x="738" y="-212"/>
      <point x="738" y="-93" type="curve" smooth="yes"/>
      <point x="738" y="-79" type="line"/>
      <point x="712" y="-79" type="line"/>
      <point x="712" y="-93" type="line" smooth="yes"/>
      <point x="712" y="-196"/>
      <point x="680" y="-249"/>
      <point x="608" y="-249" type="curve" smooth="yes"/>
      <point x="191" y="-249" type="line" smooth="yes"/>
      <point x="121" y="-249"/>
      <point x="86" y="-200"/>
      <point x="86" y="-93" type="curve" smooth="yes"/>
      <point x="86" y="270" type="line"/>
      <point x="60" y="292" type="line"/>
      <point x="60" y="-93" type="line" smooth="yes"/>
      <point x="60" y="-209"/>
      <point x="101" y="-272"/>
    </contour>
    <contour>
      <point x="229" y="140" type="curve" smooth="yes"/>
      <point x="341" y="140"/>
      <point x="406" y="247"/>
      <point x="406" y="384" type="curve" smooth="yes"/>
      <point x="406" y="519"/>
      <point x="344" y="631"/>
      <point x="229" y="631" type="curve" smooth="yes"/>
      <point x="142" y="631"/>
      <point x="87" y="571"/>
      <point x="62" y="486" type="curve"/>
      <point x="85" y="476" type="line"/>
      <point x="109" y="558"/>
      <point x="158" y="609"/>
      <point x="229" y="609" type="curve" smooth="yes"/>
      <point x="326" y="609"/>
      <point x="380" y="506"/>
      <point x="380" y="384" type="curve" smooth="yes"/>
      <point x="380" y="246"/>
      <point x="315" y="163"/>
      <point x="229" y="163" type="curve" smooth="yes"/>
      <point x="158" y="163"/>
      <point x="104" y="216"/>
      <point x="82" y="302" type="curve"/>
      <point x="60" y="292" type="line"/>
      <point x="84" y="199"/>
      <point x="142" y="140"/>
    </contour>
  </outline>
</glyph>
<glyph name="nnya" format="2">
  <advance width="772"/>
  <unicode hex="100A"/>
  <note>
nnya
</note>
  <outline>
    <contour>
      <point x="191" y="-272" type="curve" smooth="yes"/>
      <point x="598" y="-272" type="line" smooth="yes"/>
      <point x="686" y="-272"/>
      <point x="729" y="-212"/>
      <point x="729" y="-93" type="curve" smooth="yes"/>
      <point x="729" y="-79" type="line"/>
      <point x="703" y="-79" type="line"/>
      <point x="703" y="-93" type="line" smooth="yes"/>
      <point x="703" y="-196"/>
      <point x="671" y="-249"/>
      <point x="599" y="-249" type="curve" smooth="yes"/>
      <point x="191" y="-249" type="line" smooth="yes"/>
      <point x="121" y="-249"/>
      <point x="86" y="-200"/>
      <point x="86" y="-93" type="curve" smooth="yes"/>
      <point x="86" y="270" type="line"/>
      <point x="60" y="292" type="line"/>
      <point x="60" y="-93" type="line" smooth="yes"/>
      <point x="60" y="-209"/>
      <point x="101" y="-272"/>
    </contour>
    <contour>
      <point x="229" y="140" type="curve" smooth="yes"/>
      <point x="341" y="140"/>
      <point x="406" y="247"/>
      <point x="406" y="384" type="curve" smooth="yes"/>
      <point x="406" y="519"/>
      <point x="344" y="631"/>
      <point x="229" y="631" type="curve" smooth="yes"/>
      <point x="142" y="631"/>
      <point x="87" y="571"/>
      <point x="62" y="486" type="curve"/>
      <point x="85" y="476" type="line"/>
      <point x="109" y="558"/>
      <point x="158" y="609"/>
      <point x="229" y="609" type="curve" smooth="yes"/>
      <point x="326" y="609"/>
      <point x="380" y="506"/>
      <point x="380" y="384" type="curve" smooth="yes"/>
      <point x="380" y="246"/>
      <point x="315" y="163"/>
      <point x="229" y="163" type="curve" smooth="yes"/>
      <point x="158" y="163"/>
      <point x="104" y="216"/>
      <point x="82" y="302" type="curve"/>
      <point x="60" y="292" type="line"/>
      <point x="84" y="199"/>
      <point x="142" y="140"/>
    </contour>
    <contour>
      <point x="556" y="142" type="curve" smooth="yes"/>
      <point x="665" y="142"/>
      <point x="729" y="247"/>
      <point x="729" y="398" type="curve" smooth="yes"/>
      <point x="729" y="543"/>
      <point x="660" y="631"/>
      <point x="559" y="631" type="curve" smooth="yes"/>
      <point x="519" y="631"/>
      <point x="490" y="627"/>
      <point x="463" y="613" type="curve"/>
      <point x="475" y="593" type="line"/>
      <point x="497" y="605"/>
      <point x="528" y="609"/>
      <point x="557" y="609" type="curve" smooth="yes"/>
      <point x="644" y="609"/>
      <point x="703" y="532"/>
      <point x="703" y="398" type="curve" smooth="yes"/>
      <point x="703" y="267"/>
      <point x="653" y="164"/>
      <point x="556" y="164" type="curve" smooth="yes"/>
      <point x="485" y="164"/>
      <point x="434" y="199"/>
      <point x="382" y="314" type="curve"/>
      <point x="370" y="285" type="line"/>
      <point x="412" y="190"/>
      <point x="471" y="142"/>
    </contour>
  </outline>
</glyph>
<glyph name="tta" format="2">
  <advance width="449"/>
  <unicode hex="100B"/>
  <note>
tta
</note>
  <outline>
    <contour>
      <point x="363" y="-272" type="line"/>
      <point x="469" y="-272" type="line"/>
      <point x="469" y="-250" type="line"/>
      <point x="389" y="-250" type="line"/>
      <point x="389" y="-35" type="line"/>
      <point x="339" y="-71"/>
      <point x="290" y="-90"/>
      <point x="234" y="-90" type="curve" smooth="yes"/>
      <point x="180" y="-90"/>
      <point x="137" y="-78"/>
      <point x="96" y="-60" type="curve"/>
      <point x="96" y="56" type="line"/>
      <point x="133" y="33"/>
      <point x="189" y="19"/>
      <point x="234" y="19" type="curve" smooth="yes"/>
      <point x="294" y="19"/>
      <point x="350" y="43"/>
      <point x="389" y="87" type="curve"/>
      <point x="389" y="292" type="line"/>
      <point x="363" y="258" type="line"/>
      <point x="363" y="94" type="line"/>
      <point x="329" y="61"/>
      <point x="285" y="42"/>
      <point x="228" y="42" type="curve" smooth="yes"/>
      <point x="178" y="42"/>
      <point x="117" y="64"/>
      <point x="70" y="101" type="curve"/>
      <point x="70" y="-73" type="line"/>
      <point x="120" y="-97"/>
      <point x="176" y="-112"/>
      <point x="234" y="-112" type="curve" smooth="yes"/>
      <point x="280" y="-112"/>
      <point x="326" y="-98"/>
      <point x="363" y="-77" type="curve"/>
    </contour>
    <contour>
      <point x="220" y="140" type="curve" smooth="yes"/>
      <point x="307" y="140"/>
      <point x="365" y="199"/>
      <point x="389" y="292" type="curve"/>
      <point x="367" y="302" type="line"/>
      <point x="345" y="216"/>
      <point x="291" y="163"/>
      <point x="220" y="163" type="curve" smooth="yes"/>
      <point x="134" y="163"/>
      <point x="69" y="246"/>
      <point x="69" y="384" type="curve" smooth="yes"/>
      <point x="69" y="506"/>
      <point x="123" y="609"/>
      <point x="220" y="609" type="curve" smooth="yes"/>
      <point x="291" y="609"/>
      <point x="340" y="558"/>
      <point x="364" y="476" type="curve"/>
      <point x="387" y="486" type="line"/>
      <point x="362" y="571"/>
      <point x="307" y="631"/>
      <point x="220" y="631" type="curve" smooth="yes"/>
      <point x="105" y="631"/>
      <point x="43" y="519"/>
      <point x="43" y="384" type="curve" smooth="yes"/>
      <point x="43" y="247"/>
      <point x="108" y="140"/>
    </contour>
  </outline>
</glyph>
<glyph name="ttha" format="2">
  <advance width="449"/>
  <unicode hex="100C"/>
  <note>
ttha
</note>
  <outline>
    <contour>
      <point x="172" y="-272" type="curve" smooth="yes"/>
      <point x="258" y="-272" type="line" smooth="yes"/>
      <point x="348" y="-272"/>
      <point x="389" y="-209"/>
      <point x="389" y="-93" type="curve" smooth="yes"/>
      <point x="389" y="292" type="line"/>
      <point x="363" y="270" type="line"/>
      <point x="363" y="-93" type="line" smooth="yes"/>
      <point x="363" y="-200"/>
      <point x="327" y="-250"/>
      <point x="257" y="-250" type="curve" smooth="yes"/>
      <point x="172" y="-250" type="line" smooth="yes"/>
      <point x="105" y="-250"/>
      <point x="69" y="-216"/>
      <point x="69" y="-144" type="curve" smooth="yes"/>
      <point x="69" y="-86"/>
      <point x="95" y="-46"/>
      <point x="132" y="-46" type="curve" smooth="yes"/>
      <point x="162" y="-46"/>
      <point x="180" y="-63"/>
      <point x="201" y="-89" type="curve"/>
      <point x="221" y="-74" type="line"/>
      <point x="194" y="-43"/>
      <point x="173" y="-24"/>
      <point x="132" y="-24" type="curve" smooth="yes"/>
      <point x="81" y="-24"/>
      <point x="43" y="-72"/>
      <point x="43" y="-144" type="curve" smooth="yes"/>
      <point x="43" y="-229"/>
      <point x="88" y="-272"/>
    </contour>
    <contour>
      <point x="220" y="140" type="curve" smooth="yes"/>
      <point x="307" y="140"/>
      <point x="365" y="199"/>
      <point x="389" y="292" type="curve"/>
      <point x="367" y="302" type="line"/>
      <point x="345" y="216"/>
      <point x="291" y="163"/>
      <point x="220" y="163" type="curve" smooth="yes"/>
      <point x="134" y="163"/>
      <point x="69" y="246"/>
      <point x="69" y="384" type="curve" smooth="yes"/>
      <point x="69" y="506"/>
      <point x="123" y="609"/>
      <point x="220" y="609" type="curve" smooth="yes"/>
      <point x="291" y="609"/>
      <point x="340" y="558"/>
      <point x="364" y="476" type="curve"/>
      <point x="387" y="486" type="line"/>
      <point x="362" y="571"/>
      <point x="307" y="631"/>
      <point x="220" y="631" type="curve" smooth="yes"/>
      <point x="105" y="631"/>
      <point x="43" y="519"/>
      <point x="43" y="384" type="curve" smooth="yes"/>
      <point x="43" y="247"/>
      <point x="108" y="140"/>
    </contour>
  </outline>
</glyph>
<glyph name="dda" format="2">
  <advance width="449"/>
  <unicode hex="100D"/>
  <note>
dda
</note>
  <outline>
    <contour>
      <point x="353" y="-272" type="line"/>
      <point x="457" y="-272" type="line"/>
      <point x="457" y="-250" type="line"/>
      <point x="379" y="-250" type="line"/>
      <point x="379" y="91" type="line"/>
      <point x="328" y="51"/>
      <point x="267" y="32"/>
      <point x="220" y="32" type="curve" smooth="yes"/>
      <point x="166" y="32"/>
      <point x="119" y="49"/>
      <point x="86" y="85" type="curve"/>
      <point x="86" y="258" type="line"/>
      <point x="60" y="292" type="line"/>
      <point x="60" y="77" type="line"/>
      <point x="101" y="29"/>
      <point x="158" y="9"/>
      <point x="220" y="9" type="curve" smooth="yes"/>
      <point x="275" y="9"/>
      <point x="323" y="29"/>
      <point x="353" y="45" type="curve"/>
    </contour>
    <contour>
      <point x="229" y="140" type="curve" smooth="yes"/>
      <point x="341" y="140"/>
      <point x="406" y="247"/>
      <point x="406" y="384" type="curve" smooth="yes"/>
      <point x="406" y="519"/>
      <point x="344" y="631"/>
      <point x="229" y="631" type="curve" smooth="yes"/>
      <point x="142" y="631"/>
      <point x="87" y="571"/>
      <point x="62" y="486" type="curve"/>
      <point x="85" y="476" type="line"/>
      <point x="109" y="558"/>
      <point x="158" y="609"/>
      <point x="229" y="609" type="curve" smooth="yes"/>
      <point x="326" y="609"/>
      <point x="380" y="506"/>
      <point x="380" y="384" type="curve" smooth="yes"/>
      <point x="380" y="246"/>
      <point x="315" y="163"/>
      <point x="229" y="163" type="curve" smooth="yes"/>
      <point x="158" y="163"/>
      <point x="104" y="216"/>
      <point x="82" y="302" type="curve"/>
      <point x="60" y="292" type="line"/>
      <point x="84" y="199"/>
      <point x="142" y="140"/>
    </contour>
  </outline>
</glyph>
<glyph name="ddha" format="2">
  <advance width="449"/>
  <unicode hex="100E"/>
  <note>
ddha
</note>
  <outline>
    <contour>
      <point x="222" y="140" type="curve" smooth="yes"/>
      <point x="331" y="140"/>
      <point x="406" y="240"/>
      <point x="406" y="397" type="curve" smooth="yes"/>
      <point x="406" y="497"/>
      <point x="371" y="580"/>
      <point x="326" y="631" type="curve"/>
      <point x="310" y="613" type="line"/>
      <point x="352" y="568"/>
      <point x="380" y="483"/>
      <point x="380" y="397" type="curve" smooth="yes"/>
      <point x="380" y="247"/>
      <point x="311" y="163"/>
      <point x="223" y="163" type="curve" smooth="yes"/>
      <point x="129" y="163"/>
      <point x="76" y="232"/>
      <point x="76" y="333" type="curve" smooth="yes"/>
      <point x="76" y="397"/>
      <point x="95" y="433"/>
      <point x="129" y="477" type="curve" smooth="yes"/>
      <point x="159" y="515"/>
      <point x="166" y="536"/>
      <point x="166" y="563" type="curve" smooth="yes"/>
      <point x="166" y="600"/>
      <point x="144" y="630"/>
      <point x="108" y="630" type="curve" smooth="yes"/>
      <point x="79" y="630"/>
      <point x="58" y="616"/>
      <point x="45" y="589" type="curve"/>
      <point x="62" y="573" type="line"/>
      <point x="73" y="594"/>
      <point x="89" y="607"/>
      <point x="107" y="607" type="curve" smooth="yes"/>
      <point x="129" y="607"/>
      <point x="141" y="589"/>
      <point x="141" y="563" type="curve" smooth="yes"/>
      <point x="141" y="544"/>
      <point x="132" y="519"/>
      <point x="110" y="492" type="curve" smooth="yes"/>
      <point x="73" y="446"/>
      <point x="50" y="401"/>
      <point x="50" y="333" type="curve" smooth="yes"/>
      <point x="50" y="222"/>
      <point x="115" y="140"/>
    </contour>
  </outline>
</glyph>
<glyph name="nna" format="2">
  <advance width="797"/>
  <unicode hex="100F"/>
  <note>
nna
</note>
  <outline>
    <contour>
      <point x="398" y="138" type="curve" smooth="yes"/>
      <point x="458" y="138"/>
      <point x="486" y="180"/>
      <point x="486" y="233" type="curve" smooth="yes"/>
      <point x="486" y="307"/>
      <point x="462" y="331"/>
      <point x="462" y="416" type="curve" smooth="yes"/>
      <point x="462" y="529"/>
      <point x="499" y="609"/>
      <point x="590" y="609" type="curve" smooth="yes"/>
      <point x="681" y="609"/>
      <point x="728" y="509"/>
      <point x="728" y="385" type="curve" smooth="yes"/>
      <point x="728" y="251"/>
      <point x="665" y="162"/>
      <point x="584" y="162" type="curve" smooth="yes"/>
      <point x="570" y="162"/>
      <point x="559" y="163"/>
      <point x="548" y="164" type="curve"/>
      <point x="542" y="142" type="line"/>
      <point x="557" y="140"/>
      <point x="569" y="139"/>
      <point x="586" y="139" type="curve" smooth="yes"/>
      <point x="680" y="139"/>
      <point x="754" y="238"/>
      <point x="754" y="385" type="curve" smooth="yes"/>
      <point x="754" y="523"/>
      <point x="699" y="631"/>
      <point x="589" y="631" type="curve" smooth="yes"/>
      <point x="483" y="631"/>
      <point x="436" y="542"/>
      <point x="436" y="415" type="curve" smooth="yes"/>
      <point x="436" y="314"/>
      <point x="460" y="303"/>
      <point x="460" y="233" type="curve" smooth="yes"/>
      <point x="460" y="194"/>
      <point x="443" y="161"/>
      <point x="399" y="161" type="curve" smooth="yes"/>
      <point x="354" y="161"/>
      <point x="337" y="194"/>
      <point x="337" y="233" type="curve" smooth="yes"/>
      <point x="337" y="303"/>
      <point x="361" y="314"/>
      <point x="361" y="415" type="curve" smooth="yes"/>
      <point x="361" y="542"/>
      <point x="314" y="631"/>
      <point x="208" y="631" type="curve" smooth="yes"/>
      <point x="99" y="631"/>
      <point x="43" y="523"/>
      <point x="43" y="385" type="curve" smooth="yes"/>
      <point x="43" y="240"/>
      <point x="118" y="139"/>
      <point x="211" y="139" type="curve" smooth="yes"/>
      <point x="227" y="139"/>
      <point x="240" y="140"/>
      <point x="254" y="142" type="curve"/>
      <point x="248" y="164" type="line"/>
      <point x="237" y="163"/>
      <point x="227" y="162"/>
      <point x="213" y="162" type="curve" smooth="yes"/>
      <point x="133" y="162"/>
      <point x="69" y="251"/>
      <point x="69" y="385" type="curve" smooth="yes"/>
      <point x="69" y="509"/>
      <point x="116" y="609"/>
      <point x="208" y="609" type="curve" smooth="yes"/>
      <point x="298" y="609"/>
      <point x="335" y="529"/>
      <point x="335" y="416" type="curve" smooth="yes"/>
      <point x="335" y="331"/>
      <point x="311" y="307"/>
      <point x="311" y="233" type="curve" smooth="yes"/>
      <point x="311" y="180"/>
      <point x="338" y="138"/>
    </contour>
    <contour>
      <point x="325" y="555" type="line"/>
      <point x="346" y="583"/>
      <point x="361" y="609"/>
      <point x="399" y="609" type="curve" smooth="yes"/>
      <point x="435" y="609"/>
      <point x="451" y="583"/>
      <point x="472" y="555" type="curve"/>
      <point x="488" y="574" type="line"/>
      <point x="469" y="601"/>
      <point x="446" y="631"/>
      <point x="399" y="631" type="curve" smooth="yes"/>
      <point x="351" y="631"/>
      <point x="329" y="601"/>
      <point x="308" y="574" type="curve"/>
    </contour>
  </outline>
</glyph>
<glyph name="da" format="2">
  <advance width="437"/>
  <unicode hex="1012"/>
  <note>
da
</note>
  <outline>
    <contour>
      <point x="219" y="140" type="curve" smooth="yes"/>
      <point x="331" y="140"/>
      <point x="394" y="193"/>
      <point x="394" y="283" type="curve" smooth="yes"/>
      <point x="394" y="349"/>
      <point x="354" y="389"/>
      <point x="300" y="399" type="curve"/>
      <point x="300" y="401" type="line"/>
      <point x="348" y="414"/>
      <point x="386" y="445"/>
      <point x="386" y="509" type="curve" smooth="yes"/>
      <point x="386" y="587"/>
      <point x="321" y="631"/>
      <point x="223" y="631" type="curve" smooth="yes"/>
      <point x="131" y="631"/>
      <point x="63" y="593"/>
      <point x="63" y="519" type="curve" smooth="yes"/>
      <point x="63" y="500"/>
      <point x="69" y="483"/>
      <point x="80" y="471" type="curve"/>
      <point x="101" y="484" type="line"/>
      <point x="92" y="495"/>
      <point x="89" y="505"/>
      <point x="89" y="519" type="curve" smooth="yes"/>
      <point x="89" y="577"/>
      <point x="145" y="609"/>
      <point x="223" y="609" type="curve" smooth="yes"/>
      <point x="279" y="609"/>
      <point x="360" y="594"/>
      <point x="360" y="509" type="curve" smooth="yes"/>
      <point x="360" y="444"/>
      <point x="311" y="410"/>
      <point x="257" y="410" type="curve" smooth="yes"/>
      <point x="225" y="410" type="line"/>
      <point x="225" y="388" type="line"/>
      <point x="257" y="388" type="line" smooth="yes"/>
      <point x="334" y="388"/>
      <point x="368" y="338"/>
      <point x="368" y="283" type="curve" smooth="yes"/>
      <point x="368" y="200"/>
      <point x="307" y="163"/>
      <point x="219" y="163" type="curve" smooth="yes"/>
      <point x="136" y="163"/>
      <point x="86" y="199"/>
      <point x="68" y="271" type="curve"/>
      <point x="46" y="260" type="line"/>
      <point x="64" y="188"/>
      <point x="119" y="140"/>
    </contour>
  </outline>
</glyph>
<glyph name="dha" format="2">
  <advance width="444"/>
  <unicode hex="1013"/>
  <note>
dha
</note>
  <outline>
    <contour>
      <point x="90" y="252" type="line"/>
      <point x="121" y="311"/>
      <point x="170" y="350"/>
      <point x="224" y="350" type="curve" smooth="yes"/>
      <point x="282" y="350"/>
      <point x="328" y="305"/>
      <point x="356" y="252" type="curve"/>
      <point x="372" y="268" type="line"/>
      <point x="346" y="323"/>
      <point x="291" y="372"/>
      <point x="224" y="372" type="curve" smooth="yes"/>
      <point x="161" y="372"/>
      <point x="105" y="330"/>
      <point x="73" y="268" type="curve"/>
    </contour>
    <contour>
      <point x="220" y="140" type="curve" smooth="yes"/>
      <point x="330" y="140"/>
      <point x="401" y="242"/>
      <point x="401" y="384" type="curve" smooth="yes"/>
      <point x="401" y="522"/>
      <point x="332" y="631"/>
      <point x="220" y="631" type="curve" smooth="yes"/>
      <point x="106" y="631"/>
      <point x="43" y="517"/>
      <point x="43" y="384" type="curve" smooth="yes"/>
      <point x="43" y="248"/>
      <point x="108" y="140"/>
    </contour>
    <contour>
      <point x="220" y="163" type="curve" smooth="yes"/>
      <point x="133" y="163"/>
      <point x="69" y="246"/>
      <point x="69" y="384" type="curve" smooth="yes"/>
      <point x="69" y="506"/>
      <point x="123" y="609"/>
      <point x="220" y="609" type="curve" smooth="yes"/>
      <point x="317" y="609"/>
      <point x="375" y="511"/>
      <point x="375" y="384" type="curve" smooth="yes"/>
      <point x="375" y="251"/>
      <point x="312" y="163"/>
    </contour>
  </outline>
</glyph>
<glyph name="na" format="2">
  <advance width="400"/>
  <unicode hex="1014"/>
  <note>
na
</note>
  <outline>
    <contour>
      <point x="212" y="-272" type="line"/>
      <point x="238" y="-272" type="line"/>
      <point x="238" y="199" type="line" smooth="yes"/>
      <point x="238" y="307"/>
      <point x="201" y="377"/>
      <point x="128" y="377" type="curve" smooth="yes"/>
      <point x="70" y="377"/>
      <point x="32" y="332"/>
      <point x="32" y="270" type="curve" smooth="yes"/>
      <point x="32" y="178"/>
      <point x="106" y="138"/>
      <point x="204" y="138" type="curve" smooth="yes"/>
      <point x="211" y="138" type="line" smooth="yes"/>
      <point x="324" y="138"/>
      <point x="368" y="199"/>
      <point x="368" y="271" type="curve" smooth="yes"/>
      <point x="368" y="348"/>
      <point x="322" y="385"/>
      <point x="243" y="418" type="curve" smooth="yes"/>
      <point x="170" y="449"/>
      <point x="147" y="479"/>
      <point x="147" y="529" type="curve" smooth="yes"/>
      <point x="147" y="571"/>
      <point x="175" y="607"/>
      <point x="224" y="607" type="curve" smooth="yes"/>
      <point x="268" y="607"/>
      <point x="293" y="592"/>
      <point x="323" y="545" type="curve"/>
      <point x="343" y="560" type="line"/>
      <point x="317" y="599"/>
      <point x="289" y="630"/>
      <point x="224" y="630" type="curve" smooth="yes"/>
      <point x="161" y="630"/>
      <point x="122" y="586"/>
      <point x="122" y="529" type="curve" smooth="yes"/>
      <point x="122" y="464"/>
      <point x="156" y="429"/>
      <point x="231" y="398" type="curve" smooth="yes"/>
      <point x="308" y="367"/>
      <point x="342" y="334"/>
      <point x="342" y="271" type="curve" smooth="yes"/>
      <point x="342" y="208"/>
      <point x="306" y="161"/>
      <point x="213" y="161" type="curve" smooth="yes"/>
      <point x="205" y="161" type="line" smooth="yes"/>
      <point x="127" y="161"/>
      <point x="58" y="189"/>
      <point x="58" y="270" type="curve" smooth="yes"/>
      <point x="58" y="319"/>
      <point x="84" y="354"/>
      <point x="127" y="354" type="curve" smooth="yes"/>
      <point x="188" y="354"/>
      <point x="212" y="289"/>
      <point x="212" y="198" type="curve" smooth="yes"/>
    </contour>
  </outline>
</glyph>
<glyph name="pha" format="2">
  <advance width="447"/>
  <unicode hex="1016"/>
  <note>
pha
</note>
  <outline>
    <contour>
      <point x="224" y="140" type="curve" smooth="yes"/>
      <point x="339" y="140"/>
      <point x="404" y="246"/>
      <point x="404" y="406" type="curve" smooth="yes"/>
      <point x="404" y="496"/>
      <point x="369" y="569"/>
      <point x="317" y="629" type="curve"/>
      <point x="258" y="574"/>
      <point x="232" y="506"/>
      <point x="232" y="406" type="curve" smooth="yes"/>
      <point x="232" y="316"/>
      <point x="268" y="226"/>
      <point x="304" y="188" type="curve"/>
      <point x="323" y="203" type="line"/>
      <point x="287" y="243"/>
      <point x="258" y="324"/>
      <point x="258" y="406" type="curve" smooth="yes"/>
      <point x="258" y="491"/>
      <point x="279" y="556"/>
      <point x="317" y="591" type="curve"/>
      <point x="349" y="553"/>
      <point x="378" y="488"/>
      <point x="378" y="406" type="curve" smooth="yes"/>
      <point x="378" y="256"/>
      <point x="322" y="163"/>
      <point x="224" y="163" type="curve" smooth="yes"/>
      <point x="127" y="163"/>
      <point x="69" y="259"/>
      <point x="69" y="406" type="curve" smooth="yes"/>
      <point x="69" y="473"/>
      <point x="87" y="555"/>
      <point x="136" y="613" type="curve"/>
      <point x="120" y="631" type="line"/>
      <point x="64" y="570"/>
      <point x="43" y="478"/>
      <point x="43" y="406" type="curve" smooth="yes"/>
      <point x="43" y="248"/>
      <point x="110" y="140"/>
    </contour>
  </outline>
</glyph>
<glyph name="ba" format="2">
  <advance width="449"/>
  <unicode hex="1017"/>
  <note>
ba
</note>
  <outline>
    <contour>
      <point x="226" y="140" type="curve" smooth="yes"/>
      <point x="333" y="140"/>
      <point x="403" y="238"/>
      <point x="403" y="397" type="curve" smooth="yes"/>
      <point x="403" y="487"/>
      <point x="368" y="588"/>
      <point x="323" y="631" type="curve"/>
      <point x="307" y="613" type="line"/>
      <point x="348" y="573"/>
      <point x="377" y="472"/>
      <point x="377" y="397" type="curve" smooth="yes"/>
      <point x="377" y="245"/>
      <point x="313" y="163"/>
      <point x="226" y="163" type="curve" smooth="yes"/>
      <point x="132" y="163"/>
      <point x="69" y="245"/>
      <point x="69" y="397" type="curve" smooth="yes"/>
      <point x="69" y="472"/>
      <point x="99" y="574"/>
      <point x="138" y="613" type="curve"/>
      <point x="121" y="631" type="line"/>
      <point x="77" y="588"/>
      <point x="43" y="487"/>
      <point x="43" y="397" type="curve" smooth="yes"/>
      <point x="43" y="242"/>
      <point x="109" y="140"/>
    </contour>
    <contour>
      <point x="221" y="404" type="curve" smooth="yes"/>
      <point x="296" y="404"/>
      <point x="342" y="468"/>
      <point x="342" y="548" type="curve" smooth="yes"/>
      <point x="342" y="579"/>
      <point x="335" y="608"/>
      <point x="323" y="631" type="curve"/>
      <point x="306" y="615" type="line"/>
      <point x="313" y="595"/>
      <point x="318" y="573"/>
      <point x="318" y="548" type="curve" smooth="yes"/>
      <point x="318" y="478"/>
      <point x="278" y="426"/>
      <point x="221" y="426" type="curve" smooth="yes"/>
      <point x="165" y="426"/>
      <point x="125" y="477"/>
      <point x="125" y="548" type="curve" smooth="yes"/>
      <point x="125" y="572"/>
      <point x="130" y="595"/>
      <point x="139" y="613" type="curve"/>
      <point x="122" y="631" type="line"/>
      <point x="108" y="608"/>
      <point x="101" y="578"/>
      <point x="101" y="548" type="curve" smooth="yes"/>
      <point x="101" y="464"/>
      <point x="146" y="404"/>
    </contour>
  </outline>
</glyph>
<glyph name="bha" format="2">
  <advance width="769"/>
  <unicode hex="1018"/>
  <note>
bha
</note>
  <outline>
    <contour>
      <point x="212" y="140" type="curve" smooth="yes"/>
      <point x="324" y="140"/>
      <point x="389" y="247"/>
      <point x="389" y="384" type="curve" smooth="yes"/>
      <point x="389" y="519"/>
      <point x="327" y="631"/>
      <point x="212" y="631" type="curve" smooth="yes"/>
      <point x="125" y="631"/>
      <point x="70" y="571"/>
      <point x="45" y="486" type="curve"/>
      <point x="68" y="476" type="line"/>
      <point x="92" y="558"/>
      <point x="141" y="609"/>
      <point x="212" y="609" type="curve" smooth="yes"/>
      <point x="309" y="609"/>
      <point x="363" y="506"/>
      <point x="363" y="384" type="curve" smooth="yes"/>
      <point x="363" y="246"/>
      <point x="298" y="163"/>
      <point x="212" y="163" type="curve" smooth="yes"/>
      <point x="141" y="163"/>
      <point x="87" y="216"/>
      <point x="65" y="302" type="curve"/>
      <point x="43" y="292" type="line"/>
      <point x="67" y="199"/>
      <point x="125" y="140"/>
    </contour>
    <contour>
      <point x="553" y="142" type="curve" smooth="yes"/>
      <point x="656" y="142"/>
      <point x="726" y="230"/>
      <point x="726" y="375" type="curve" smooth="yes"/>
      <point x="726" y="517"/>
      <point x="672" y="631"/>
      <point x="550" y="631" type="curve" smooth="yes"/>
      <point x="469" y="631"/>
      <point x="403" y="578"/>
      <point x="360" y="489" type="curve"/>
      <point x="372" y="460" type="line"/>
      <point x="423" y="563"/>
      <point x="478" y="609"/>
      <point x="550" y="609" type="curve" smooth="yes"/>
      <point x="654" y="609"/>
      <point x="700" y="506"/>
      <point x="700" y="375" type="curve" smooth="yes"/>
      <point x="700" y="241"/>
      <point x="640" y="164"/>
      <point x="552" y="164" type="curve" smooth="yes"/>
      <point x="520" y="164"/>
      <point x="492" y="170"/>
      <point x="462" y="186" type="curve"/>
      <point x="450" y="166" type="line"/>
      <point x="477" y="152"/>
      <point x="505" y="142"/>
    </contour>
  </outline>
</glyph>
<glyph name="ya" format="2">
  <advance width="772"/>
  <unicode hex="101A"/>
  <note>
ya
</note>
  <outline>
    <contour>
      <point x="224" y="140" type="curve" smooth="yes"/>
      <point x="332" y="140"/>
      <point x="405" y="240"/>
      <point x="405" y="397" type="curve" smooth="yes"/>
      <point x="405" y="487"/>
      <point x="370" y="588"/>
      <point x="326" y="631" type="curve"/>
      <point x="310" y="613" type="line"/>
      <point x="350" y="576"/>
      <point x="379" y="472"/>
      <point x="379" y="397" type="curve" smooth="yes"/>
      <point x="379" y="245"/>
      <point x="310" y="163"/>
      <point x="224" y="163" type="curve" smooth="yes"/>
      <point x="138" y="163"/>
      <point x="69" y="245"/>
      <point x="69" y="397" type="curve" smooth="yes"/>
      <point x="69" y="472"/>
      <point x="97" y="576"/>
      <point x="138" y="613" type="curve"/>
      <point x="121" y="631" type="line"/>
      <point x="78" y="588"/>
      <point x="43" y="487"/>
      <point x="43" y="397" type="curve" smooth="yes"/>
      <point x="43" y="242"/>
      <point x="115" y="140"/>
    </contour>
    <contour>
      <point x="553" y="140" type="curve" smooth="yes"/>
      <point x="664" y="140"/>
      <point x="729" y="245"/>
      <point x="729" y="397" type="curve" smooth="yes"/>
      <point x="729" y="541"/>
      <point x="659" y="630"/>
      <point x="556" y="630" type="curve" smooth="yes"/>
      <point x="516" y="630"/>
      <point x="487" y="625"/>
      <point x="460" y="612" type="curve"/>
      <point x="472" y="591" type="line"/>
      <point x="494" y="604"/>
      <point x="525" y="607"/>
      <point x="554" y="607" type="curve" smooth="yes"/>
      <point x="643" y="607"/>
      <point x="703" y="531"/>
      <point x="703" y="397" type="curve" smooth="yes"/>
      <point x="703" y="265"/>
      <point x="652" y="163"/>
      <point x="553" y="163" type="curve" smooth="yes"/>
      <point x="482" y="163"/>
      <point x="431" y="198"/>
      <point x="379" y="312" type="curve"/>
      <point x="370" y="278" type="line"/>
      <point x="409" y="188"/>
      <point x="468" y="140"/>
    </contour>
  </outline>
</glyph>
<glyph name="ra" format="2">
  <advance width="454"/>
  <unicode hex="101B"/>
  <note>
ra
</note>
  <outline>
    <contour>
      <point x="368" y="-272" type="line"/>
      <point x="486" y="-272" type="line"/>
      <point x="486" y="-250" type="line"/>
      <point x="394" y="-250" type="line"/>
      <point x="394" y="384" type="line" smooth="yes"/>
      <point x="394" y="525"/>
      <point x="340" y="631"/>
      <point x="222" y="631" type="curve" smooth="yes"/>
      <point x="106" y="631"/>
      <point x="43" y="524"/>
      <point x="43" y="386" type="curve" smooth="yes"/>
      <point x="43" y="252"/>
      <point x="102" y="140"/>
      <point x="215" y="140" type="curve" smooth="yes"/>
      <point x="245" y="140"/>
      <point x="273" y="149"/>
      <point x="289" y="156" type="curve"/>
      <point x="289" y="321"/>
      <point x="216" y="419"/>
      <point x="65" y="420" type="curve"/>
      <point x="62" y="397" type="line"/>
      <point x="204" y="397"/>
      <point x="261" y="308"/>
      <point x="263" y="166" type="curve"/>
      <point x="273" y="175" type="line"/>
      <point x="254" y="166"/>
      <point x="237" y="163"/>
      <point x="216" y="163" type="curve" smooth="yes"/>
      <point x="121" y="163"/>
      <point x="69" y="258"/>
      <point x="69" y="386" type="curve" smooth="yes"/>
      <point x="69" y="512"/>
      <point x="124" y="609"/>
      <point x="222" y="609" type="curve" smooth="yes"/>
      <point x="322" y="609"/>
      <point x="368" y="515"/>
      <point x="368" y="384" type="curve" smooth="yes"/>
    </contour>
  </outline>
</glyph>
<glyph name="ha" format="2">
  <advance width="772"/>
  <unicode hex="101F"/>
  <note>
ha
</note>
  <outline>
    <contour>
      <point x="224" y="140" type="curve" smooth="yes"/>
      <point x="332" y="140"/>
      <point x="405" y="240"/>
      <point x="405" y="397" type="curve" smooth="yes"/>
      <point x="405" y="487"/>
      <point x="370" y="588"/>
      <point x="326" y="631" type="curve"/>
      <point x="310" y="613" type="line"/>
      <point x="350" y="576"/>
      <point x="379" y="472"/>
      <point x="379" y="397" type="curve" smooth="yes"/>
      <point x="379" y="245"/>
      <point x="310" y="163"/>
      <point x="224" y="163" type="curve" smooth="yes"/>
      <point x="138" y="163"/>
      <point x="69" y="245"/>
      <point x="69" y="397" type="curve" smooth="yes"/>
      <point x="69" y="472"/>
      <point x="97" y="576"/>
      <point x="138" y="613" type="curve"/>
      <point x="121" y="631" type="line"/>
      <point x="78" y="588"/>
      <point x="43" y="487"/>
      <point x="43" y="397" type="curve" smooth="yes"/>
      <point x="43" y="242"/>
      <point x="115" y="140"/>
    </contour>
    <contour>
      <point x="555" y="142" type="curve" smooth="yes"/>
      <point x="658" y="142"/>
      <point x="728" y="234"/>
      <point x="728" y="379" type="curve" smooth="yes"/>
      <point x="728" y="526"/>
      <point x="663" y="631"/>
      <point x="552" y="631" type="curve" smooth="yes"/>
      <point x="467" y="631"/>
      <point x="408" y="584"/>
      <point x="369" y="494" type="curve"/>
      <point x="378" y="460" type="line"/>
      <point x="430" y="574"/>
      <point x="481" y="609"/>
      <point x="552" y="609" type="curve" smooth="yes"/>
      <point x="651" y="609"/>
      <point x="702" y="506"/>
      <point x="702" y="379" type="curve" smooth="yes"/>
      <point x="702" y="244"/>
      <point x="642" y="164"/>
      <point x="553" y="164" type="curve" smooth="yes"/>
      <point x="524" y="164"/>
      <point x="493" y="168"/>
      <point x="471" y="181" type="curve"/>
      <point x="459" y="160" type="line"/>
      <point x="486" y="146"/>
      <point x="515" y="142"/>
    </contour>
  </outline>
</glyph>
<glyph name="a_m" format="2">
  <advance width="771"/>
  <unicode hex="1021"/>
  <note>
a_m
</note>
  <outline>
    <contour>
      <point x="219" y="140" type="curve" smooth="yes"/>
      <point x="331" y="140"/>
      <point x="394" y="193"/>
      <point x="394" y="283" type="curve" smooth="yes"/>
      <point x="394" y="349"/>
      <point x="354" y="389"/>
      <point x="300" y="399" type="curve"/>
      <point x="300" y="401" type="line"/>
      <point x="348" y="414"/>
      <point x="386" y="445"/>
      <point x="386" y="509" type="curve" smooth="yes"/>
      <point x="386" y="587"/>
      <point x="321" y="631"/>
      <point x="223" y="631" type="curve" smooth="yes"/>
      <point x="131" y="631"/>
      <point x="63" y="593"/>
      <point x="63" y="519" type="curve" smooth="yes"/>
      <point x="63" y="500"/>
      <point x="69" y="483"/>
      <point x="80" y="471" type="curve"/>
      <point x="101" y="484" type="line"/>
      <point x="92" y="495"/>
      <point x="89" y="505"/>
      <point x="89" y="519" type="curve" smooth="yes"/>
      <point x="89" y="577"/>
      <point x="145" y="609"/>
      <point x="223" y="609" type="curve" smooth="yes"/>
      <point x="279" y="609"/>
      <point x="360" y="594"/>
      <point x="360" y="509" type="curve" smooth="yes"/>
      <point x="360" y="444"/>
      <point x="311" y="410"/>
      <point x="257" y="410" type="curve" smooth="yes"/>
      <point x="225" y="410" type="line"/>
      <point x="225" y="388" type="line"/>
      <point x="257" y="388" type="line" smooth="yes"/>
      <point x="334" y="388"/>
      <point x="368" y="338"/>
      <point x="368" y="283" type="curve" smooth="yes"/>
      <point x="368" y="200"/>
      <point x="307" y="163"/>
      <point x="219" y="163" type="curve" smooth="yes"/>
      <point x="136" y="163"/>
      <point x="86" y="199"/>
      <point x="68" y="271" type="curve"/>
      <point x="46" y="260" type="line"/>
      <point x="64" y="188"/>
      <point x="119" y="140"/>
    </contour>
    <contour>
      <point x="556" y="140" type="curve" smooth="yes"/>
      <point x="662" y="140"/>
      <point x="728" y="240"/>
      <point x="728" y="386" type="curve" smooth="yes"/>
      <point x="728" y="525"/>
      <point x="660" y="631"/>
      <point x="542" y="631" type="curve" smooth="yes"/>
      <point x="464" y="631"/>
      <point x="414" y="594"/>
      <point x="371" y="554" type="curve"/>
      <point x="382" y="532" type="line"/>
      <point x="425" y="572"/>
      <point x="472" y="609"/>
      <point x="541" y="609" type="curve" smooth="yes"/>
      <point x="645" y="609"/>
      <point x="702" y="512"/>
      <point x="702" y="386" type="curve" smooth="yes"/>
      <point x="702" y="258"/>
      <point x="651" y="163"/>
      <point x="554" y="163" type="curve" smooth="yes"/>
      <point x="534" y="163"/>
      <point x="519" y="167"/>
      <point x="500" y="178" type="curve"/>
      <point x="507" y="172" type="line"/>
      <point x="509" y="302"/>
      <point x="574" y="397"/>
      <point x="709" y="397" type="curve"/>
      <point x="706" y="420" type="line"/>
      <point x="558" y="419"/>
      <point x="481" y="318"/>
      <point x="481" y="160" type="curve"/>
      <point x="498" y="151"/>
      <point x="526" y="140"/>
    </contour>
  </outline>
</glyph>
<glyph name="i_m" format="2">
  <advance width="755"/>
  <unicode hex="1023"/>
  <note>
i_m
</note>
  <outline>
    <contour>
      <point x="124" y="140" type="curve"/>
      <point x="139" y="159" type="line"/>
      <point x="99" y="199"/>
      <point x="69" y="265"/>
      <point x="69" y="375" type="curve" smooth="yes"/>
      <point x="69" y="522"/>
      <point x="132" y="609"/>
      <point x="218" y="609" type="curve" smooth="yes"/>
      <point x="322" y="609"/>
      <point x="364" y="496"/>
      <point x="364" y="333" type="curve" smooth="yes"/>
      <point x="364" y="254" type="line"/>
      <point x="390" y="254" type="line"/>
      <point x="390" y="333" type="line" smooth="yes"/>
      <point x="390" y="496"/>
      <point x="432" y="609"/>
      <point x="537" y="609" type="curve" smooth="yes"/>
      <point x="623" y="609"/>
      <point x="686" y="522"/>
      <point x="686" y="375" type="curve" smooth="yes"/>
      <point x="686" y="265"/>
      <point x="656" y="198"/>
      <point x="615" y="158" type="curve"/>
      <point x="631" y="140" type="line"/>
      <point x="678" y="185"/>
      <point x="712" y="256"/>
      <point x="712" y="375" type="curve" smooth="yes"/>
      <point x="712" y="535"/>
      <point x="639" y="631"/>
      <point x="537" y="631" type="curve" smooth="yes"/>
      <point x="439" y="631"/>
      <point x="377" y="541"/>
      <point x="377" y="436" type="curve"/>
      <point x="379" y="436" type="line"/>
      <point x="374" y="545"/>
      <point x="316" y="631"/>
      <point x="217" y="631" type="curve" smooth="yes"/>
      <point x="118" y="631"/>
      <point x="43" y="534"/>
      <point x="43" y="375" type="curve" smooth="yes"/>
      <point x="43" y="256"/>
      <point x="77" y="185"/>
    </contour>
    <contour>
      <point x="575" y="-272" type="line"/>
      <point x="679" y="-272" type="line"/>
      <point x="679" y="-250" type="line"/>
      <point x="588" y="-250" type="line"/>
      <point x="607" y="-225"/>
      <point x="636" y="-172"/>
      <point x="636" y="-87" type="curve" smooth="yes"/>
      <point x="636" y="36"/>
      <point x="581" y="105"/>
      <point x="503" y="105" type="curve" smooth="yes"/>
      <point x="429" y="105"/>
      <point x="377" y="37"/>
      <point x="377" y="-43" type="curve"/>
      <point x="379" y="-44" type="line"/>
      <point x="378" y="35"/>
      <point x="328" y="105"/>
      <point x="254" y="105" type="curve" smooth="yes"/>
      <point x="178" y="105"/>
      <point x="121" y="35"/>
      <point x="121" y="-76" type="curve" smooth="yes"/>
      <point x="121" y="-172"/>
      <point x="154" y="-231"/>
      <point x="184" y="-263" type="curve"/>
      <point x="203" y="-246" type="line"/>
      <point x="174" y="-211"/>
      <point x="147" y="-163"/>
      <point x="147" y="-76" type="curve" smooth="yes"/>
      <point x="147" y="20"/>
      <point x="191" y="82"/>
      <point x="254" y="82" type="curve" smooth="yes"/>
      <point x="325" y="82"/>
      <point x="365" y="1"/>
      <point x="365" y="-122" type="curve" smooth="yes"/>
      <point x="365" y="-180" type="line"/>
      <point x="391" y="-180" type="line"/>
      <point x="391" y="-124" type="line" smooth="yes"/>
      <point x="391" y="12"/>
      <point x="432" y="82"/>
      <point x="503" y="82" type="curve" smooth="yes"/>
      <point x="566" y="82"/>
      <point x="610" y="23"/>
      <point x="610" y="-87" type="curve" smooth="yes"/>
      <point x="610" y="-167"/>
      <point x="584" y="-216"/>
      <point x="556" y="-252" type="curve"/>
    </contour>
  </outline>
</glyph>
<glyph name="ii" format="2">
  <advance width="886"/>
  <unicode hex="1024"/>
  <note>
ii
</note>
  <outline>
    <contour>
      <point x="224" y="-271" type="curve" smooth="yes"/>
      <point x="548" y="-271" type="line" smooth="yes"/>
      <point x="632" y="-271"/>
      <point x="680" y="-211"/>
      <point x="680" y="-98" type="curve" smooth="yes"/>
      <point x="680" y="360" type="line" smooth="yes"/>
      <point x="680" y="536"/>
      <point x="623" y="631"/>
      <point x="523" y="631" type="curve" smooth="yes"/>
      <point x="454" y="631"/>
      <point x="406" y="595"/>
      <point x="370" y="528" type="curve"/>
      <point x="383" y="499" type="line"/>
      <point x="418" y="571"/>
      <point x="460" y="609"/>
      <point x="523" y="609" type="curve" smooth="yes"/>
      <point x="607" y="609"/>
      <point x="654" y="522"/>
      <point x="654" y="355" type="curve" smooth="yes"/>
      <point x="654" y="-98" type="line" smooth="yes"/>
      <point x="654" y="-195"/>
      <point x="619" y="-248"/>
      <point x="549" y="-248" type="curve" smooth="yes"/>
      <point x="226" y="-248" type="line" smooth="yes"/>
      <point x="125" y="-248"/>
      <point x="69" y="-212"/>
      <point x="69" y="-141" type="curve" smooth="yes"/>
      <point x="69" y="-58"/>
      <point x="133" y="-21"/>
      <point x="260" y="-21" type="curve" smooth="yes"/>
      <point x="358" y="-21"/>
      <point x="433" y="-57"/>
      <point x="488" y="-85" type="curve"/>
      <point x="501" y="-65" type="line"/>
      <point x="450" y="-39"/>
      <point x="369" y="1"/>
      <point x="260" y="1" type="curve" smooth="yes"/>
      <point x="118" y="1"/>
      <point x="43" y="-45"/>
      <point x="43" y="-141" type="curve" smooth="yes"/>
      <point x="43" y="-219"/>
      <point x="104" y="-271"/>
    </contour>
    <contour>
      <point x="123" y="140" type="curve"/>
      <point x="140" y="158" type="line"/>
      <point x="99" y="196"/>
      <point x="71" y="299"/>
      <point x="71" y="375" type="curve" smooth="yes"/>
      <point x="71" y="526"/>
      <point x="140" y="609"/>
      <point x="226" y="609" type="curve" smooth="yes"/>
      <point x="312" y="609"/>
      <point x="381" y="526"/>
      <point x="381" y="375" type="curve" smooth="yes"/>
      <point x="381" y="299"/>
      <point x="352" y="196"/>
      <point x="312" y="158" type="curve"/>
      <point x="328" y="140" type="line"/>
      <point x="372" y="183"/>
      <point x="407" y="285"/>
      <point x="407" y="375" type="curve" smooth="yes"/>
      <point x="407" y="532"/>
      <point x="334" y="631"/>
      <point x="226" y="631" type="curve" smooth="yes"/>
      <point x="117" y="631"/>
      <point x="45" y="530"/>
      <point x="45" y="375" type="curve" smooth="yes"/>
      <point x="45" y="285"/>
      <point x="80" y="183"/>
    </contour>
    <contour>
      <point x="800" y="-272" type="line"/>
      <point x="826" y="-272" type="line"/>
      <point x="826" y="317" type="line" smooth="yes"/>
      <point x="826" y="526"/>
      <point x="795" y="622"/>
      <point x="706" y="715" type="curve" smooth="yes"/>
      <point x="637" y="788"/>
      <point x="619" y="840"/>
      <point x="619" y="901" type="curve" smooth="yes"/>
      <point x="619" y="973"/>
      <point x="656" y="1030"/>
      <point x="722" y="1030" type="curve" smooth="yes"/>
      <point x="765" y="1030"/>
      <point x="801" y="1011"/>
      <point x="818" y="962" type="curve"/>
      <point x="840" y="973" type="line"/>
      <point x="824" y="1023"/>
      <point x="779" y="1053"/>
      <point x="721" y="1053" type="curve" smooth="yes"/>
      <point x="643" y="1053"/>
      <point x="593" y="987"/>
      <point x="593" y="901" type="curve" smooth="yes"/>
      <point x="593" y="825"/>
      <point x="623" y="767"/>
      <point x="688" y="699" type="curve" smooth="yes"/>
      <point x="770" y="613"/>
      <point x="800" y="523"/>
      <point x="800" y="324" type="curve" smooth="yes"/>
    </contour>
  </outline>
</glyph>
<glyph name="u_m" format="2">
  <advance width="449"/>
  <unicode hex="1025"/>
  <note>
u_m
</note>
  <outline>
    <contour>
      <point x="191" y="-272" type="curve" smooth="yes"/>
      <point x="277" y="-272" type="line" smooth="yes"/>
      <point x="361" y="-272"/>
      <point x="406" y="-229"/>
      <point x="406" y="-144" type="curve" smooth="yes"/>
      <point x="406" y="-72"/>
      <point x="368" y="-24"/>
      <point x="317" y="-24" type="curve" smooth="yes"/>
      <point x="276" y="-24"/>
      <point x="255" y="-43"/>
      <point x="228" y="-74" type="curve"/>
      <point x="248" y="-89" type="line"/>
      <point x="269" y="-63"/>
      <point x="287" y="-46"/>
      <point x="317" y="-46" type="curve" smooth="yes"/>
      <point x="354" y="-46"/>
      <point x="380" y="-86"/>
      <point x="380" y="-144" type="curve" smooth="yes"/>
      <point x="380" y="-216"/>
      <point x="344" y="-250"/>
      <point x="277" y="-250" type="curve" smooth="yes"/>
      <point x="192" y="-250" type="line" smooth="yes"/>
      <point x="122" y="-250"/>
      <point x="86" y="-200"/>
      <point x="86" y="-93" type="curve" smooth="yes"/>
      <point x="86" y="270" type="line"/>
      <point x="60" y="292" type="line"/>
      <point x="60" y="-93" type="line" smooth="yes"/>
      <point x="60" y="-209"/>
      <point x="101" y="-272"/>
    </contour>
    <contour>
      <point x="229" y="140" type="curve" smooth="yes"/>
      <point x="341" y="140"/>
      <point x="406" y="247"/>
      <point x="406" y="384" type="curve" smooth="yes"/>
      <point x="406" y="519"/>
      <point x="344" y="631"/>
      <point x="229" y="631" type="curve" smooth="yes"/>
      <point x="142" y="631"/>
      <point x="87" y="571"/>
      <point x="62" y="486" type="curve"/>
      <point x="85" y="476" type="line"/>
      <point x="109" y="558"/>
      <point x="158" y="609"/>
      <point x="229" y="609" type="curve" smooth="yes"/>
      <point x="326" y="609"/>
      <point x="380" y="506"/>
      <point x="380" y="384" type="curve" smooth="yes"/>
      <point x="380" y="246"/>
      <point x="315" y="163"/>
      <point x="229" y="163" type="curve" smooth="yes"/>
      <point x="158" y="163"/>
      <point x="104" y="216"/>
      <point x="82" y="302" type="curve"/>
      <point x="60" y="292" type="line"/>
      <point x="84" y="199"/>
      <point x="142" y="140"/>
    </contour>
  </outline>
</glyph>
<glyph name="e_m" format="2">
  <advance width="434"/>
  <unicode hex="1027"/>
  <note>
e_m
</note>
  <outline>
    <contour>
      <point x="224" y="140" type="curve" smooth="yes"/>
      <point x="300" y="140"/>
      <point x="360" y="183"/>
      <point x="391" y="253" type="curve"/>
      <point x="356" y="309"/>
      <point x="300" y="344"/>
      <point x="227" y="344" type="curve" smooth="yes"/>
      <point x="167" y="344"/>
      <point x="118" y="312"/>
      <point x="86" y="274" type="curve"/>
      <point x="75" y="307"/>
      <point x="69" y="343"/>
      <point x="69" y="386" type="curve" smooth="yes"/>
      <point x="69" y="428"/>
      <point x="75" y="465"/>
      <point x="86" y="497" type="curve"/>
      <point x="118" y="460"/>
      <point x="167" y="427"/>
      <point x="227" y="427" type="curve" smooth="yes"/>
      <point x="300" y="427"/>
      <point x="356" y="462"/>
      <point x="391" y="518" type="curve"/>
      <point x="360" y="588"/>
      <point x="300" y="631"/>
      <point x="224" y="631" type="curve" smooth="yes"/>
      <point x="111" y="631"/>
      <point x="43" y="530"/>
      <point x="43" y="386" type="curve" smooth="yes"/>
      <point x="43" y="242"/>
      <point x="111" y="140"/>
    </contour>
    <contour>
      <point x="224" y="163" type="curve" smooth="yes"/>
      <point x="167" y="163"/>
      <point x="122" y="195"/>
      <point x="96" y="251" type="curve"/>
      <point x="127" y="286"/>
      <point x="167" y="322"/>
      <point x="228" y="322" type="curve" smooth="yes"/>
      <point x="284" y="322"/>
      <point x="330" y="298"/>
      <point x="363" y="253" type="curve"/>
      <point x="333" y="195"/>
      <point x="284" y="163"/>
    </contour>
    <contour>
      <point x="228" y="450" type="curve" smooth="yes"/>
      <point x="167" y="450"/>
      <point x="127" y="486"/>
      <point x="96" y="521" type="curve"/>
      <point x="122" y="577"/>
      <point x="167" y="609"/>
      <point x="224" y="609" type="curve" smooth="yes"/>
      <point x="284" y="609"/>
      <point x="333" y="577"/>
      <point x="363" y="518" type="curve"/>
      <point x="330" y="474"/>
      <point x="284" y="450"/>
    </contour>
  </outline>
</glyph>
<glyph name="e_mon" format="2">
  <advance width="441"/>
  <unicode hex="1028"/>
  <note>
e_mon
</note>
  <outline>
    <contour>
      <point x="237" y="-271" type="curve" smooth="yes"/>
      <point x="349" y="-271"/>
      <point x="401" y="-164"/>
      <point x="401" y="-59" type="curve" smooth="yes"/>
      <point x="401" y="-31" type="line"/>
      <point x="375" y="-31" type="line"/>
      <point x="375" y="-59" type="line" smooth="yes"/>
      <point x="375" y="-154"/>
      <point x="332" y="-248"/>
      <point x="238" y="-248" type="curve" smooth="yes"/>
      <point x="137" y="-248"/>
      <point x="94" y="-145"/>
      <point x="94" y="-8" type="curve" smooth="yes"/>
      <point x="94" y="377" type="line" smooth="yes"/>
      <point x="94" y="514"/>
      <point x="139" y="618"/>
      <point x="231" y="618" type="curve" smooth="yes"/>
      <point x="324" y="618"/>
      <point x="375" y="524"/>
      <point x="375" y="397" type="curve" smooth="yes"/>
      <point x="375" y="259"/>
      <point x="334" y="163"/>
      <point x="282" y="163" type="curve" smooth="yes"/>
      <point x="260" y="163"/>
      <point x="247" y="177"/>
      <point x="247" y="207" type="curve" smooth="yes"/>
      <point x="247" y="233"/>
      <point x="256" y="252"/>
      <point x="271" y="280" type="curve" smooth="yes"/>
      <point x="279" y="295"/>
      <point x="300" y="328"/>
      <point x="300" y="370" type="curve" smooth="yes"/>
      <point x="300" y="415"/>
      <point x="278" y="445"/>
      <point x="240" y="445" type="curve" smooth="yes"/>
      <point x="197" y="445"/>
      <point x="182" y="412"/>
      <point x="168" y="375" type="curve"/>
      <point x="190" y="363" type="line"/>
      <point x="201" y="394"/>
      <point x="213" y="422"/>
      <point x="241" y="422" type="curve" smooth="yes"/>
      <point x="265" y="422"/>
      <point x="275" y="398"/>
      <point x="275" y="370" type="curve" smooth="yes"/>
      <point x="275" y="339"/>
      <point x="263" y="315"/>
      <point x="252" y="297" type="curve" smooth="yes"/>
      <point x="233" y="266"/>
      <point x="221" y="238"/>
      <point x="221" y="207" type="curve" smooth="yes"/>
      <point x="221" y="167"/>
      <point x="241" y="140"/>
      <point x="282" y="140" type="curve" smooth="yes"/>
      <point x="360" y="140"/>
      <point x="401" y="254"/>
      <point x="401" y="397" type="curve" smooth="yes"/>
      <point x="401" y="535"/>
      <point x="341" y="640"/>
      <point x="230" y="640" type="curve" smooth="yes"/>
      <point x="119" y="640"/>
      <point x="68" y="526"/>
      <point x="68" y="377" type="curve" smooth="yes"/>
      <point x="68" y="-8" type="line" smooth="yes"/>
      <point x="68" y="-158"/>
      <point x="120" y="-271"/>
    </contour>
  </outline>
</glyph>
<glyph name="o_m" format="2">
  <advance width="920"/>
  <unicode hex="1029"/>
  <note>
o_m
</note>
  <outline>
    <contour>
      <point x="191" y="-272" type="curve" smooth="yes"/>
      <point x="735" y="-272" type="line" smooth="yes"/>
      <point x="823" y="-272"/>
      <point x="866" y="-212"/>
      <point x="866" y="-93" type="curve" smooth="yes"/>
      <point x="866" y="307" type="line"/>
      <point x="840" y="307" type="line"/>
      <point x="840" y="-93" type="line" smooth="yes"/>
      <point x="840" y="-196"/>
      <point x="808" y="-249"/>
      <point x="736" y="-249" type="curve" smooth="yes"/>
      <point x="191" y="-249" type="line" smooth="yes"/>
      <point x="121" y="-249"/>
      <point x="86" y="-200"/>
      <point x="86" y="-93" type="curve" smooth="yes"/>
      <point x="86" y="872" type="line" smooth="yes"/>
      <point x="86" y="979"/>
      <point x="121" y="1027"/>
      <point x="191" y="1027" type="curve" smooth="yes"/>
      <point x="736" y="1027" type="line" smooth="yes"/>
      <point x="808" y="1027"/>
      <point x="840" y="974"/>
      <point x="840" y="872" type="curve" smooth="yes"/>
      <point x="840" y="838" type="line"/>
      <point x="866" y="838" type="line"/>
      <point x="866" y="872" type="line" smooth="yes"/>
      <point x="866" y="988"/>
      <point x="825" y="1051"/>
      <point x="735" y="1051" type="curve" smooth="yes"/>
      <point x="191" y="1051" type="line" smooth="yes"/>
      <point x="102" y="1051"/>
      <point x="60" y="988"/>
      <point x="60" y="872" type="curve" smooth="yes"/>
      <point x="60" y="-93" type="line" smooth="yes"/>
      <point x="60" y="-209"/>
      <point x="101" y="-272"/>
    </contour>
    <contour>
      <point x="358" y="140" type="curve" smooth="yes"/>
      <point x="470" y="140"/>
      <point x="535" y="247"/>
      <point x="535" y="384" type="curve" smooth="yes"/>
      <point x="535" y="519"/>
      <point x="473" y="631"/>
      <point x="358" y="631" type="curve" smooth="yes"/>
      <point x="271" y="631"/>
      <point x="216" y="571"/>
      <point x="191" y="486" type="curve"/>
      <point x="214" y="476" type="line"/>
      <point x="238" y="558"/>
      <point x="287" y="609"/>
      <point x="358" y="609" type="curve" smooth="yes"/>
      <point x="455" y="609"/>
      <point x="509" y="506"/>
      <point x="509" y="384" type="curve" smooth="yes"/>
      <point x="509" y="246"/>
      <point x="444" y="163"/>
      <point x="358" y="163" type="curve" smooth="yes"/>
      <point x="287" y="163"/>
      <point x="233" y="216"/>
      <point x="211" y="302" type="curve"/>
      <point x="189" y="292" type="line"/>
      <point x="213" y="199"/>
      <point x="271" y="140"/>
    </contour>
    <contour>
      <point x="701" y="142" type="curve" smooth="yes"/>
      <point x="812" y="142"/>
      <point x="877" y="247"/>
      <point x="877" y="398" type="curve" smooth="yes"/>
      <point x="877" y="543"/>
      <point x="807" y="631"/>
      <point x="704" y="631" type="curve" smooth="yes"/>
      <point x="664" y="631"/>
      <point x="635" y="627"/>
      <point x="608" y="613" type="curve"/>
      <point x="620" y="593" type="line"/>
      <point x="642" y="605"/>
      <point x="673" y="609"/>
      <point x="702" y="609" type="curve" smooth="yes"/>
      <point x="791" y="609"/>
      <point x="851" y="532"/>
      <point x="851" y="398" type="curve" smooth="yes"/>
      <point x="851" y="267"/>
      <point x="800" y="164"/>
      <point x="701" y="164" type="curve" smooth="yes"/>
      <point x="630" y="164"/>
      <point x="579" y="199"/>
      <point x="527" y="314" type="curve"/>
      <point x="515" y="285" type="line"/>
      <point x="557" y="190"/>
      <point x="616" y="142"/>
    </contour>
  </outline>
</glyph>
<glyph name="_tall_aa" format="2">
  <advance width="146"/>
  <unicode hex="102B"/>
  <note>
_tall_aa
</note>
  <outline>
    <contour>
      <point x="60" y="149" type="line"/>
      <point x="86" y="149" type="line"/>
      <point x="86" y="875" type="line" smooth="yes"/>
      <point x="86" y="997"/>
      <point x="43" y="1051"/>
      <point x="-41" y="1051" type="curve" smooth="yes"/>
      <point x="-123" y="1051"/>
      <point x="-166" y="991"/>
      <point x="-166" y="898" type="curve" smooth="yes"/>
      <point x="-166" y="868" type="line"/>
      <point x="-140" y="868" type="line"/>
      <point x="-140" y="899" type="line" smooth="yes"/>
      <point x="-140" y="981"/>
      <point x="-106" y="1028"/>
      <point x="-40" y="1028" type="curve" smooth="yes"/>
      <point x="29" y="1028"/>
      <point x="60" y="983"/>
      <point x="60" y="866" type="curve" smooth="yes"/>
    </contour>
  </outline>
</glyph>
<glyph name="_aa" format="2">
  <advance width="334"/>
  <unicode hex="102C"/>
  <note>
_aa
</note>
  <outline>
    <contour>
      <point x="120" y="142" type="curve" smooth="yes"/>
      <point x="223" y="142"/>
      <point x="292" y="230"/>
      <point x="292" y="375" type="curve" smooth="yes"/>
      <point x="292" y="518"/>
      <point x="235" y="631"/>
      <point x="113" y="631" type="curve" smooth="yes"/>
      <point x="20" y="631"/>
      <point x="-43" y="577"/>
      <point x="-85" y="517" type="curve"/>
      <point x="-74" y="492" type="line"/>
      <point x="-22" y="565"/>
      <point x="35" y="609"/>
      <point x="113" y="609" type="curve" smooth="yes"/>
      <point x="219" y="609"/>
      <point x="266" y="506"/>
      <point x="266" y="375" type="curve" smooth="yes"/>
      <point x="266" y="241"/>
      <point x="207" y="164"/>
      <point x="118" y="164" type="curve" smooth="yes"/>
      <point x="90" y="164"/>
      <point x="59" y="168"/>
      <point x="37" y="181" type="curve"/>
      <point x="25" y="160" type="line"/>
      <point x="53" y="146"/>
      <point x="75" y="142"/>
    </contour>
  </outline>
</glyph>
<glyph name="_i" format="2">
  <unicode hex="102D"/>
  <note>
_i
</note>
  <outline>
    <contour>
      <point x="-201" y="713" type="curve" smooth="yes"/>
      <point x="-121" y="713"/>
      <point x="-82" y="782"/>
      <point x="-82" y="879" type="curve" smooth="yes"/>
      <point x="-82" y="967"/>
      <point x="-120" y="1046"/>
      <point x="-201" y="1046" type="curve" smooth="yes"/>
      <point x="-272" y="1046"/>
      <point x="-319" y="975"/>
      <point x="-319" y="879" type="curve" smooth="yes"/>
      <point x="-319" y="793"/>
      <point x="-282" y="713"/>
    </contour>
    <contour>
      <point x="-200" y="736" type="curve" smooth="yes"/>
      <point x="-265" y="736"/>
      <point x="-293" y="800"/>
      <point x="-293" y="879" type="curve" smooth="yes"/>
      <point x="-293" y="964"/>
      <point x="-257" y="1024"/>
      <point x="-200" y="1024" type="curve" smooth="yes"/>
      <point x="-137" y="1024"/>
      <point x="-108" y="958"/>
      <point x="-108" y="879" type="curve" smooth="yes"/>
      <point x="-108" y="786"/>
      <point x="-144" y="736"/>
    </contour>
  </outline>
</glyph>
<glyph name="_ii" format="2">
  <unicode hex="102E"/>
  <note>
_ii
</note>
  <outline>
    <contour>
      <point x="-201" y="713" type="curve" smooth="yes"/>
      <point x="-125" y="713"/>
      <point x="-82" y="783"/>
      <point x="-82" y="879" type="curve" smooth="yes"/>
      <point x="-82" y="967"/>
      <point x="-120" y="1046"/>
      <point x="-201" y="1046" type="curve" smooth="yes"/>
      <point x="-272" y="1046"/>
      <point x="-319" y="975"/>
      <point x="-319" y="879" type="curve" smooth="yes"/>
      <point x="-319" y="793"/>
      <point x="-282" y="713"/>
    </contour>
    <contour>
      <point x="-200" y="736" type="curve" smooth="yes"/>
      <point x="-266" y="736"/>
      <point x="-294" y="800"/>
      <point x="-294" y="879" type="curve" smooth="yes"/>
      <point x="-294" y="964"/>
      <point x="-258" y="1024"/>
      <point x="-200" y="1024" type="curve" smooth="yes"/>
      <point x="-136" y="1024"/>
      <point x="-106" y="958"/>
      <point x="-106" y="879" type="curve" smooth="yes"/>
      <point x="-106" y="786"/>
      <point x="-143" y="736"/>
    </contour>
    <contour>
      <point x="-286" y="802" type="line"/>
      <point x="-260" y="834"/>
      <point x="-234" y="854"/>
      <point x="-201" y="854" type="curve" smooth="yes"/>
      <point x="-168" y="854"/>
      <point x="-141" y="834"/>
      <point x="-116" y="802" type="curve"/>
      <point x="-105" y="820" type="line"/>
      <point x="-131" y="850"/>
      <point x="-157" y="877"/>
      <point x="-201" y="877" type="curve" smooth="yes"/>
      <point x="-245" y="877"/>
      <point x="-272" y="850"/>
      <point x="-297" y="820" type="curve"/>
    </contour>
  </outline>
</glyph>
<glyph name="_u" format="2">
  <unicode hex="102F"/>
  <note>
_u
</note>
  <outline>
    <contour>
      <point x="-249" y="-272" type="line"/>
      <point x="-113" y="-272" type="line"/>
      <point x="-113" y="-250" type="line"/>
      <point x="-223" y="-250" type="line"/>
      <point x="-223" y="103" type="line"/>
      <point x="-249" y="103" type="line"/>
    </contour>
  </outline>
</glyph>
<glyph name="_uu" format="2">
  <unicode hex="1030"/>
  <note>
_uu
</note>
  <outline>
    <contour>
      <point x="-173" y="-272" type="line"/>
      <point x="-39" y="-272" type="line"/>
      <point x="-39" y="-249" type="line"/>
      <point x="-147" y="-249" type="line"/>
      <point x="-147" y="103" type="line"/>
      <point x="-173" y="103" type="line"/>
    </contour>
    <contour>
      <point x="-283" y="-272" type="line"/>
      <point x="-257" y="-272" type="line"/>
      <point x="-257" y="103" type="line"/>
      <point x="-283" y="103" type="line"/>
    </contour>
  </outline>
</glyph>
<glyph name="_e" format="2">
  <advance width="432"/>
  <unicode hex="1031"/>
  <note>
_e
</note>
  <outline>
    <contour>
      <point x="216" y="140" type="curve" smooth="yes"/>
      <point x="298" y="140"/>
      <point x="356" y="191"/>
      <point x="384" y="280" type="curve"/>
      <point x="352" y="332"/>
      <point x="297" y="367"/>
      <point x="236" y="367" type="curve" smooth="yes"/>
      <point x="159" y="367"/>
      <point x="105" y="319"/>
      <point x="74" y="271" type="curve"/>
      <point x="89" y="253" type="line"/>
      <point x="120" y="297"/>
      <point x="163" y="344"/>
      <point x="237" y="344" type="curve" smooth="yes"/>
      <point x="286" y="344"/>
      <point x="326" y="320"/>
      <point x="358" y="276" type="curve"/>
      <point x="329" y="203"/>
      <point x="282" y="163"/>
      <point x="216" y="163" type="curve" smooth="yes"/>
      <point x="130" y="163"/>
      <point x="69" y="251"/>
      <point x="69" y="384" type="curve" smooth="yes"/>
      <point x="69" y="511"/>
      <point x="129" y="609"/>
      <point x="227" y="609" type="curve" smooth="yes"/>
      <point x="307" y="609"/>
      <point x="346" y="554"/>
      <point x="367" y="476" type="curve"/>
      <point x="388" y="487" type="line"/>
      <point x="365" y="570"/>
      <point x="318" y="631"/>
      <point x="228" y="631" type="curve" smooth="yes"/>
      <point x="114" y="631"/>
      <point x="43" y="521"/>
      <point x="43" y="384" type="curve" smooth="yes"/>
      <point x="43" y="242"/>
      <point x="111" y="140"/>
    </contour>
  </outline>
</glyph>
<glyph name="_ai" format="2">
  <unicode hex="1032"/>
  <note>
_ai
</note>
  <outline>
    <contour>
      <point x="-135" y="708" type="line"/>
      <point x="-115" y="723" type="line"/>
      <point x="-240" y="915" type="line"/>
      <point x="-262" y="903" type="line"/>
    </contour>
  </outline>
</glyph>
<glyph name="_ii_mon" format="2">
  <unicode hex="1033"/>
  <note>
_ii_mon
</note>
  <outline>
    <contour>
      <point x="-215" y="713" type="curve" smooth="yes"/>
      <point x="-137" y="713"/>
      <point x="-83" y="778"/>
      <point x="-83" y="880" type="curve" smooth="yes"/>
      <point x="-83" y="973"/>
      <point x="-139" y="1045"/>
      <point x="-215" y="1045" type="curve" smooth="yes"/>
      <point x="-294" y="1045"/>
      <point x="-345" y="969"/>
      <point x="-345" y="880" type="curve" smooth="yes"/>
      <point x="-345" y="784"/>
      <point x="-292" y="713"/>
    </contour>
    <contour>
      <point x="-215" y="736" type="curve" smooth="yes"/>
      <point x="-274" y="736"/>
      <point x="-319" y="793"/>
      <point x="-319" y="880" type="curve" smooth="yes"/>
      <point x="-319" y="962"/>
      <point x="-274" y="1021"/>
      <point x="-215" y="1021" type="curve" smooth="yes"/>
      <point x="-152" y="1021"/>
      <point x="-109" y="959"/>
      <point x="-109" y="880" type="curve" smooth="yes"/>
      <point x="-109" y="787"/>
      <point x="-154" y="736"/>
    </contour>
    <contour>
      <point x="-215" y="810" type="curve" smooth="yes"/>
      <point x="-182" y="810"/>
      <point x="-159" y="836"/>
      <point x="-159" y="880" type="curve" smooth="yes"/>
      <point x="-159" y="922"/>
      <point x="-183" y="949"/>
      <point x="-215" y="949" type="curve" smooth="yes"/>
      <point x="-246" y="949"/>
      <point x="-269" y="921"/>
      <point x="-269" y="880" type="curve" smooth="yes"/>
      <point x="-269" y="838"/>
      <point x="-244" y="810"/>
    </contour>
    <contour>
      <point x="-215" y="832" type="curve" smooth="yes"/>
      <point x="-231" y="832"/>
      <point x="-243" y="851"/>
      <point x="-243" y="880" type="curve" smooth="yes"/>
      <point x="-243" y="909"/>
      <point x="-229" y="927"/>
      <point x="-215" y="927" type="curve" smooth="yes"/>
      <point x="-197" y="927"/>
      <point x="-185" y="909"/>
      <point x="-185" y="880" type="curve" smooth="yes"/>
      <point x="-185" y="851"/>
      <point x="-196" y="832"/>
    </contour>
  </outline>
</glyph>
<glyph name="_o_mon" format="2">
  <unicode hex="1034"/>
  <note>
_o_mon
</note>
  <outline>
    <contour>
      <point x="-275" y="713" type="line"/>
      <point x="-155" y="904" type="line"/>
      <point x="-174" y="917" type="line"/>
      <point x="-293" y="732" type="line"/>
    </contour>
  </outline>
</glyph>
<glyph name="_e_above" format="2">
  <unicode hex="1035"/>
  <note>
_e_above
</note>
  <outline>
    <contour>
      <point x="-200" y="713" type="curve" smooth="yes"/>
      <point x="-145" y="713"/>
      <point x="-100" y="751"/>
      <point x="-81" y="815" type="curve"/>
      <point x="-111" y="851"/>
      <point x="-148" y="872"/>
      <point x="-195" y="872" type="curve" smooth="yes"/>
      <point x="-243" y="872"/>
      <point x="-279" y="851"/>
      <point x="-301" y="829" type="curve"/>
      <point x="-289" y="808" type="line"/>
      <point x="-268" y="828"/>
      <point x="-240" y="849"/>
      <point x="-195" y="849" type="curve" smooth="yes"/>
      <point x="-159" y="849"/>
      <point x="-132" y="833"/>
      <point x="-110" y="811" type="curve"/>
      <point x="-128" y="762"/>
      <point x="-161" y="736"/>
      <point x="-201" y="736" type="curve" smooth="yes"/>
      <point x="-261" y="736"/>
      <point x="-297" y="797"/>
      <point x="-297" y="880" type="curve" smooth="yes"/>
      <point x="-297" y="963"/>
      <point x="-260" y="1024"/>
      <point x="-200" y="1024" type="curve" smooth="yes"/>
      <point x="-151" y="1024"/>
      <point x="-116" y="990"/>
      <point x="-102" y="937" type="curve"/>
      <point x="-79" y="948" type="line"/>
      <point x="-94" y="1006"/>
      <point x="-141" y="1046"/>
      <point x="-199" y="1046" type="curve" smooth="yes"/>
      <point x="-277" y="1046"/>
      <point x="-323" y="975"/>
      <point x="-323" y="880" type="curve" smooth="yes"/>
      <point x="-323" y="784"/>
      <point x="-276" y="713"/>
    </contour>
  </outline>
</glyph>
<glyph name="anusvara" format="2">
  <unicode hex="1036"/>
  <note>
anusvara
</note>
  <outline>
    <contour>
      <point x="-218" y="727" type="curve" smooth="yes"/>
      <point x="-179" y="727"/>
      <point x="-150" y="757"/>
      <point x="-150" y="811" type="curve" smooth="yes"/>
      <point x="-150" y="862"/>
      <point x="-179" y="892"/>
      <point x="-218" y="892" type="curve" smooth="yes"/>
      <point x="-258" y="892"/>
      <point x="-286" y="856"/>
      <point x="-286" y="810" type="curve" smooth="yes"/>
      <point x="-286" y="759"/>
      <point x="-258" y="727"/>
    </contour>
    <contour>
      <point x="-218" y="749" type="curve" smooth="yes"/>
      <point x="-245" y="749"/>
      <point x="-260" y="769"/>
      <point x="-260" y="810" type="curve" smooth="yes"/>
      <point x="-260" y="845"/>
      <point x="-244" y="870"/>
      <point x="-218" y="870" type="curve" smooth="yes"/>
      <point x="-193" y="870"/>
      <point x="-176" y="845"/>
      <point x="-176" y="810" type="curve" smooth="yes"/>
      <point x="-176" y="771"/>
      <point x="-193" y="749"/>
    </contour>
  </outline>
</glyph>
<glyph name="dot_below" format="2">
  <unicode hex="1037"/>
  <note>
dot_below
</note>
  <outline>
    <contour>
      <point x="-218" y="-154" type="curve" smooth="yes"/>
      <point x="-179" y="-154"/>
      <point x="-150" y="-124"/>
      <point x="-150" y="-71" type="curve" smooth="yes"/>
      <point x="-150" y="-19"/>
      <point x="-179" y="11"/>
      <point x="-218" y="11" type="curve" smooth="yes"/>
      <point x="-258" y="11"/>
      <point x="-286" y="-25"/>
      <point x="-286" y="-72" type="curve" smooth="yes"/>
      <point x="-286" y="-122"/>
      <point x="-258" y="-154"/>
    </contour>
    <contour>
      <point x="-218" y="-132" type="curve" smooth="yes"/>
      <point x="-245" y="-132"/>
      <point x="-260" y="-112"/>
      <point x="-260" y="-72" type="curve" smooth="yes"/>
      <point x="-260" y="-36"/>
      <point x="-244" y="-11"/>
      <point x="-218" y="-11" type="curve" smooth="yes"/>
      <point x="-193" y="-11"/>
      <point x="-176" y="-36"/>
      <point x="-176" y="-72" type="curve" smooth="yes"/>
      <point x="-176" y="-110"/>
      <point x="-193" y="-132"/>
    </contour>
  </outline>
</glyph>
<glyph name="visarga" format="2">
  <advance width="214"/>
  <unicode hex="1038"/>
  <note>
visarga
</note>
  <outline>
    <contour>
      <point x="107" y="464" type="curve" smooth="yes"/>
      <point x="146" y="464"/>
      <point x="175" y="495"/>
      <point x="175" y="548" type="curve" smooth="yes"/>
      <point x="175" y="599"/>
      <point x="146" y="630"/>
      <point x="107" y="630" type="curve" smooth="yes"/>
      <point x="67" y="630"/>
      <point x="39" y="594"/>
      <point x="39" y="547" type="curve" smooth="yes"/>
      <point x="39" y="496"/>
      <point x="67" y="464"/>
    </contour>
    <contour>
      <point x="107" y="137" type="curve" smooth="yes"/>
      <point x="146" y="137"/>
      <point x="175" y="168"/>
      <point x="175" y="221" type="curve" smooth="yes"/>
      <point x="175" y="272"/>
      <point x="146" y="303"/>
      <point x="107" y="303" type="curve" smooth="yes"/>
      <point x="67" y="303"/>
      <point x="39" y="267"/>
      <point x="39" y="220" type="curve" smooth="yes"/>
      <point x="39" y="170"/>
      <point x="67" y="137"/>
    </contour>
    <contour>
      <point x="107" y="160" type="curve" smooth="yes"/>
      <point x="80" y="160"/>
      <point x="65" y="180"/>
      <point x="65" y="220" type="curve" smooth="yes"/>
      <point x="65" y="255"/>
      <point x="81" y="280"/>
      <point x="107" y="280" type="curve" smooth="yes"/>
      <point x="132" y="280"/>
      <point x="149" y="255"/>
      <point x="149" y="220" type="curve" smooth="yes"/>
      <point x="149" y="181"/>
      <point x="132" y="160"/>
    </contour>
    <contour>
      <point x="107" y="487" type="curve" smooth="yes"/>
      <point x="80" y="487"/>
      <point x="65" y="506"/>
      <point x="65" y="547" type="curve" smooth="yes"/>
      <point x="65" y="582"/>
      <point x="81" y="607"/>
      <point x="107" y="607" type="curve" smooth="yes"/>
      <point x="132" y="607"/>
      <point x="149" y="582"/>
      <point x="149" y="547" type="curve" smooth="yes"/>
      <point x="149" y="508"/>
      <point x="132" y="487"/>
    </contour>
  </outline>
</glyph>
<glyph name="virama" format="2">
  <unicode hex="1039"/>
  <note>
virama
</note>
  <outline>
    <contour>
      <point x="-228" y="-206" type="line"/>
      <point x="-202" y="-206" type="line"/>
      <point x="-202" y="-84" type="line"/>
      <point x="-114" y="-84" type="line"/>
      <point x="-114" y="-62" type="line"/>
      <point x="-202" y="-62" type="line"/>
      <point x="-202" y="61" type="line"/>
      <point x="-228" y="61" type="line"/>
      <point x="-228" y="-62" type="line"/>
      <point x="-315" y="-62" type="line"/>
      <point x="-315" y="-84" type="line"/>
      <point x="-228" y="-84" type="line"/>
    </contour>
  </outline>
</glyph>
<glyph name="asat" format="2">
  <unicode hex="103A"/>
  <note>
asat
</note>
  <outline>
    <contour>
      <point x="-249" y="723" type="curve"/>
      <point x="-233" y="741" type="line"/>
      <point x="-270" y="776"/>
      <point x="-292" y="824"/>
      <point x="-292" y="886" type="curve" smooth="yes"/>
      <point x="-292" y="972"/>
      <point x="-255" y="1024"/>
      <point x="-203" y="1024" type="curve" smooth="yes"/>
      <point x="-165" y="1024"/>
      <point x="-143" y="994"/>
      <point x="-127" y="958" type="curve"/>
      <point x="-105" y="972" type="line"/>
      <point x="-123" y="1011"/>
      <point x="-153" y="1046"/>
      <point x="-203" y="1046" type="curve" smooth="yes"/>
      <point x="-268" y="1046"/>
      <point x="-318" y="991"/>
      <point x="-318" y="886" type="curve" smooth="yes"/>
      <point x="-318" y="802"/>
      <point x="-281" y="755"/>
    </contour>
  </outline>
</glyph>
<glyph name="medial_ya" format="2">
  <advance width="146"/>
  <unicode hex="103B"/>
  <note>
medial_ya
</note>
  <outline>
    <contour>
      <point x="86" y="-263" type="line"/>
      <point x="86" y="613" type="line"/>
      <point x="60" y="613" type="line"/>
      <point x="60" y="-227" type="line"/>
      <point x="-79" y="-167" type="line"/>
      <point x="-79" y="235" type="line"/>
      <point x="-105" y="235" type="line"/>
      <point x="-105" y="-181" type="line"/>
    </contour>
  </outline>
</glyph>
<glyph name="medial_wa" format="2">
  <unicode hex="103D"/>
  <note>
medial_wa
</note>
  <outline>
    <contour>
      <point x="-182" y="-218" type="curve" smooth="yes"/>
      <point x="-106" y="-218"/>
      <point x="-69" y="-155"/>
      <point x="-69" y="-62" type="curve" smooth="yes"/>
      <point x="-69" y="27"/>
      <point x="-103" y="103"/>
      <point x="-183" y="103" type="curve" smooth="yes"/>
      <point x="-258" y="103"/>
      <point x="-296" y="37"/>
      <point x="-296" y="-62" type="curve" smooth="yes"/>
      <point x="-296" y="-144"/>
      <point x="-263" y="-218"/>
    </contour>
    <contour>
      <point x="-181" y="-196" type="curve" smooth="yes"/>
      <point x="-243" y="-196"/>
      <point x="-270" y="-136"/>
      <point x="-270" y="-62" type="curve" smooth="yes"/>
      <point x="-270" y="24"/>
      <point x="-241" y="81"/>
      <point x="-183" y="81" type="curve" smooth="yes"/>
      <point x="-122" y="81"/>
      <point x="-95" y="17"/>
      <point x="-95" y="-62" type="curve" smooth="yes"/>
      <point x="-95" y="-148"/>
      <point x="-128" y="-196"/>
    </contour>
  </outline>
</glyph>
<glyph name="medial_ha" format="2">
  <unicode hex="103E"/>
  <note>
medial_ha
</note>
  <outline>
    <contour>
      <point x="-322" y="-272" type="line"/>
      <point x="-188" y="-272" type="line"/>
      <point x="-188" y="103" type="line"/>
      <point x="-214" y="103" type="line"/>
      <point x="-214" y="-250" type="line"/>
      <point x="-322" y="-250" type="line"/>
    </contour>
  </outline>
</glyph>
<glyph name="great_sa" format="2">
  <advance width="1112"/>
  <unicode hex="103F"/>
  <note>
great_sa
</note>
  <outline>
    <contour>
      <point x="212" y="140" type="curve" smooth="yes"/>
      <point x="324" y="140"/>
      <point x="389" y="247"/>
      <point x="389" y="384" type="curve" smooth="yes"/>
      <point x="389" y="519"/>
      <point x="327" y="631"/>
      <point x="212" y="631" type="curve" smooth="yes"/>
      <point x="125" y="631"/>
      <point x="70" y="571"/>
      <point x="45" y="486" type="curve"/>
      <point x="68" y="476" type="line"/>
      <point x="92" y="558"/>
      <point x="141" y="609"/>
      <point x="212" y="609" type="curve" smooth="yes"/>
      <point x="309" y="609"/>
      <point x="363" y="506"/>
      <point x="363" y="384" type="curve" smooth="yes"/>
      <point x="363" y="246"/>
      <point x="298" y="163"/>
      <point x="212" y="163" type="curve" smooth="yes"/>
      <point x="141" y="163"/>
      <point x="87" y="216"/>
      <point x="65" y="302" type="curve"/>
      <point x="43" y="292" type="line"/>
      <point x="67" y="199"/>
      <point x="125" y="140"/>
    </contour>
    <contour>
      <point x="554" y="142" type="curve" smooth="yes"/>
      <point x="665" y="142"/>
      <point x="730" y="247"/>
      <point x="730" y="398" type="curve" smooth="yes"/>
      <point x="730" y="543"/>
      <point x="660" y="631"/>
      <point x="557" y="631" type="curve" smooth="yes"/>
      <point x="517" y="631"/>
      <point x="488" y="627"/>
      <point x="461" y="613" type="curve"/>
      <point x="473" y="593" type="line"/>
      <point x="495" y="605"/>
      <point x="526" y="609"/>
      <point x="555" y="609" type="curve" smooth="yes"/>
      <point x="644" y="609"/>
      <point x="704" y="532"/>
      <point x="704" y="398" type="curve" smooth="yes"/>
      <point x="704" y="267"/>
      <point x="653" y="164"/>
      <point x="554" y="164" type="curve" smooth="yes"/>
      <point x="483" y="164"/>
      <point x="432" y="199"/>
      <point x="380" y="314" type="curve"/>
      <point x="368" y="285" type="line"/>
      <point x="410" y="190"/>
      <point x="469" y="142"/>
    </contour>
    <contour>
      <point x="893" y="142" type="curve" smooth="yes"/>
      <point x="1004" y="142"/>
      <point x="1069" y="247"/>
      <point x="1069" y="398" type="curve" smooth="yes"/>
      <point x="1069" y="543"/>
      <point x="999" y="631"/>
      <point x="896" y="631" type="curve" smooth="yes"/>
      <point x="856" y="631"/>
      <point x="827" y="627"/>
      <point x="800" y="613" type="curve"/>
      <point x="812" y="593" type="line"/>
      <point x="834" y="605"/>
      <point x="865" y="609"/>
      <point x="894" y="609" type="curve" smooth="yes"/>
      <point x="983" y="609"/>
      <point x="1043" y="532"/>
      <point x="1043" y="398" type="curve" smooth="yes"/>
      <point x="1043" y="267"/>
      <point x="992" y="164"/>
      <point x="893" y="164" type="curve" smooth="yes"/>
      <point x="822" y="164"/>
      <point x="771" y="199"/>
      <point x="719" y="314" type="curve"/>
      <point x="707" y="285" type="line"/>
      <point x="749" y="190"/>
      <point x="808" y="142"/>
    </contour>
  </outline>
</glyph>
<glyph name="zero_m" format="2">
  <advance width="444"/>
  <unicode hex="1040"/>
  <note>
zero_m
</note>
  <outline>
    <contour>
      <point x="220" y="140" type="curve" smooth="yes"/>
      <point x="329" y="140"/>
      <point x="401" y="241"/>
      <point x="401" y="384" type="curve" smooth="yes"/>
      <point x="401" y="522"/>
      <point x="333" y="631"/>
      <point x="220" y="631" type="curve" smooth="yes"/>
      <point x="105" y="631"/>
      <point x="43" y="516"/>
      <point x="43" y="384" type="curve" smooth="yes"/>
      <point x="43" y="248"/>
      <point x="108" y="140"/>
    </contour>
    <contour>
      <point x="220" y="163" type="curve" smooth="yes"/>
      <point x="133" y="163"/>
      <point x="69" y="246"/>
      <point x="69" y="384" type="curve" smooth="yes"/>
      <point x="69" y="506"/>
      <point x="123" y="609"/>
      <point x="220" y="609" type="curve" smooth="yes"/>
      <point x="317" y="609"/>
      <point x="375" y="511"/>
      <point x="375" y="384" type="curve" smooth="yes"/>
      <point x="375" y="251"/>
      <point x="312" y="163"/>
    </contour>
  </outline>
</glyph>
<glyph name="one_m" format="2">
  <advance width="442"/>
  <unicode hex="1041"/>
  <note>
one_m
</note>
  <outline>
    <contour>
      <point x="217" y="140" type="curve" smooth="yes"/>
      <point x="332" y="140"/>
      <point x="399" y="247"/>
      <point x="399" y="384" type="curve" smooth="yes"/>
      <point x="399" y="519"/>
      <point x="335" y="631"/>
      <point x="217" y="631" type="curve" smooth="yes"/>
      <point x="127" y="631"/>
      <point x="71" y="571"/>
      <point x="45" y="486" type="curve"/>
      <point x="68" y="476" type="line"/>
      <point x="93" y="558"/>
      <point x="144" y="609"/>
      <point x="217" y="609" type="curve" smooth="yes"/>
      <point x="317" y="609"/>
      <point x="373" y="506"/>
      <point x="373" y="384" type="curve" smooth="yes"/>
      <point x="373" y="246"/>
      <point x="306" y="163"/>
      <point x="217" y="163" type="curve" smooth="yes"/>
      <point x="144" y="163"/>
      <point x="88" y="216"/>
      <point x="65" y="302" type="curve"/>
      <point x="43" y="292" type="line"/>
      <point x="68" y="199"/>
      <point x="127" y="140"/>
    </contour>
  </outline>
</glyph>
<glyph name="two_m" format="2">
  <advance width="433"/>
  <unicode hex="1042"/>
  <note>
two_m
</note>
  <outline>
    <contour>
      <point x="204" y="-271" type="curve" smooth="yes"/>
      <point x="321" y="-271"/>
      <point x="373" y="-158"/>
      <point x="373" y="-8" type="curve" smooth="yes"/>
      <point x="373" y="622" type="line"/>
      <point x="347" y="622" type="line" smooth="yes"/>
      <point x="347" y="-8" type="line" smooth="yes"/>
      <point x="347" y="-145"/>
      <point x="304" y="-248"/>
      <point x="204" y="-248" type="curve" smooth="yes"/>
      <point x="109" y="-248"/>
      <point x="66" y="-154"/>
      <point x="66" y="-59" type="curve" smooth="yes"/>
      <point x="66" y="-31" type="line"/>
      <point x="40" y="-31" type="line"/>
      <point x="40" y="-59" type="line" smooth="yes"/>
      <point x="40" y="-164"/>
      <point x="92" y="-271"/>
    </contour>
  </outline>
</glyph>
<glyph name="three_m" format="2">
  <advance width="444"/>
  <unicode hex="1043"/>
  <note>
three_m
</note>
  <outline>
    <contour>
      <point x="275" y="-272" type="line"/>
      <point x="303" y="-272" type="line"/>
      <point x="187" y="9" type="line" smooth="yes"/>
      <point x="162" y="69"/>
      <point x="129" y="154"/>
      <point x="111" y="189" type="curve"/>
      <point x="106" y="186" type="line"/>
      <point x="134" y="154"/>
      <point x="173" y="140"/>
      <point x="217" y="140" type="curve" smooth="yes"/>
      <point x="332" y="140"/>
      <point x="399" y="247"/>
      <point x="399" y="384" type="curve" smooth="yes"/>
      <point x="399" y="519"/>
      <point x="335" y="631"/>
      <point x="217" y="631" type="curve" smooth="yes"/>
      <point x="127" y="631"/>
      <point x="71" y="571"/>
      <point x="45" y="486" type="curve"/>
      <point x="68" y="476" type="line"/>
      <point x="93" y="558"/>
      <point x="144" y="609"/>
      <point x="217" y="609" type="curve" smooth="yes"/>
      <point x="317" y="609"/>
      <point x="373" y="506"/>
      <point x="373" y="384" type="curve" smooth="yes"/>
      <point x="373" y="246"/>
      <point x="306" y="163"/>
      <point x="217" y="163" type="curve" smooth="yes"/>
      <point x="146" y="163"/>
      <point x="103" y="210"/>
      <point x="66" y="302" type="curve"/>
      <point x="43" y="292" type="line"/>
    </contour>
  </outline>
</glyph>
<glyph name="four_m" format="2">
  <advance width="444"/>
  <unicode hex="1044"/>
  <note>
four_m
</note>
  <outline>
    <contour>
      <point x="139" y="-272" type="line"/>
      <point x="167" y="-272" type="line"/>
      <point x="399" y="292" type="line"/>
      <point x="376" y="302" type="line"/>
      <point x="339" y="210"/>
      <point x="296" y="163"/>
      <point x="225" y="163" type="curve" smooth="yes"/>
      <point x="136" y="163"/>
      <point x="69" y="246"/>
      <point x="69" y="384" type="curve" smooth="yes"/>
      <point x="69" y="506"/>
      <point x="125" y="609"/>
      <point x="225" y="609" type="curve" smooth="yes"/>
      <point x="298" y="609"/>
      <point x="349" y="558"/>
      <point x="374" y="476" type="curve"/>
      <point x="397" y="486" type="line"/>
      <point x="371" y="571"/>
      <point x="315" y="631"/>
      <point x="225" y="631" type="curve" smooth="yes"/>
      <point x="107" y="631"/>
      <point x="43" y="519"/>
      <point x="43" y="384" type="curve" smooth="yes"/>
      <point x="43" y="247"/>
      <point x="110" y="140"/>
      <point x="225" y="140" type="curve" smooth="yes"/>
      <point x="269" y="140"/>
      <point x="308" y="154"/>
      <point x="336" y="186" type="curve"/>
      <point x="331" y="189" type="line"/>
      <point x="313" y="154"/>
      <point x="280" y="69"/>
      <point x="255" y="9" type="curve" smooth="yes"/>
    </contour>
  </outline>
</glyph>
<glyph name="five_m" format="2">
  <advance width="433"/>
  <unicode hex="1045"/>
  <note>
five_m
</note>
  <outline>
    <contour>
      <point x="204" y="-271" type="curve" smooth="yes"/>
      <point x="321" y="-271"/>
      <point x="373" y="-158"/>
      <point x="373" y="-8" type="curve" smooth="yes"/>
      <point x="373" y="400" type="line" smooth="yes"/>
      <point x="373" y="541"/>
      <point x="331" y="630"/>
      <point x="220" y="630" type="curve" smooth="yes"/>
      <point x="119" y="630"/>
      <point x="62" y="536"/>
      <point x="62" y="405" type="curve" smooth="yes"/>
      <point x="62" y="325"/>
      <point x="92" y="271"/>
      <point x="156" y="271" type="curve" smooth="yes"/>
      <point x="212" y="271"/>
      <point x="247" y="319"/>
      <point x="247" y="385" type="curve" smooth="yes"/>
      <point x="247" y="447"/>
      <point x="214" y="499"/>
      <point x="158" y="499" type="curve" smooth="yes"/>
      <point x="124" y="499"/>
      <point x="105" y="487"/>
      <point x="92" y="469" type="curve"/>
      <point x="108" y="537"/>
      <point x="139" y="606"/>
      <point x="219" y="606" type="curve" smooth="yes"/>
      <point x="317" y="606"/>
      <point x="347" y="524"/>
      <point x="347" y="400" type="curve" smooth="yes"/>
      <point x="347" y="-8" type="line" smooth="yes"/>
      <point x="347" y="-145"/>
      <point x="304" y="-248"/>
      <point x="203" y="-248" type="curve" smooth="yes"/>
      <point x="109" y="-248"/>
      <point x="66" y="-154"/>
      <point x="66" y="-59" type="curve" smooth="yes"/>
      <point x="66" y="-31" type="line"/>
      <point x="40" y="-31" type="line"/>
      <point x="40" y="-59" type="line" smooth="yes"/>
      <point x="40" y="-164"/>
      <point x="92" y="-271"/>
    </contour>
    <contour>
      <point x="155" y="293" type="curve" smooth="yes"/>
      <point x="111" y="293"/>
      <point x="90" y="335"/>
      <point x="90" y="385" type="curve" smooth="yes"/>
      <point x="90" y="436"/>
      <point x="110" y="477"/>
      <point x="155" y="477" type="curve" smooth="yes"/>
      <point x="200" y="477"/>
      <point x="221" y="433"/>
      <point x="221" y="385" type="curve" smooth="yes"/>
      <point x="221" y="331"/>
      <point x="197" y="293"/>
    </contour>
  </outline>
</glyph>
<glyph name="six_m" format="2">
  <advance width="475"/>
  <unicode hex="1046"/>
  <note>
six_m
</note>
  <outline>
    <contour>
      <point x="253" y="140" type="curve" smooth="yes"/>
      <point x="378" y="140"/>
      <point x="435" y="243"/>
      <point x="435" y="380" type="curve" smooth="yes"/>
      <point x="435" y="431"/>
      <point x="416" y="460"/>
      <point x="375" y="460" type="curve" smooth="yes"/>
      <point x="320" y="460"/>
      <point x="305" y="406"/>
      <point x="260" y="406" type="curve" smooth="yes"/>
      <point x="218" y="406"/>
      <point x="193" y="451"/>
      <point x="193" y="514" type="curve" smooth="yes"/>
      <point x="193" y="558"/>
      <point x="215" y="610"/>
      <point x="262" y="610" type="curve" smooth="yes"/>
      <point x="285" y="610"/>
      <point x="299" y="601"/>
      <point x="306" y="582" type="curve"/>
      <point x="328" y="594" type="line"/>
      <point x="315" y="622"/>
      <point x="296" y="632"/>
      <point x="262" y="632" type="curve" smooth="yes"/>
      <point x="198" y="632"/>
      <point x="167" y="570"/>
      <point x="167" y="514" type="curve" smooth="yes"/>
      <point x="167" y="441"/>
      <point x="199" y="384"/>
      <point x="260" y="384" type="curve" smooth="yes"/>
      <point x="319" y="384"/>
      <point x="333" y="437"/>
      <point x="374" y="437" type="curve" smooth="yes"/>
      <point x="404" y="437"/>
      <point x="409" y="412"/>
      <point x="409" y="380" type="curve" smooth="yes"/>
      <point x="409" y="252"/>
      <point x="359" y="163"/>
      <point x="254" y="163" type="curve" smooth="yes"/>
      <point x="144" y="163"/>
      <point x="86" y="249"/>
      <point x="86" y="397" type="curve" smooth="yes"/>
      <point x="86" y="757" type="line" smooth="yes"/>
      <point x="86" y="938"/>
      <point x="146" y="1010"/>
      <point x="256" y="1010" type="curve" smooth="yes"/>
      <point x="362" y="1010"/>
      <point x="409" y="915"/>
      <point x="409" y="824" type="curve" smooth="yes"/>
      <point x="409" y="817" type="line"/>
      <point x="435" y="817" type="line"/>
      <point x="435" y="824" type="line" smooth="yes"/>
      <point x="435" y="930"/>
      <point x="376" y="1033"/>
      <point x="256" y="1033" type="curve" smooth="yes"/>
      <point x="129" y="1033"/>
      <point x="60" y="950"/>
      <point x="60" y="757" type="curve" smooth="yes"/>
      <point x="60" y="397" type="line" smooth="yes"/>
      <point x="60" y="241"/>
      <point x="127" y="140"/>
    </contour>
  </outline>
</glyph>
<glyph name="seven_m" format="2">
  <advance width="429"/>
  <unicode hex="1047"/>
  <note>
seven_m
</note>
  <outline>
    <contour>
      <point x="237" y="-263" type="curve" smooth="yes"/>
      <point x="280" y="-263"/>
      <point x="308" y="-242"/>
      <point x="325" y="-197" type="curve"/>
      <point x="305" y="-181" type="line"/>
      <point x="288" y="-225"/>
      <point x="270" y="-241"/>
      <point x="238" y="-241" type="curve" smooth="yes"/>
      <point x="193" y="-241"/>
      <point x="169" y="-207"/>
      <point x="169" y="-147" type="curve" smooth="yes"/>
      <point x="169" y="-79"/>
      <point x="200" y="1"/>
      <point x="288" y="142" type="curve" smooth="yes"/>
      <point x="353" y="246"/>
      <point x="397" y="320"/>
      <point x="397" y="424" type="curve" smooth="yes"/>
      <point x="397" y="545"/>
      <point x="331" y="631"/>
      <point x="222" y="631" type="curve" smooth="yes"/>
      <point x="96" y="631"/>
      <point x="37" y="537"/>
      <point x="37" y="393" type="curve" smooth="yes"/>
      <point x="37" y="285"/>
      <point x="79" y="221"/>
      <point x="118" y="194" type="curve"/>
      <point x="134" y="211" type="line"/>
      <point x="99" y="240"/>
      <point x="63" y="298"/>
      <point x="63" y="393" type="curve" smooth="yes"/>
      <point x="63" y="523"/>
      <point x="112" y="609"/>
      <point x="222" y="609" type="curve" smooth="yes"/>
      <point x="319" y="609"/>
      <point x="371" y="529"/>
      <point x="371" y="424" type="curve" smooth="yes"/>
      <point x="371" y="312"/>
      <point x="322" y="244"/>
      <point x="264" y="152" type="curve" smooth="yes"/>
      <point x="177" y="13"/>
      <point x="143" y="-72"/>
      <point x="143" y="-147" type="curve" smooth="yes"/>
      <point x="143" y="-214"/>
      <point x="175" y="-263"/>
    </contour>
  </outline>
</glyph>
<glyph name="eight_m" format="2">
  <advance width="443"/>
  <unicode hex="1048"/>
  <note>
eight_m
</note>
  <outline>
    <contour>
      <point x="121" y="138" type="curve"/>
      <point x="170" y="197"/>
      <point x="202" y="278"/>
      <point x="202" y="361" type="curve" smooth="yes"/>
      <point x="202" y="473"/>
      <point x="162" y="538"/>
      <point x="123" y="573" type="curve"/>
      <point x="107" y="556" type="line"/>
      <point x="142" y="519"/>
      <point x="176" y="468"/>
      <point x="176" y="361" type="curve" smooth="yes"/>
      <point x="176" y="290"/>
      <point x="152" y="221"/>
      <point x="120" y="178" type="curve"/>
      <point x="92" y="219"/>
      <point x="69" y="283"/>
      <point x="69" y="372" type="curve" smooth="yes"/>
      <point x="69" y="512"/>
      <point x="124" y="609"/>
      <point x="224" y="609" type="curve" smooth="yes"/>
      <point x="306" y="609"/>
      <point x="374" y="526"/>
      <point x="374" y="375" type="curve" smooth="yes"/>
      <point x="374" y="299"/>
      <point x="345" y="196"/>
      <point x="305" y="158" type="curve"/>
      <point x="321" y="140" type="line"/>
      <point x="365" y="183"/>
      <point x="400" y="285"/>
      <point x="400" y="375" type="curve" smooth="yes"/>
      <point x="400" y="532"/>
      <point x="328" y="631"/>
      <point x="224" y="631" type="curve" smooth="yes"/>
      <point x="110" y="631"/>
      <point x="43" y="527"/>
      <point x="43" y="372" type="curve" smooth="yes"/>
      <point x="43" y="267"/>
      <point x="75" y="186"/>
    </contour>
  </outline>
</glyph>
<glyph name="nine_m" format="2">
  <advance width="475"/>
  <unicode hex="1049"/>
  <note>
nine_m
</note>
  <outline>
    <contour>
      <point x="251" y="-263" type="curve" smooth="yes"/>
      <point x="368" y="-263"/>
      <point x="435" y="-161"/>
      <point x="435" y="-54" type="curve" smooth="yes"/>
      <point x="435" y="-47" type="line"/>
      <point x="409" y="-47" type="line"/>
      <point x="409" y="-54" type="line" smooth="yes"/>
      <point x="409" y="-145"/>
      <point x="356" y="-240"/>
      <point x="251" y="-240" type="curve" smooth="yes"/>
      <point x="147" y="-240"/>
      <point x="86" y="-168"/>
      <point x="86" y="12" type="curve" smooth="yes"/>
      <point x="86" y="372" type="line" smooth="yes"/>
      <point x="86" y="521"/>
      <point x="145" y="607"/>
      <point x="254" y="607" type="curve" smooth="yes"/>
      <point x="352" y="607"/>
      <point x="409" y="518"/>
      <point x="409" y="389" type="curve" smooth="yes"/>
      <point x="409" y="355"/>
      <point x="398" y="332"/>
      <point x="374" y="332" type="curve" smooth="yes"/>
      <point x="333" y="332"/>
      <point x="325" y="387"/>
      <point x="260" y="387" type="curve" smooth="yes"/>
      <point x="197" y="387"/>
      <point x="167" y="332"/>
      <point x="167" y="256" type="curve" smooth="yes"/>
      <point x="167" y="202"/>
      <point x="196" y="137"/>
      <point x="262" y="137" type="curve" smooth="yes"/>
      <point x="294" y="137"/>
      <point x="315" y="154"/>
      <point x="327" y="176" type="curve"/>
      <point x="305" y="187" type="line"/>
      <point x="297" y="173"/>
      <point x="283" y="160"/>
      <point x="262" y="160" type="curve" smooth="yes"/>
      <point x="215" y="160"/>
      <point x="193" y="212"/>
      <point x="193" y="256" type="curve" smooth="yes"/>
      <point x="193" y="320"/>
      <point x="215" y="364"/>
      <point x="260" y="364" type="curve" smooth="yes"/>
      <point x="308" y="364"/>
      <point x="318" y="309"/>
      <point x="375" y="309" type="curve" smooth="yes"/>
      <point x="414" y="309"/>
      <point x="435" y="340"/>
      <point x="435" y="389" type="curve" smooth="yes"/>
      <point x="435" y="526"/>
      <point x="372" y="630"/>
      <point x="253" y="630" type="curve" smooth="yes"/>
      <point x="126" y="630"/>
      <point x="60" y="529"/>
      <point x="60" y="372" type="curve" smooth="yes"/>
      <point x="60" y="12" type="line" smooth="yes"/>
      <point x="60" y="-180"/>
      <point x="131" y="-263"/>
    </contour>
  </outline>
</glyph>
<glyph name="little_section" format="2">
  <advance width="143"/>
  <unicode hex="104A"/>
  <note>
little_section
</note>
  <outline>
    <contour>
      <point x="59" y="149" type="line"/>
      <point x="85" y="149" type="line"/>
      <point x="85" y="622" type="line"/>
      <point x="59" y="622" type="line"/>
    </contour>
  </outline>
</glyph>
<glyph name="locative" format="2">
  <advance width="450"/>
  <unicode hex="104C"/>
  <note>
locative
</note>
  <outline>
    <contour>
      <point x="180" y="-273" type="curve" smooth="yes"/>
      <point x="249" y="-273" type="line" smooth="yes"/>
      <point x="339" y="-273"/>
      <point x="380" y="-210"/>
      <point x="380" y="-94" type="curve" smooth="yes"/>
      <point x="380" y="104" type="line"/>
      <point x="333" y="67"/>
      <point x="272" y="45"/>
      <point x="222" y="45" type="curve" smooth="yes"/>
      <point x="165" y="45"/>
      <point x="121" y="63"/>
      <point x="87" y="97" type="curve"/>
      <point x="87" y="261" type="line"/>
      <point x="61" y="295" type="line"/>
      <point x="61" y="90" type="line"/>
      <point x="100" y="45"/>
      <point x="156" y="22"/>
      <point x="216" y="22" type="curve" smooth="yes"/>
      <point x="261" y="22"/>
      <point x="317" y="36"/>
      <point x="354" y="59" type="curve"/>
      <point x="354" y="-95" type="line" smooth="yes"/>
      <point x="354" y="-202"/>
      <point x="318" y="-251"/>
      <point x="248" y="-251" type="curve" smooth="yes"/>
      <point x="180" y="-251" type="line" smooth="yes"/>
      <point x="113" y="-251"/>
      <point x="77" y="-217"/>
      <point x="77" y="-145" type="curve" smooth="yes"/>
      <point x="77" y="-87"/>
      <point x="103" y="-47"/>
      <point x="140" y="-47" type="curve" smooth="yes"/>
      <point x="170" y="-47"/>
      <point x="188" y="-63"/>
      <point x="209" y="-90" type="curve"/>
      <point x="229" y="-75" type="line"/>
      <point x="202" y="-44"/>
      <point x="181" y="-25"/>
      <point x="140" y="-25" type="curve" smooth="yes"/>
      <point x="89" y="-25"/>
      <point x="51" y="-72"/>
      <point x="51" y="-145" type="curve" smooth="yes"/>
      <point x="51" y="-230"/>
      <point x="96" y="-273"/>
    </contour>
    <contour>
      <point x="230" y="143" type="curve" smooth="yes"/>
      <point x="342" y="143"/>
      <point x="407" y="250"/>
      <point x="407" y="387" type="curve" smooth="yes"/>
      <point x="407" y="522"/>
      <point x="345" y="634"/>
      <point x="230" y="634" type="curve" smooth="yes"/>
      <point x="143" y="634"/>
      <point x="88" y="574"/>
      <point x="63" y="488" type="curve"/>
      <point x="86" y="478" type="line"/>
      <point x="110" y="560"/>
      <point x="159" y="612"/>
      <point x="230" y="612" type="curve" smooth="yes"/>
      <point x="327" y="612"/>
      <point x="381" y="509"/>
      <point x="381" y="387" type="curve" smooth="yes"/>
      <point x="381" y="249"/>
      <point x="316" y="165"/>
      <point x="230" y="165" type="curve" smooth="yes"/>
      <point x="159" y="165"/>
      <point x="105" y="218"/>
      <point x="83" y="305" type="curve"/>
      <point x="61" y="295" type="line"/>
      <point x="85" y="202"/>
      <point x="143" y="143"/>
    </contour>
    <component base="asat" xOffset="445"/>
  </outline>
</glyph>
<glyph name="completed" format="2">
  <advance width="600"/>
  <unicode hex="104D"/>
  <note>
completed
</note>
  <outline>
    <contour>
      <point x="172" y="-272" type="curve" smooth="yes"/>
      <point x="409" y="-272" type="line" smooth="yes"/>
      <point x="499" y="-272"/>
      <point x="540" y="-209"/>
      <point x="540" y="-93" type="curve" smooth="yes"/>
      <point x="540" y="317" type="line" smooth="yes"/>
      <point x="540" y="526"/>
      <point x="509" y="622"/>
      <point x="420" y="715" type="curve" smooth="yes"/>
      <point x="351" y="788"/>
      <point x="333" y="840"/>
      <point x="333" y="901" type="curve" smooth="yes"/>
      <point x="333" y="973"/>
      <point x="370" y="1030"/>
      <point x="436" y="1030" type="curve" smooth="yes"/>
      <point x="479" y="1030"/>
      <point x="515" y="1011"/>
      <point x="532" y="962" type="curve"/>
      <point x="554" y="973" type="line"/>
      <point x="538" y="1023"/>
      <point x="493" y="1053"/>
      <point x="435" y="1053" type="curve" smooth="yes"/>
      <point x="357" y="1053"/>
      <point x="307" y="987"/>
      <point x="307" y="901" type="curve" smooth="yes"/>
      <point x="307" y="825"/>
      <point x="337" y="767"/>
      <point x="402" y="699" type="curve" smooth="yes"/>
      <point x="484" y="613"/>
      <point x="514" y="523"/>
      <point x="514" y="324" type="curve" smooth="yes"/>
      <point x="514" y="-93" type="line" smooth="yes"/>
      <point x="514" y="-200"/>
      <point x="478" y="-250"/>
      <point x="408" y="-250" type="curve" smooth="yes"/>
      <point x="172" y="-250" type="line" smooth="yes"/>
      <point x="105" y="-250"/>
      <point x="69" y="-216"/>
      <point x="69" y="-144" type="curve" smooth="yes"/>
      <point x="69" y="-86"/>
      <point x="95" y="-46"/>
      <point x="132" y="-46" type="curve" smooth="yes"/>
      <point x="162" y="-46"/>
      <point x="180" y="-63"/>
      <point x="201" y="-89" type="curve"/>
      <point x="221" y="-74" type="line"/>
      <point x="194" y="-43"/>
      <point x="173" y="-24"/>
      <point x="132" y="-24" type="curve" smooth="yes"/>
      <point x="81" y="-24"/>
      <point x="43" y="-72"/>
      <point x="43" y="-144" type="curve" smooth="yes"/>
      <point x="43" y="-229"/>
      <point x="88" y="-272"/>
    </contour>
    <contour>
      <point x="368" y="-91" type="line"/>
      <point x="394" y="-91" type="line"/>
      <point x="394" y="384" type="line" smooth="yes"/>
      <point x="394" y="525"/>
      <point x="339" y="631"/>
      <point x="222" y="631" type="curve" smooth="yes"/>
      <point x="109" y="631"/>
      <point x="43" y="524"/>
      <point x="43" y="386" type="curve" smooth="yes"/>
      <point x="43" y="252"/>
      <point x="102" y="140"/>
      <point x="215" y="140" type="curve" smooth="yes"/>
      <point x="245" y="140"/>
      <point x="273" y="149"/>
      <point x="289" y="156" type="curve"/>
      <point x="289" y="321"/>
      <point x="216" y="419"/>
      <point x="65" y="420" type="curve"/>
      <point x="62" y="397" type="line"/>
      <point x="204" y="397"/>
      <point x="261" y="308"/>
      <point x="263" y="166" type="curve"/>
      <point x="273" y="175" type="line"/>
      <point x="254" y="166"/>
      <point x="237" y="163"/>
      <point x="216" y="163" type="curve" smooth="yes"/>
      <point x="121" y="163"/>
      <point x="69" y="258"/>
      <point x="69" y="386" type="curve" smooth="yes"/>
      <point x="69" y="511"/>
      <point x="124" y="608"/>
      <point x="222" y="608" type="curve" smooth="yes"/>
      <point x="322" y="608"/>
      <point x="368" y="514"/>
      <point x="368" y="384" type="curve" smooth="yes"/>
    </contour>
  </outline>
</glyph>
<glyph name="aforementioned" format="2">
  <advance width="449"/>
  <unicode hex="104E"/>
  <note>
aforementioned
</note>
  <outline>
    <contour>
      <point x="220" y="140" type="curve" smooth="yes"/>
      <point x="307" y="140"/>
      <point x="365" y="199"/>
      <point x="389" y="292" type="curve"/>
      <point x="367" y="302" type="line"/>
      <point x="345" y="216"/>
      <point x="291" y="163"/>
      <point x="220" y="163" type="curve" smooth="yes"/>
      <point x="134" y="163"/>
      <point x="69" y="246"/>
      <point x="69" y="384" type="curve" smooth="yes"/>
      <point x="69" y="506"/>
      <point x="123" y="609"/>
      <point x="220" y="609" type="curve" smooth="yes"/>
      <point x="291" y="609"/>
      <point x="340" y="558"/>
      <point x="364" y="476" type="curve"/>
      <point x="387" y="486" type="line"/>
      <point x="362" y="571"/>
      <point x="307" y="631"/>
      <point x="220" y="631" type="curve" smooth="yes"/>
      <point x="105" y="631"/>
      <point x="43" y="519"/>
      <point x="43" y="384" type="curve" smooth="yes"/>
      <point x="43" y="247"/>
      <point x="108" y="140"/>
    </contour>
    <contour>
      <point x="363" y="-263" type="line"/>
      <point x="389" y="-263" type="line"/>
      <point x="389" y="292" type="line"/>
      <point x="363" y="259" type="line"/>
    </contour>
  </outline>
</glyph>
<glyph name="genitive" format="2">
  <advance width="740"/>
  <unicode hex="104F"/>
  <note>
genitive
</note>
  <outline>
    <contour>
      <point x="668" y="149" type="line"/>
      <point x="694" y="149" type="line"/>
      <point x="694" y="490" type="line" smooth="yes"/>
      <point x="694" y="644"/>
      <point x="661" y="700"/>
      <point x="568" y="762" type="curve" smooth="yes"/>
      <point x="496" y="810"/>
      <point x="466" y="847"/>
      <point x="466" y="918" type="curve" smooth="yes"/>
      <point x="466" y="977"/>
      <point x="507" y="1030"/>
      <point x="569" y="1030" type="curve" smooth="yes"/>
      <point x="624" y="1030"/>
      <point x="643" y="1000"/>
      <point x="661" y="959" type="curve"/>
      <point x="684" y="969" type="line"/>
      <point x="666" y="1017"/>
      <point x="636" y="1053"/>
      <point x="568" y="1053" type="curve" smooth="yes"/>
      <point x="493" y="1053"/>
      <point x="440" y="991"/>
      <point x="440" y="918" type="curve" smooth="yes"/>
      <point x="440" y="832"/>
      <point x="480" y="795"/>
      <point x="556" y="742" type="curve" smooth="yes"/>
      <point x="640" y="684"/>
      <point x="668" y="633"/>
      <point x="668" y="490" type="curve" smooth="yes"/>
    </contour>
    <contour>
      <point x="522" y="149" type="line"/>
      <point x="548" y="149" type="line"/>
      <point x="548" y="513" type="line" smooth="yes"/>
      <point x="548" y="593"/>
      <point x="514" y="631"/>
      <point x="459" y="631" type="curve" smooth="yes"/>
      <point x="401" y="631"/>
      <point x="377" y="581"/>
      <point x="370" y="541" type="curve"/>
      <point x="391" y="518" type="line"/>
      <point x="396" y="559"/>
      <point x="413" y="609"/>
      <point x="459" y="609" type="curve" smooth="yes"/>
      <point x="497" y="609"/>
      <point x="522" y="581"/>
      <point x="522" y="513" type="curve" smooth="yes"/>
    </contour>
    <component base="e_m"/>
  </outline>
</glyph>
<glyph name="sha_skt" format="2">
  <advance width="448"/>
  <unicode hex="1050"/>
  <note>
sha_skt
</note>
  <outline>
    <contour>
      <point x="225" y="352" type="curve" smooth="yes"/>
      <point x="243" y="352"/>
      <point x="248" y="364"/>
      <point x="248" y="379" type="curve" smooth="yes"/>
      <point x="248" y="394"/>
      <point x="243" y="407"/>
      <point x="225" y="407" type="curve" smooth="yes"/>
      <point x="209" y="407"/>
      <point x="203" y="394"/>
      <point x="203" y="379" type="curve" smooth="yes"/>
      <point x="203" y="364"/>
      <point x="209" y="352"/>
    </contour>
    <component base="ga"/>
  </outline>
</glyph>
<glyph name="ssa_skt" format="2">
  <advance width="449"/>
  <unicode hex="1051"/>
  <note>
ssa_skt
</note>
  <outline>
    <contour>
      <point x="224" y="140" type="curve" smooth="yes"/>
      <point x="332" y="140"/>
      <point x="405" y="240"/>
      <point x="405" y="397" type="curve" smooth="yes"/>
      <point x="405" y="487"/>
      <point x="370" y="588"/>
      <point x="326" y="631" type="curve"/>
      <point x="310" y="613" type="line"/>
      <point x="350" y="576"/>
      <point x="379" y="472"/>
      <point x="379" y="397" type="curve" smooth="yes"/>
      <point x="379" y="245"/>
      <point x="310" y="163"/>
      <point x="224" y="163" type="curve" smooth="yes"/>
      <point x="138" y="163"/>
      <point x="69" y="245"/>
      <point x="69" y="397" type="curve" smooth="yes"/>
      <point x="69" y="472"/>
      <point x="97" y="576"/>
      <point x="138" y="613" type="curve"/>
      <point x="121" y="631" type="line"/>
      <point x="78" y="588"/>
      <point x="43" y="487"/>
      <point x="43" y="397" type="curve" smooth="yes"/>
      <point x="43" y="242"/>
      <point x="115" y="140"/>
    </contour>
    <contour>
      <point x="225" y="364" type="curve" smooth="yes"/>
      <point x="243" y="364"/>
      <point x="248" y="378"/>
      <point x="248" y="392" type="curve" smooth="yes"/>
      <point x="248" y="407"/>
      <point x="243" y="420"/>
      <point x="225" y="420" type="curve" smooth="yes"/>
      <point x="209" y="420"/>
      <point x="203" y="407"/>
      <point x="203" y="392" type="curve" smooth="yes"/>
      <point x="203" y="378"/>
      <point x="209" y="364"/>
    </contour>
  </outline>
</glyph>
<glyph name="vocR_skt" format="2">
  <advance width="441"/>
  <unicode hex="1052"/>
  <note>
vocR_skt
</note>
  <outline>
    <contour>
      <point x="227" y="140" type="curve" smooth="yes"/>
      <point x="332" y="140"/>
      <point x="395" y="222"/>
      <point x="395" y="333" type="curve" smooth="yes"/>
      <point x="395" y="401"/>
      <point x="372" y="446"/>
      <point x="335" y="492" type="curve" smooth="yes"/>
      <point x="313" y="519"/>
      <point x="304" y="544"/>
      <point x="304" y="563" type="curve" smooth="yes"/>
      <point x="304" y="589"/>
      <point x="316" y="607"/>
      <point x="338" y="607" type="curve" smooth="yes"/>
      <point x="356" y="607"/>
      <point x="372" y="594"/>
      <point x="383" y="573" type="curve"/>
      <point x="400" y="589" type="line"/>
      <point x="387" y="616"/>
      <point x="366" y="630"/>
      <point x="337" y="630" type="curve" smooth="yes"/>
      <point x="301" y="630"/>
      <point x="279" y="600"/>
      <point x="279" y="563" type="curve" smooth="yes"/>
      <point x="279" y="536"/>
      <point x="286" y="515"/>
      <point x="316" y="477" type="curve" smooth="yes"/>
      <point x="350" y="433"/>
      <point x="369" y="397"/>
      <point x="369" y="333" type="curve" smooth="yes"/>
      <point x="369" y="232"/>
      <point x="317" y="163"/>
      <point x="226" y="163" type="curve" smooth="yes"/>
      <point x="138" y="163"/>
      <point x="69" y="247"/>
      <point x="69" y="397" type="curve" smooth="yes"/>
      <point x="69" y="483"/>
      <point x="97" y="568"/>
      <point x="139" y="613" type="curve"/>
      <point x="123" y="631" type="line"/>
      <point x="78" y="580"/>
      <point x="43" y="497"/>
      <point x="43" y="397" type="curve" smooth="yes"/>
      <point x="43" y="240"/>
      <point x="118" y="140"/>
    </contour>
  </outline>
</glyph>
<glyph name="vocRR_skt" format="2">
  <advance width="441"/>
  <unicode hex="1053"/>
  <note>
vocRR_skt
</note>
  <outline>
    <contour>
      <point x="221" y="140" type="curve" smooth="yes"/>
      <point x="330" y="140"/>
      <point x="395" y="222"/>
      <point x="395" y="333" type="curve" smooth="yes"/>
      <point x="395" y="401"/>
      <point x="372" y="446"/>
      <point x="335" y="492" type="curve" smooth="yes"/>
      <point x="313" y="519"/>
      <point x="304" y="544"/>
      <point x="304" y="563" type="curve" smooth="yes"/>
      <point x="304" y="589"/>
      <point x="316" y="607"/>
      <point x="338" y="607" type="curve" smooth="yes"/>
      <point x="357" y="607"/>
      <point x="373" y="591"/>
      <point x="383" y="573" type="curve"/>
      <point x="400" y="589" type="line"/>
      <point x="388" y="612"/>
      <point x="366" y="630"/>
      <point x="337" y="630" type="curve" smooth="yes"/>
      <point x="301" y="630"/>
      <point x="279" y="600"/>
      <point x="279" y="563" type="curve" smooth="yes"/>
      <point x="279" y="536"/>
      <point x="286" y="515"/>
      <point x="316" y="477" type="curve" smooth="yes"/>
      <point x="350" y="433"/>
      <point x="369" y="397"/>
      <point x="369" y="333" type="curve" smooth="yes"/>
      <point x="369" y="232"/>
      <point x="316" y="163"/>
      <point x="220" y="163" type="curve" smooth="yes"/>
      <point x="125" y="163"/>
      <point x="72" y="232"/>
      <point x="72" y="333" type="curve" smooth="yes"/>
      <point x="72" y="397"/>
      <point x="91" y="433"/>
      <point x="125" y="477" type="curve" smooth="yes"/>
      <point x="155" y="515"/>
      <point x="162" y="536"/>
      <point x="162" y="563" type="curve" smooth="yes"/>
      <point x="162" y="600"/>
      <point x="140" y="630"/>
      <point x="104" y="630" type="curve" smooth="yes"/>
      <point x="75" y="630"/>
      <point x="54" y="612"/>
      <point x="41" y="589" type="curve"/>
      <point x="58" y="573" type="line"/>
      <point x="69" y="593"/>
      <point x="86" y="607"/>
      <point x="103" y="607" type="curve" smooth="yes"/>
      <point x="125" y="607"/>
      <point x="137" y="589"/>
      <point x="137" y="563" type="curve" smooth="yes"/>
      <point x="137" y="544"/>
      <point x="128" y="519"/>
      <point x="106" y="492" type="curve" smooth="yes"/>
      <point x="69" y="446"/>
      <point x="46" y="401"/>
      <point x="46" y="333" type="curve" smooth="yes"/>
      <point x="46" y="222"/>
      <point x="111" y="140"/>
    </contour>
  </outline>
</glyph>
<glyph name="vocL_skt" format="2">
  <advance width="437"/>
  <unicode hex="1054"/>
  <note>
vocL_skt
</note>
  <outline>
    <contour>
      <point x="231" y="140" type="curve" smooth="yes"/>
      <point x="323" y="140"/>
      <point x="372" y="199"/>
      <point x="394" y="285" type="curve"/>
      <point x="371" y="296" type="line"/>
      <point x="352" y="217"/>
      <point x="310" y="163"/>
      <point x="230" y="163" type="curve" smooth="yes"/>
      <point x="130" y="163"/>
      <point x="69" y="261"/>
      <point x="69" y="388" type="curve" smooth="yes"/>
      <point x="69" y="521"/>
      <point x="131" y="609"/>
      <point x="219" y="609" type="curve" smooth="yes"/>
      <point x="286" y="609"/>
      <point x="334" y="568"/>
      <point x="364" y="496" type="curve"/>
      <point x="331" y="451"/>
      <point x="285" y="427"/>
      <point x="230" y="427" type="curve" smooth="yes"/>
      <point x="161" y="427"/>
      <point x="115" y="466"/>
      <point x="81" y="501" type="curve"/>
      <point x="66" y="484" type="line"/>
      <point x="100" y="443"/>
      <point x="157" y="405"/>
      <point x="229" y="405" type="curve" smooth="yes"/>
      <point x="301" y="405"/>
      <point x="357" y="440"/>
      <point x="390" y="492" type="curve"/>
      <point x="361" y="580"/>
      <point x="302" y="631"/>
      <point x="219" y="631" type="curve" smooth="yes"/>
      <point x="112" y="631"/>
      <point x="43" y="530"/>
      <point x="43" y="388" type="curve" smooth="yes"/>
      <point x="43" y="251"/>
      <point x="112" y="140"/>
    </contour>
  </outline>
</glyph>
<glyph name="vocLL_skt" format="2">
  <advance width="437"/>
  <unicode hex="1055"/>
  <note>
vocLL_skt
</note>
  <outline>
    <contour>
      <point x="160" y="139" type="curve" smooth="yes"/>
      <point x="197" y="139"/>
      <point x="219" y="160"/>
      <point x="234" y="197" type="curve"/>
      <point x="228" y="194" type="line"/>
      <point x="238" y="169"/>
      <point x="262" y="139"/>
      <point x="307" y="139" type="curve" smooth="yes"/>
      <point x="354" y="139"/>
      <point x="387" y="171"/>
      <point x="394" y="247" type="curve"/>
      <point x="368" y="252" type="line"/>
      <point x="362" y="179"/>
      <point x="337" y="163"/>
      <point x="306" y="163" type="curve" smooth="yes"/>
      <point x="271" y="163"/>
      <point x="243" y="194"/>
      <point x="243" y="246" type="curve" smooth="yes"/>
      <point x="243" y="259" type="line"/>
      <point x="217" y="259" type="line"/>
      <point x="217" y="246" type="line" smooth="yes"/>
      <point x="217" y="208"/>
      <point x="201" y="163"/>
      <point x="161" y="163" type="curve" smooth="yes"/>
      <point x="93" y="163"/>
      <point x="69" y="264"/>
      <point x="69" y="377" type="curve" smooth="yes"/>
      <point x="69" y="521"/>
      <point x="130" y="609"/>
      <point x="216" y="609" type="curve" smooth="yes"/>
      <point x="282" y="609"/>
      <point x="329" y="568"/>
      <point x="358" y="496" type="curve"/>
      <point x="326" y="451"/>
      <point x="281" y="427"/>
      <point x="227" y="427" type="curve" smooth="yes"/>
      <point x="159" y="427"/>
      <point x="114" y="466"/>
      <point x="81" y="501" type="curve"/>
      <point x="66" y="484" type="line"/>
      <point x="99" y="443"/>
      <point x="155" y="405"/>
      <point x="226" y="405" type="curve" smooth="yes"/>
      <point x="297" y="405"/>
      <point x="352" y="440"/>
      <point x="384" y="492" type="curve"/>
      <point x="356" y="580"/>
      <point x="298" y="631"/>
      <point x="216" y="631" type="curve" smooth="yes"/>
      <point x="111" y="631"/>
      <point x="43" y="530"/>
      <point x="43" y="377" type="curve" smooth="yes"/>
      <point x="43" y="237"/>
      <point x="79" y="139"/>
    </contour>
  </outline>
</glyph>
<glyph name="_vocR_skt" format="2">
  <advance width="234"/>
  <unicode hex="1056"/>
  <note>
_vocR_skt
</note>
  <outline>
    <contour>
      <point x="51" y="140" type="curve" smooth="yes"/>
      <point x="140" y="140"/>
      <point x="197" y="206"/>
      <point x="197" y="282" type="curve" smooth="yes"/>
      <point x="197" y="357"/>
      <point x="167" y="384"/>
      <point x="107" y="440" type="curve" smooth="yes"/>
      <point x="71" y="474"/>
      <point x="49" y="503"/>
      <point x="49" y="550" type="curve" smooth="yes"/>
      <point x="49" y="577"/>
      <point x="65" y="611"/>
      <point x="99" y="611" type="curve" smooth="yes"/>
      <point x="121" y="611"/>
      <point x="135" y="604"/>
      <point x="154" y="575" type="curve"/>
      <point x="174" y="589" type="line"/>
      <point x="154" y="619"/>
      <point x="134" y="633"/>
      <point x="99" y="633" type="curve" smooth="yes"/>
      <point x="50" y="633"/>
      <point x="23" y="591"/>
      <point x="23" y="550" type="curve" smooth="yes"/>
      <point x="23" y="493"/>
      <point x="49" y="460"/>
      <point x="94" y="419" type="curve" smooth="yes"/>
      <point x="152" y="366"/>
      <point x="171" y="338"/>
      <point x="171" y="282" type="curve" smooth="yes"/>
      <point x="171" y="217"/>
      <point x="124" y="163"/>
      <point x="51" y="163" type="curve" smooth="yes"/>
      <point x="-9" y="163"/>
      <point x="-50" y="193"/>
      <point x="-72" y="253" type="curve"/>
      <point x="-95" y="242" type="line"/>
      <point x="-73" y="181"/>
      <point x="-21" y="140"/>
    </contour>
  </outline>
</glyph>
<glyph name="_vocRR_skt" format="2">
  <advance width="242"/>
  <unicode hex="1057"/>
  <note>
_vocRR_skt
</note>
  <outline>
    <contour>
      <point x="-11" y="139" type="curve" smooth="yes"/>
      <point x="29" y="139"/>
      <point x="50" y="164"/>
      <point x="63" y="197" type="curve"/>
      <point x="53" y="202" type="line"/>
      <point x="68" y="159"/>
      <point x="94" y="140"/>
      <point x="132" y="140" type="curve" smooth="yes"/>
      <point x="185" y="140"/>
      <point x="211" y="196"/>
      <point x="211" y="263" type="curve" smooth="yes"/>
      <point x="211" y="350"/>
      <point x="181" y="384"/>
      <point x="121" y="440" type="curve" smooth="yes"/>
      <point x="85" y="474"/>
      <point x="63" y="503"/>
      <point x="63" y="550" type="curve" smooth="yes"/>
      <point x="63" y="577"/>
      <point x="79" y="611"/>
      <point x="113" y="611" type="curve" smooth="yes"/>
      <point x="135" y="611"/>
      <point x="149" y="604"/>
      <point x="168" y="575" type="curve"/>
      <point x="188" y="589" type="line"/>
      <point x="168" y="619"/>
      <point x="148" y="633"/>
      <point x="113" y="633" type="curve" smooth="yes"/>
      <point x="64" y="633"/>
      <point x="37" y="591"/>
      <point x="37" y="550" type="curve" smooth="yes"/>
      <point x="37" y="493"/>
      <point x="63" y="460"/>
      <point x="108" y="419" type="curve" smooth="yes"/>
      <point x="166" y="366"/>
      <point x="185" y="331"/>
      <point x="185" y="263" type="curve" smooth="yes"/>
      <point x="185" y="214"/>
      <point x="171" y="163"/>
      <point x="131" y="163" type="curve" smooth="yes"/>
      <point x="89" y="163"/>
      <point x="72" y="208"/>
      <point x="72" y="246" type="curve" smooth="yes"/>
      <point x="72" y="259" type="line"/>
      <point x="46" y="259" type="line"/>
      <point x="46" y="246" type="line" smooth="yes"/>
      <point x="46" y="193"/>
      <point x="21" y="162"/>
      <point x="-10" y="162" type="curve" smooth="yes"/>
      <point x="-41" y="162"/>
      <point x="-63" y="178"/>
      <point x="-69" y="252" type="curve"/>
      <point x="-95" y="247" type="line"/>
      <point x="-88" y="171"/>
      <point x="-57" y="139"/>
    </contour>
  </outline>
</glyph>
<glyph name="_vocL_skt" format="2">
  <unicode hex="1058"/>
  <note>
_vocL_skt
</note>
  <outline>
    <contour>
      <point x="-218" y="-265" type="curve" smooth="yes"/>
      <point x="-152" y="-265"/>
      <point x="-115" y="-223"/>
      <point x="-95" y="-156" type="curve"/>
      <point x="-118" y="-145" type="line"/>
      <point x="-134" y="-203"/>
      <point x="-165" y="-243"/>
      <point x="-219" y="-243" type="curve" smooth="yes"/>
      <point x="-289" y="-243"/>
      <point x="-329" y="-171"/>
      <point x="-329" y="-79" type="curve" smooth="yes"/>
      <point x="-329" y="13"/>
      <point x="-289" y="81"/>
      <point x="-224" y="81" type="curve" smooth="yes"/>
      <point x="-181" y="81"/>
      <point x="-145" y="51"/>
      <point x="-127" y="0" type="curve"/>
      <point x="-148" y="-27"/>
      <point x="-178" y="-47"/>
      <point x="-209" y="-47" type="curve" smooth="yes"/>
      <point x="-266" y="-47"/>
      <point x="-297" y="-15"/>
      <point x="-319" y="18" type="curve"/>
      <point x="-334" y="-4" type="line"/>
      <point x="-309" y="-37"/>
      <point x="-270" y="-70"/>
      <point x="-210" y="-70" type="curve" smooth="yes"/>
      <point x="-168" y="-70"/>
      <point x="-131" y="-45"/>
      <point x="-98" y="-5" type="curve"/>
      <point x="-119" y="63"/>
      <point x="-165" y="103"/>
      <point x="-223" y="103" type="curve" smooth="yes"/>
      <point x="-305" y="103"/>
      <point x="-355" y="27"/>
      <point x="-355" y="-79" type="curve" smooth="yes"/>
      <point x="-355" y="-182"/>
      <point x="-305" y="-265"/>
    </contour>
  </outline>
</glyph>
<glyph name="_vocLL_skt" format="2">
  <unicode hex="1059"/>
  <note>
_vocLL_skt
</note>
  <outline>
    <contour>
      <point x="-265" y="-265" type="curve" smooth="yes"/>
      <point x="-238" y="-265"/>
      <point x="-218" y="-252"/>
      <point x="-210" y="-225" type="curve"/>
      <point x="-216" y="-227" type="line"/>
      <point x="-208" y="-246"/>
      <point x="-189" y="-265"/>
      <point x="-155" y="-265" type="curve" smooth="yes"/>
      <point x="-119" y="-265"/>
      <point x="-96" y="-240"/>
      <point x="-91" y="-182" type="curve"/>
      <point x="-117" y="-179" type="line"/>
      <point x="-121" y="-228"/>
      <point x="-134" y="-243"/>
      <point x="-158" y="-243" type="curve" smooth="yes"/>
      <point x="-184" y="-243"/>
      <point x="-200" y="-221"/>
      <point x="-200" y="-183" type="curve" smooth="yes"/>
      <point x="-200" y="-173" type="line"/>
      <point x="-226" y="-173" type="line"/>
      <point x="-226" y="-183" type="line" smooth="yes"/>
      <point x="-226" y="-211"/>
      <point x="-236" y="-243"/>
      <point x="-265" y="-243" type="curve" smooth="yes"/>
      <point x="-311" y="-243"/>
      <point x="-327" y="-169"/>
      <point x="-327" y="-88" type="curve" smooth="yes"/>
      <point x="-327" y="17"/>
      <point x="-280" y="81"/>
      <point x="-213" y="81" type="curve" smooth="yes"/>
      <point x="-169" y="81"/>
      <point x="-130" y="45"/>
      <point x="-115" y="0" type="curve"/>
      <point x="-136" y="-26"/>
      <point x="-168" y="-47"/>
      <point x="-203" y="-47" type="curve" smooth="yes"/>
      <point x="-263" y="-47"/>
      <point x="-294" y="-15"/>
      <point x="-317" y="18" type="curve"/>
      <point x="-331" y="-3" type="line"/>
      <point x="-308" y="-39"/>
      <point x="-265" y="-70"/>
      <point x="-203" y="-70" type="curve" smooth="yes"/>
      <point x="-160" y="-70"/>
      <point x="-120" y="-45"/>
      <point x="-86" y="-5" type="curve"/>
      <point x="-107" y="63"/>
      <point x="-156" y="103"/>
      <point x="-213" y="103" type="curve" smooth="yes"/>
      <point x="-299" y="103"/>
      <point x="-353" y="26"/>
      <point x="-353" y="-88" type="curve" smooth="yes"/>
      <point x="-353" y="-197"/>
      <point x="-325" y="-265"/>
    </contour>
  </outline>
</glyph>
<glyph name="nga_mon" format="2">
  <advance width="432"/>
  <unicode hex="105A"/>
  <note>
nga_mon
</note>
  <outline>
    <contour>
      <point x="220" y="140" type="curve" smooth="yes"/>
      <point x="307" y="140"/>
      <point x="365" y="199"/>
      <point x="389" y="292" type="curve"/>
      <point x="367" y="302" type="line"/>
      <point x="345" y="216"/>
      <point x="291" y="163"/>
      <point x="220" y="163" type="curve" smooth="yes"/>
      <point x="134" y="163"/>
      <point x="69" y="246"/>
      <point x="69" y="384" type="curve" smooth="yes"/>
      <point x="69" y="506"/>
      <point x="123" y="609"/>
      <point x="220" y="609" type="curve" smooth="yes"/>
      <point x="291" y="609"/>
      <point x="340" y="558"/>
      <point x="364" y="476" type="curve"/>
      <point x="387" y="486" type="line"/>
      <point x="362" y="571"/>
      <point x="307" y="631"/>
      <point x="220" y="631" type="curve" smooth="yes"/>
      <point x="105" y="631"/>
      <point x="43" y="519"/>
      <point x="43" y="384" type="curve" smooth="yes"/>
      <point x="43" y="247"/>
      <point x="108" y="140"/>
    </contour>
    <contour>
      <point x="267" y="-263" type="curve" smooth="yes"/>
      <point x="289" y="-263"/>
      <point x="305" y="-255"/>
      <point x="314" y="-247" type="curve"/>
      <point x="301" y="-228" type="line"/>
      <point x="293" y="-234"/>
      <point x="283" y="-241"/>
      <point x="267" y="-241" type="curve" smooth="yes"/>
      <point x="244" y="-241"/>
      <point x="231" y="-221"/>
      <point x="231" y="-196" type="curve" smooth="yes"/>
      <point x="231" y="-171"/>
      <point x="237" y="-150"/>
      <point x="268" y="-108" type="curve" smooth="yes"/>
      <point x="292" y="-75"/>
      <point x="309" y="-45"/>
      <point x="309" y="-3" type="curve" smooth="yes"/>
      <point x="309" y="56"/>
      <point x="276" y="105"/>
      <point x="216" y="105" type="curve" smooth="yes"/>
      <point x="160" y="105"/>
      <point x="125" y="59"/>
      <point x="124" y="-3" type="curve"/>
      <point x="150" y="-3" type="line"/>
      <point x="151" y="48"/>
      <point x="176" y="82"/>
      <point x="217" y="82" type="curve" smooth="yes"/>
      <point x="259" y="82"/>
      <point x="283" y="45"/>
      <point x="283" y="-3" type="curve" smooth="yes"/>
      <point x="283" y="-34"/>
      <point x="272" y="-62"/>
      <point x="251" y="-89" type="curve" smooth="yes"/>
      <point x="210" y="-141"/>
      <point x="205" y="-171"/>
      <point x="205" y="-196" type="curve" smooth="yes"/>
      <point x="205" y="-232"/>
      <point x="228" y="-263"/>
    </contour>
  </outline>
</glyph>
<glyph name="jha_mon" format="2">
  <advance width="571"/>
  <unicode hex="105B"/>
  <note>
jha_mon
</note>
  <outline>
    <contour>
      <point x="220" y="140" type="curve" smooth="yes"/>
      <point x="287" y="140"/>
      <point x="340" y="180"/>
      <point x="371" y="244" type="curve"/>
      <point x="351" y="257" type="line"/>
      <point x="324" y="198"/>
      <point x="278" y="163"/>
      <point x="220" y="163" type="curve" smooth="yes"/>
      <point x="131" y="163"/>
      <point x="69" y="246"/>
      <point x="69" y="384" type="curve" smooth="yes"/>
      <point x="69" y="506"/>
      <point x="124" y="609"/>
      <point x="238" y="609" type="curve" smooth="yes"/>
      <point x="249" y="609"/>
      <point x="257" y="609"/>
      <point x="272" y="606" type="curve"/>
      <point x="270" y="610" type="line"/>
      <point x="238" y="596"/>
      <point x="213" y="556"/>
      <point x="213" y="504" type="curve" smooth="yes"/>
      <point x="213" y="447"/>
      <point x="242" y="394"/>
      <point x="300" y="394" type="curve" smooth="yes"/>
      <point x="328" y="394"/>
      <point x="360" y="408"/>
      <point x="374" y="447" type="curve"/>
      <point x="364" y="428" type="line"/>
      <point x="364" y="340"/>
      <point x="392" y="307"/>
      <point x="451" y="307" type="curve" smooth="yes"/>
      <point x="498" y="307" type="line"/>
      <point x="498" y="330" type="line"/>
      <point x="456" y="330" type="line" smooth="yes"/>
      <point x="399" y="330"/>
      <point x="389" y="363"/>
      <point x="389" y="440" type="curve" smooth="yes"/>
      <point x="389" y="458"/>
      <point x="389" y="467"/>
      <point x="389" y="492" type="curve" smooth="yes"/>
      <point x="389" y="589"/>
      <point x="355" y="631"/>
      <point x="237" y="631" type="curve" smooth="yes"/>
      <point x="106" y="631"/>
      <point x="43" y="516"/>
      <point x="43" y="384" type="curve" smooth="yes"/>
      <point x="43" y="247"/>
      <point x="105" y="140"/>
    </contour>
    <contour>
      <point x="401" y="-270" type="curve" smooth="yes"/>
      <point x="488" y="-270"/>
      <point x="511" y="-204"/>
      <point x="511" y="-35" type="curve" smooth="yes"/>
      <point x="511" y="621" type="line"/>
      <point x="485" y="621" type="line"/>
      <point x="485" y="-35" type="line" smooth="yes"/>
      <point x="485" y="-183"/>
      <point x="472" y="-246"/>
      <point x="402" y="-246" type="curve" smooth="yes"/>
      <point x="343" y="-246"/>
      <point x="316" y="-197"/>
      <point x="316" y="-35" type="curve" smooth="yes"/>
      <point x="316" y="182" type="line"/>
      <point x="290" y="171" type="line"/>
      <point x="290" y="-35" type="line" smooth="yes"/>
      <point x="290" y="-209"/>
      <point x="327" y="-270"/>
    </contour>
    <contour>
      <point x="301" y="416" type="curve" smooth="yes"/>
      <point x="259" y="416"/>
      <point x="239" y="457"/>
      <point x="239" y="504" type="curve" smooth="yes"/>
      <point x="239" y="554"/>
      <point x="267" y="598"/>
      <point x="305" y="598" type="curve" smooth="yes"/>
      <point x="343" y="598"/>
      <point x="363" y="559"/>
      <point x="363" y="496" type="curve" smooth="yes"/>
      <point x="363" y="453"/>
      <point x="335" y="416"/>
    </contour>
  </outline>
</glyph>
<glyph name="bba_mon" format="2">
  <advance width="444"/>
  <unicode hex="105C"/>
  <note>
bba_mon
</note>
  <outline>
    <contour>
      <point x="220" y="140" type="curve" smooth="yes"/>
      <point x="329" y="140"/>
      <point x="401" y="241"/>
      <point x="401" y="384" type="curve" smooth="yes"/>
      <point x="401" y="522"/>
      <point x="333" y="631"/>
      <point x="220" y="631" type="curve" smooth="yes"/>
      <point x="105" y="631"/>
      <point x="43" y="516"/>
      <point x="43" y="384" type="curve" smooth="yes"/>
      <point x="43" y="248"/>
      <point x="108" y="140"/>
    </contour>
    <contour>
      <point x="220" y="163" type="curve" smooth="yes"/>
      <point x="133" y="163"/>
      <point x="69" y="246"/>
      <point x="69" y="384" type="curve" smooth="yes"/>
      <point x="69" y="506"/>
      <point x="123" y="609"/>
      <point x="220" y="609" type="curve" smooth="yes"/>
      <point x="317" y="609"/>
      <point x="375" y="511"/>
      <point x="375" y="384" type="curve" smooth="yes"/>
      <point x="375" y="251"/>
      <point x="312" y="163"/>
    </contour>
    <contour>
      <point x="223" y="300" type="curve" smooth="yes"/>
      <point x="265" y="300"/>
      <point x="293" y="338"/>
      <point x="293" y="387" type="curve" smooth="yes"/>
      <point x="293" y="435"/>
      <point x="265" y="473"/>
      <point x="223" y="473" type="curve" smooth="yes"/>
      <point x="178" y="473"/>
      <point x="151" y="433"/>
      <point x="151" y="387" type="curve" smooth="yes"/>
      <point x="151" y="341"/>
      <point x="178" y="300"/>
    </contour>
    <contour>
      <point x="223" y="323" type="curve" smooth="yes"/>
      <point x="193" y="323"/>
      <point x="177" y="352"/>
      <point x="177" y="387" type="curve" smooth="yes"/>
      <point x="177" y="421"/>
      <point x="193" y="451"/>
      <point x="223" y="451" type="curve" smooth="yes"/>
      <point x="250" y="451"/>
      <point x="267" y="424"/>
      <point x="267" y="387" type="curve" smooth="yes"/>
      <point x="267" y="350"/>
      <point x="250" y="323"/>
    </contour>
  </outline>
</glyph>
<glyph name="bbe_mon" format="2">
  <advance width="448"/>
  <unicode hex="105D"/>
  <note>
bbe_mon
</note>
  <outline>
    <contour>
      <point x="172" y="-272" type="curve" smooth="yes"/>
      <point x="251" y="-272" type="line" smooth="yes"/>
      <point x="341" y="-272"/>
      <point x="382" y="-209"/>
      <point x="382" y="-93" type="curve" smooth="yes"/>
      <point x="382" y="268" type="line"/>
      <point x="356" y="233" type="line"/>
      <point x="356" y="-93" type="line" smooth="yes"/>
      <point x="356" y="-200"/>
      <point x="320" y="-250"/>
      <point x="250" y="-250" type="curve" smooth="yes"/>
      <point x="172" y="-250" type="line" smooth="yes"/>
      <point x="105" y="-250"/>
      <point x="69" y="-216"/>
      <point x="69" y="-144" type="curve" smooth="yes"/>
      <point x="69" y="-86"/>
      <point x="95" y="-46"/>
      <point x="132" y="-46" type="curve" smooth="yes"/>
      <point x="162" y="-46"/>
      <point x="180" y="-63"/>
      <point x="201" y="-89" type="curve"/>
      <point x="221" y="-74" type="line"/>
      <point x="194" y="-43"/>
      <point x="173" y="-24"/>
      <point x="132" y="-24" type="curve" smooth="yes"/>
      <point x="81" y="-24"/>
      <point x="43" y="-72"/>
      <point x="43" y="-144" type="curve" smooth="yes"/>
      <point x="43" y="-229"/>
      <point x="88" y="-272"/>
    </contour>
    <contour>
      <point x="90" y="254" type="line"/>
      <point x="121" y="322"/>
      <point x="170" y="351"/>
      <point x="224" y="351" type="curve" smooth="yes"/>
      <point x="281" y="351"/>
      <point x="327" y="313"/>
      <point x="354" y="254" type="curve"/>
      <point x="371" y="272" type="line"/>
      <point x="347" y="330"/>
      <point x="290" y="373"/>
      <point x="224" y="373" type="curve" smooth="yes"/>
      <point x="162" y="373"/>
      <point x="104" y="341"/>
      <point x="73" y="272" type="curve"/>
    </contour>
    <contour>
      <point x="224" y="140" type="curve" smooth="yes"/>
      <point x="328" y="140"/>
      <point x="405" y="243"/>
      <point x="405" y="397" type="curve" smooth="yes"/>
      <point x="405" y="487"/>
      <point x="370" y="588"/>
      <point x="326" y="631" type="curve"/>
      <point x="310" y="613" type="line"/>
      <point x="350" y="576"/>
      <point x="379" y="472"/>
      <point x="379" y="397" type="curve" smooth="yes"/>
      <point x="379" y="245"/>
      <point x="310" y="163"/>
      <point x="224" y="163" type="curve" smooth="yes"/>
      <point x="138" y="163"/>
      <point x="69" y="245"/>
      <point x="69" y="397" type="curve" smooth="yes"/>
      <point x="69" y="472"/>
      <point x="97" y="576"/>
      <point x="138" y="613" type="curve"/>
      <point x="121" y="631" type="line"/>
      <point x="78" y="588"/>
      <point x="43" y="487"/>
      <point x="43" y="397" type="curve" smooth="yes"/>
      <point x="43" y="243"/>
      <point x="120" y="140"/>
    </contour>
  </outline>
</glyph>
<glyph name="_medialNa_mon" format="2">
  <unicode hex="105E"/>
  <note>
_medialNa_mon
</note>
  <outline>
    <contour>
      <point x="-290" y="-263" type="curve" smooth="yes"/>
      <point x="-237" y="-263"/>
      <point x="-202" y="-216"/>
      <point x="-202" y="-139" type="curve" smooth="yes"/>
      <point x="-202" y="119" type="line"/>
      <point x="-228" y="119" type="line"/>
      <point x="-228" y="-139" type="line" smooth="yes"/>
      <point x="-228" y="-206"/>
      <point x="-252" y="-241"/>
      <point x="-290" y="-241" type="curve" smooth="yes"/>
      <point x="-324" y="-241"/>
      <point x="-352" y="-207"/>
      <point x="-352" y="-147" type="curve" smooth="yes"/>
      <point x="-352" y="-86"/>
      <point x="-318" y="-38"/>
      <point x="-231" y="-38" type="curve" smooth="yes"/>
      <point x="-176" y="-38"/>
      <point x="-141" y="-61"/>
      <point x="-101" y="-94" type="curve"/>
      <point x="-88" y="-74" type="line"/>
      <point x="-132" y="-37"/>
      <point x="-174" y="-16"/>
      <point x="-231" y="-16" type="curve" smooth="yes"/>
      <point x="-330" y="-16"/>
      <point x="-378" y="-72"/>
      <point x="-378" y="-147" type="curve" smooth="yes"/>
      <point x="-378" y="-216"/>
      <point x="-341" y="-263"/>
    </contour>
  </outline>
</glyph>
<glyph name="_medialMa_mon" format="2">
  <unicode hex="105F"/>
  <note>
_medialMa_mon
</note>
  <outline>
    <contour>
      <point x="-225" y="-263" type="curve" smooth="yes"/>
      <point x="-158" y="-263"/>
      <point x="-107" y="-240"/>
      <point x="-63" y="-198" type="curve"/>
      <point x="-78" y="-180" type="line"/>
      <point x="-125" y="-225"/>
      <point x="-172" y="-241"/>
      <point x="-224" y="-241" type="curve" smooth="yes"/>
      <point x="-284" y="-241"/>
      <point x="-338" y="-213"/>
      <point x="-338" y="-136" type="curve" smooth="yes"/>
      <point x="-338" y="-71"/>
      <point x="-290" y="-32"/>
      <point x="-215" y="-32" type="curve" smooth="yes"/>
      <point x="-204" y="-32"/>
      <point x="-196" y="-33"/>
      <point x="-187" y="-34" type="curve"/>
      <point x="-187" y="119" type="line"/>
      <point x="-213" y="119" type="line"/>
      <point x="-213" y="-9" type="line"/>
      <point x="-306" y="-9"/>
      <point x="-364" y="-59"/>
      <point x="-364" y="-136" type="curve" smooth="yes"/>
      <point x="-364" y="-224"/>
      <point x="-299" y="-263"/>
    </contour>
  </outline>
</glyph>
<glyph name="_medialLa_mon" format="2">
  <unicode hex="1060"/>
  <note>
_medialLa_mon
</note>
  <outline>
    <contour>
      <point x="-338" y="-272" type="line"/>
      <point x="-85" y="-272" type="line"/>
      <point x="-85" y="-250" type="line"/>
      <point x="-302" y="-250" type="line"/>
      <point x="-162" y="103" type="line"/>
      <point x="-189" y="103" type="line"/>
    </contour>
  </outline>
</glyph>
<glyph name="eu_skn" format="2">
  <advance width="227"/>
  <unicode hex="1062"/>
  <note>
eu_skn
</note>
  <outline>
    <contour>
      <point x="132" y="149" type="line"/>
      <point x="158" y="149" type="line"/>
      <point x="158" y="622" type="line"/>
      <point x="22" y="622" type="line"/>
      <point x="22" y="600" type="line"/>
      <point x="132" y="600" type="line"/>
    </contour>
  </outline>
</glyph>
<glyph name="hathi_skn" format="2">
  <advance width="449"/>
  <unicode hex="1063"/>
  <note>
hathi_skn
</note>
  <outline>
    <contour>
      <point x="60" y="-263" type="line"/>
      <point x="86" y="-263" type="line"/>
      <point x="86" y="259" type="line"/>
      <point x="60" y="292" type="line"/>
    </contour>
    <contour>
      <point x="229" y="140" type="curve" smooth="yes"/>
      <point x="341" y="140"/>
      <point x="406" y="247"/>
      <point x="406" y="384" type="curve" smooth="yes"/>
      <point x="406" y="519"/>
      <point x="344" y="631"/>
      <point x="229" y="631" type="curve" smooth="yes"/>
      <point x="142" y="631"/>
      <point x="87" y="571"/>
      <point x="62" y="486" type="curve"/>
      <point x="85" y="476" type="line"/>
      <point x="109" y="558"/>
      <point x="158" y="609"/>
      <point x="229" y="609" type="curve" smooth="yes"/>
      <point x="326" y="609"/>
      <point x="380" y="506"/>
      <point x="380" y="384" type="curve" smooth="yes"/>
      <point x="380" y="246"/>
      <point x="315" y="163"/>
      <point x="229" y="163" type="curve" smooth="yes"/>
      <point x="158" y="163"/>
      <point x="104" y="216"/>
      <point x="82" y="302" type="curve"/>
      <point x="60" y="292" type="line"/>
      <point x="84" y="199"/>
      <point x="142" y="140"/>
    </contour>
  </outline>
</glyph>
<glyph name="kepho_skn" format="2">
  <advance width="259"/>
  <unicode hex="1064"/>
  <note>
kepho_skn
</note>
  <outline>
    <contour>
      <point x="116" y="149" type="line"/>
      <point x="235" y="149" type="line"/>
      <point x="235" y="172" type="line"/>
      <point x="143" y="172" type="line"/>
      <point x="143" y="622" type="line"/>
      <point x="24" y="622" type="line"/>
      <point x="24" y="600" type="line"/>
      <point x="116" y="600" type="line"/>
    </contour>
  </outline>
</glyph>
<glyph name="tha_wpk" format="2">
  <advance width="445"/>
  <unicode hex="1065"/>
  <note>
tha_wpk
</note>
  <outline>
    <contour>
      <point x="220" y="140" type="curve" smooth="yes"/>
      <point x="333" y="140"/>
      <point x="402" y="249"/>
      <point x="402" y="384" type="curve" smooth="yes"/>
      <point x="402" y="516"/>
      <point x="335" y="631"/>
      <point x="220" y="631" type="curve" smooth="yes"/>
      <point x="135" y="631"/>
      <point x="72" y="571"/>
      <point x="45" y="486" type="curve"/>
      <point x="67" y="477" type="line"/>
      <point x="91" y="555"/>
      <point x="145" y="608"/>
      <point x="220" y="608" type="curve" smooth="yes"/>
      <point x="320" y="608"/>
      <point x="376" y="505"/>
      <point x="376" y="384" type="curve" smooth="yes"/>
      <point x="376" y="247"/>
      <point x="310" y="163"/>
      <point x="220" y="163" type="curve" smooth="yes"/>
      <point x="145" y="163"/>
      <point x="88" y="217"/>
      <point x="65" y="302" type="curve"/>
      <point x="43" y="292" type="line"/>
      <point x="68" y="200"/>
      <point x="134" y="140"/>
    </contour>
  </outline>
</glyph>
<glyph name="pwa_wpk" format="2">
  <advance width="449"/>
  <unicode hex="1066"/>
  <note>
pwa_wpk
</note>
  <outline>
    <contour>
      <point x="224" y="140" type="curve" smooth="yes"/>
      <point x="332" y="140"/>
      <point x="405" y="240"/>
      <point x="405" y="397" type="curve" smooth="yes"/>
      <point x="405" y="487"/>
      <point x="370" y="588"/>
      <point x="326" y="631" type="curve"/>
      <point x="310" y="613" type="line"/>
      <point x="350" y="576"/>
      <point x="379" y="472"/>
      <point x="379" y="397" type="curve" smooth="yes"/>
      <point x="379" y="245"/>
      <point x="310" y="163"/>
      <point x="224" y="163" type="curve" smooth="yes"/>
      <point x="138" y="163"/>
      <point x="69" y="245"/>
      <point x="69" y="397" type="curve" smooth="yes"/>
      <point x="69" y="472"/>
      <point x="97" y="576"/>
      <point x="138" y="613" type="curve"/>
      <point x="121" y="631" type="line"/>
      <point x="78" y="588"/>
      <point x="43" y="487"/>
      <point x="43" y="397" type="curve" smooth="yes"/>
      <point x="43" y="242"/>
      <point x="115" y="140"/>
    </contour>
    <contour>
      <point x="127" y="-272" type="line"/>
      <point x="247" y="-272" type="line"/>
      <point x="247" y="144" type="line"/>
      <point x="221" y="145" type="line"/>
      <point x="221" y="-250" type="line"/>
      <point x="127" y="-250" type="line"/>
    </contour>
  </outline>
</glyph>
<glyph name="eu_wpk" format="2">
  <advance width="288"/>
  <unicode hex="1067"/>
  <note>
eu_wpk
</note>
  <outline>
    <contour>
      <point x="132" y="138" type="curve" smooth="yes"/>
      <point x="185" y="138"/>
      <point x="219" y="181"/>
      <point x="219" y="251" type="curve" smooth="yes"/>
      <point x="219" y="311"/>
      <point x="186" y="365"/>
      <point x="132" y="365" type="curve" smooth="yes"/>
      <point x="78" y="365"/>
      <point x="44" y="311"/>
      <point x="44" y="251" type="curve" smooth="yes"/>
      <point x="44" y="181"/>
      <point x="78" y="138"/>
    </contour>
    <contour>
      <point x="132" y="161" type="curve" smooth="yes"/>
      <point x="92" y="161"/>
      <point x="70" y="194"/>
      <point x="70" y="251" type="curve" smooth="yes"/>
      <point x="70" y="298"/>
      <point x="92" y="343"/>
      <point x="132" y="343" type="curve" smooth="yes"/>
      <point x="171" y="343"/>
      <point x="193" y="298"/>
      <point x="193" y="251" type="curve" smooth="yes"/>
      <point x="193" y="194"/>
      <point x="171" y="161"/>
    </contour>
    <contour>
      <point x="219" y="251" type="line"/>
      <point x="219" y="622" type="line"/>
      <point x="193" y="622" type="line"/>
      <point x="193" y="318" type="line"/>
    </contour>
  </outline>
</glyph>
<glyph name="ue_wpk" format="2">
  <advance width="191"/>
  <unicode hex="1068"/>
  <note>
ue_wpk
</note>
  <outline>
    <contour>
      <point x="24" y="149" type="line"/>
      <point x="143" y="149" type="line"/>
      <point x="143" y="622" type="line"/>
      <point x="117" y="622" type="line"/>
      <point x="117" y="172" type="line"/>
      <point x="24" y="172" type="line"/>
    </contour>
    <contour>
      <point x="119" y="747" type="curve" smooth="yes"/>
      <point x="159" y="747"/>
      <point x="187" y="777"/>
      <point x="187" y="831" type="curve" smooth="yes"/>
      <point x="187" y="888"/>
      <point x="156" y="913"/>
      <point x="119" y="913" type="curve" smooth="yes"/>
      <point x="82" y="913"/>
      <point x="54" y="884"/>
      <point x="54" y="831" type="curve" smooth="yes"/>
      <point x="54" y="777"/>
      <point x="81" y="747"/>
    </contour>
    <contour>
      <point x="120" y="769" type="curve" smooth="yes"/>
      <point x="94" y="769"/>
      <point x="78" y="793"/>
      <point x="78" y="831" type="curve" smooth="yes"/>
      <point x="78" y="867"/>
      <point x="95" y="891"/>
      <point x="120" y="891" type="curve" smooth="yes"/>
      <point x="145" y="891"/>
      <point x="163" y="867"/>
      <point x="163" y="831" type="curve" smooth="yes"/>
      <point x="163" y="793"/>
      <point x="146" y="769"/>
    </contour>
  </outline>
</glyph>
<glyph name="tone1_wpk" format="2">
  <advance width="268"/>
  <unicode hex="1069"/>
  <note>
tone1_wpk
</note>
  <outline>
    <contour>
      <point x="130" y="135" type="curve" smooth="yes"/>
      <point x="168" y="135"/>
      <point x="194" y="154"/>
      <point x="213" y="180" type="curve"/>
      <point x="194" y="195" type="line"/>
      <point x="178" y="173"/>
      <point x="158" y="157"/>
      <point x="130" y="157" type="curve" smooth="yes"/>
      <point x="91" y="157"/>
      <point x="67" y="190"/>
      <point x="67" y="230" type="curve" smooth="yes"/>
      <point x="67" y="282"/>
      <point x="88" y="313"/>
      <point x="149" y="369" type="curve" smooth="yes"/>
      <point x="213" y="427"/>
      <point x="236" y="469"/>
      <point x="236" y="523" type="curve" smooth="yes"/>
      <point x="236" y="586"/>
      <point x="201" y="631"/>
      <point x="143" y="631" type="curve" smooth="yes"/>
      <point x="106" y="631"/>
      <point x="72" y="616"/>
      <point x="46" y="572" type="curve"/>
      <point x="66" y="558" type="line"/>
      <point x="88" y="595"/>
      <point x="114" y="609"/>
      <point x="143" y="609" type="curve" smooth="yes"/>
      <point x="184" y="609"/>
      <point x="210" y="574"/>
      <point x="210" y="523" type="curve" smooth="yes"/>
      <point x="210" y="479"/>
      <point x="195" y="444"/>
      <point x="137" y="390" type="curve" smooth="yes"/>
      <point x="73" y="331"/>
      <point x="42" y="296"/>
      <point x="42" y="230" type="curve" smooth="yes"/>
      <point x="42" y="178"/>
      <point x="75" y="135"/>
    </contour>
  </outline>
</glyph>
<glyph name="tone2_wpk" format="2">
  <advance width="284"/>
  <unicode hex="106A"/>
  <note>
tone2_wpk
</note>
  <outline>
    <contour>
      <point x="129" y="138" type="curve" smooth="yes"/>
      <point x="183" y="138"/>
      <point x="216" y="175"/>
      <point x="216" y="262" type="curve" smooth="yes"/>
      <point x="216" y="622" type="line"/>
      <point x="190" y="622" type="line"/>
      <point x="190" y="262" type="line" smooth="yes"/>
      <point x="190" y="188"/>
      <point x="167" y="161"/>
      <point x="129" y="161" type="curve" smooth="yes"/>
      <point x="102" y="161"/>
      <point x="73" y="179"/>
      <point x="73" y="224" type="curve"/>
      <point x="47" y="224" type="line"/>
      <point x="47" y="169"/>
      <point x="81" y="138"/>
    </contour>
  </outline>
</glyph>
<glyph name="tone3_wpk" format="2">
  <advance width="284"/>
  <unicode hex="106B"/>
  <note>
tone3_wpk
</note>
  <outline>
    <contour>
      <point x="190" y="149" type="line"/>
      <point x="216" y="149" type="line"/>
      <point x="216" y="509" type="line" smooth="yes"/>
      <point x="216" y="596"/>
      <point x="183" y="633"/>
      <point x="129" y="633" type="curve" smooth="yes"/>
      <point x="81" y="633"/>
      <point x="47" y="603"/>
      <point x="47" y="548" type="curve"/>
      <point x="73" y="548" type="line"/>
      <point x="73" y="593"/>
      <point x="102" y="611"/>
      <point x="129" y="611" type="curve" smooth="yes"/>
      <point x="167" y="611"/>
      <point x="190" y="584"/>
      <point x="190" y="509" type="curve" smooth="yes"/>
    </contour>
  </outline>
</glyph>
<glyph name="tone4_wpk" format="2">
  <advance width="284"/>
  <unicode hex="106C"/>
  <note>
tone4_wpk
</note>
  <outline>
    <contour>
      <point x="155" y="138" type="curve" smooth="yes"/>
      <point x="203" y="138"/>
      <point x="237" y="169"/>
      <point x="237" y="224" type="curve"/>
      <point x="211" y="224" type="line"/>
      <point x="211" y="179"/>
      <point x="182" y="161"/>
      <point x="155" y="161" type="curve" smooth="yes"/>
      <point x="117" y="161"/>
      <point x="94" y="188"/>
      <point x="94" y="262" type="curve" smooth="yes"/>
      <point x="94" y="622" type="line"/>
      <point x="68" y="622" type="line"/>
      <point x="68" y="262" type="line" smooth="yes"/>
      <point x="68" y="175"/>
      <point x="101" y="138"/>
    </contour>
  </outline>
</glyph>
<glyph name="tone5_wpk" format="2">
  <advance width="268"/>
  <unicode hex="106D"/>
  <note>
tone5_wpk
</note>
  <outline>
    <contour>
      <point x="138" y="135" type="curve" smooth="yes"/>
      <point x="193" y="135"/>
      <point x="226" y="178"/>
      <point x="226" y="230" type="curve" smooth="yes"/>
      <point x="226" y="296"/>
      <point x="195" y="331"/>
      <point x="131" y="390" type="curve" smooth="yes"/>
      <point x="73" y="444"/>
      <point x="58" y="479"/>
      <point x="58" y="523" type="curve" smooth="yes"/>
      <point x="58" y="574"/>
      <point x="84" y="609"/>
      <point x="125" y="609" type="curve" smooth="yes"/>
      <point x="154" y="609"/>
      <point x="180" y="595"/>
      <point x="202" y="558" type="curve"/>
      <point x="222" y="572" type="line"/>
      <point x="196" y="616"/>
      <point x="162" y="631"/>
      <point x="125" y="631" type="curve" smooth="yes"/>
      <point x="67" y="631"/>
      <point x="32" y="586"/>
      <point x="32" y="523" type="curve" smooth="yes"/>
      <point x="32" y="469"/>
      <point x="55" y="427"/>
      <point x="119" y="369" type="curve" smooth="yes"/>
      <point x="180" y="313"/>
      <point x="201" y="282"/>
      <point x="201" y="230" type="curve" smooth="yes"/>
      <point x="201" y="190"/>
      <point x="177" y="157"/>
      <point x="138" y="157" type="curve" smooth="yes"/>
      <point x="110" y="157"/>
      <point x="90" y="173"/>
      <point x="74" y="195" type="curve"/>
      <point x="55" y="180" type="line"/>
      <point x="74" y="154"/>
      <point x="100" y="135"/>
    </contour>
  </outline>
</glyph>
<glyph name="nna_epk" format="2">
  <advance width="794"/>
  <unicode hex="106E"/>
  <note>
nna_epk
</note>
  <outline>
    <contour>
      <point x="121" y="140" type="curve"/>
      <point x="138" y="158" type="line"/>
      <point x="97" y="196"/>
      <point x="69" y="299"/>
      <point x="69" y="375" type="curve" smooth="yes"/>
      <point x="69" y="526"/>
      <point x="124" y="609"/>
      <point x="194" y="609" type="curve" smooth="yes"/>
      <point x="271" y="609"/>
      <point x="312" y="520"/>
      <point x="312" y="375" type="curve" smooth="yes"/>
      <point x="312" y="299"/>
      <point x="284" y="196"/>
      <point x="245" y="158" type="curve"/>
      <point x="261" y="140" type="line"/>
      <point x="305" y="183"/>
      <point x="338" y="285"/>
      <point x="338" y="375" type="curve" smooth="yes"/>
      <point x="338" y="529"/>
      <point x="290" y="631"/>
      <point x="194" y="631" type="curve" smooth="yes"/>
      <point x="105" y="631"/>
      <point x="43" y="536"/>
      <point x="43" y="375" type="curve" smooth="yes"/>
      <point x="43" y="285"/>
      <point x="78" y="183"/>
    </contour>
    <contour>
      <point x="427" y="140" type="line"/>
      <point x="470" y="183"/>
      <point x="503" y="285"/>
      <point x="503" y="375" type="curve" smooth="yes"/>
      <point x="503" y="530"/>
      <point x="454" y="631"/>
      <point x="361" y="631" type="curve" smooth="yes"/>
      <point x="323" y="631"/>
      <point x="294" y="614"/>
      <point x="271" y="583" type="curve"/>
      <point x="289" y="567" type="line"/>
      <point x="308" y="595"/>
      <point x="331" y="609"/>
      <point x="361" y="609" type="curve" smooth="yes"/>
      <point x="432" y="609"/>
      <point x="477" y="523"/>
      <point x="477" y="375" type="curve" smooth="yes"/>
      <point x="477" y="299"/>
      <point x="449" y="196"/>
      <point x="411" y="158" type="curve"/>
    </contour>
    <contour>
      <point x="607" y="142" type="curve" smooth="yes"/>
      <point x="694" y="142"/>
      <point x="751" y="230"/>
      <point x="751" y="375" type="curve" smooth="yes"/>
      <point x="751" y="533"/>
      <point x="701" y="631"/>
      <point x="608" y="631" type="curve" smooth="yes"/>
      <point x="543" y="631"/>
      <point x="503" y="586"/>
      <point x="476" y="514" type="curve"/>
      <point x="488" y="480" type="line"/>
      <point x="518" y="561"/>
      <point x="552" y="609"/>
      <point x="607" y="609" type="curve" smooth="yes"/>
      <point x="687" y="609"/>
      <point x="725" y="516"/>
      <point x="725" y="375" type="curve" smooth="yes"/>
      <point x="725" y="241"/>
      <point x="678" y="164"/>
      <point x="605" y="164" type="curve" smooth="yes"/>
      <point x="584" y="164"/>
      <point x="567" y="167"/>
      <point x="545" y="179" type="curve"/>
      <point x="533" y="158" type="line"/>
      <point x="559" y="145"/>
      <point x="578" y="142"/>
    </contour>
  </outline>
</glyph>
<glyph name="ywa_epk" format="2">
  <advance width="768"/>
  <unicode hex="106F"/>
  <note>
ywa_epk
</note>
  <outline>
    <contour>
      <point x="224" y="140" type="curve" smooth="yes"/>
      <point x="332" y="140"/>
      <point x="405" y="240"/>
      <point x="405" y="397" type="curve" smooth="yes"/>
      <point x="405" y="487"/>
      <point x="370" y="588"/>
      <point x="326" y="631" type="curve"/>
      <point x="310" y="613" type="line"/>
      <point x="350" y="576"/>
      <point x="379" y="472"/>
      <point x="379" y="397" type="curve" smooth="yes"/>
      <point x="379" y="245"/>
      <point x="310" y="163"/>
      <point x="224" y="163" type="curve" smooth="yes"/>
      <point x="138" y="163"/>
      <point x="69" y="245"/>
      <point x="69" y="397" type="curve" smooth="yes"/>
      <point x="69" y="472"/>
      <point x="97" y="576"/>
      <point x="138" y="613" type="curve"/>
      <point x="121" y="631" type="line"/>
      <point x="78" y="588"/>
      <point x="43" y="487"/>
      <point x="43" y="397" type="curve" smooth="yes"/>
      <point x="43" y="242"/>
      <point x="115" y="140"/>
    </contour>
    <contour>
      <point x="443" y="-272" type="line"/>
      <point x="563" y="-272" type="line"/>
      <point x="563" y="149" type="line"/>
      <point x="537" y="149" type="line"/>
      <point x="537" y="-250" type="line"/>
      <point x="443" y="-250" type="line"/>
    </contour>
    <contour>
      <point x="552" y="142" type="curve" smooth="yes"/>
      <point x="655" y="142"/>
      <point x="725" y="230"/>
      <point x="725" y="375" type="curve" smooth="yes"/>
      <point x="725" y="526"/>
      <point x="660" y="631"/>
      <point x="549" y="631" type="curve" smooth="yes"/>
      <point x="464" y="631"/>
      <point x="405" y="584"/>
      <point x="366" y="494" type="curve"/>
      <point x="375" y="460" type="line"/>
      <point x="427" y="574"/>
      <point x="478" y="609"/>
      <point x="549" y="609" type="curve" smooth="yes"/>
      <point x="648" y="609"/>
      <point x="699" y="506"/>
      <point x="699" y="375" type="curve" smooth="yes"/>
      <point x="699" y="241"/>
      <point x="639" y="164"/>
      <point x="550" y="164" type="curve" smooth="yes"/>
      <point x="521" y="164"/>
      <point x="490" y="168"/>
      <point x="468" y="181" type="curve"/>
      <point x="456" y="160" type="line"/>
      <point x="483" y="146"/>
      <point x="512" y="142"/>
    </contour>
  </outline>
</glyph>
<glyph name="i_gkn" format="2">
  <unicode hex="1071"/>
  <note>
i_gkn
</note>
  <outline>
    <contour>
      <point x="-128" y="761" type="curve" smooth="yes"/>
      <point x="-88" y="761"/>
      <point x="-59" y="792"/>
      <point x="-59" y="845" type="curve" smooth="yes"/>
      <point x="-59" y="899"/>
      <point x="-91" y="926"/>
      <point x="-128" y="926" type="curve" smooth="yes"/>
      <point x="-168" y="926"/>
      <point x="-196" y="894"/>
      <point x="-196" y="844" type="curve" smooth="yes"/>
      <point x="-196" y="791"/>
      <point x="-169" y="761"/>
    </contour>
    <contour>
      <point x="-128" y="784" type="curve" smooth="yes"/>
      <point x="-156" y="784"/>
      <point x="-170" y="806"/>
      <point x="-170" y="844" type="curve" smooth="yes"/>
      <point x="-170" y="880"/>
      <point x="-153" y="903"/>
      <point x="-128" y="903" type="curve" smooth="yes"/>
      <point x="-103" y="903"/>
      <point x="-85" y="880"/>
      <point x="-85" y="844" type="curve" smooth="yes"/>
      <point x="-85" y="806"/>
      <point x="-103" y="784"/>
    </contour>
    <contour>
      <point x="-300" y="761" type="curve" smooth="yes"/>
      <point x="-261" y="761"/>
      <point x="-231" y="792"/>
      <point x="-231" y="845" type="curve" smooth="yes"/>
      <point x="-231" y="899"/>
      <point x="-262" y="926"/>
      <point x="-300" y="926" type="curve" smooth="yes"/>
      <point x="-339" y="926"/>
      <point x="-369" y="896"/>
      <point x="-369" y="844" type="curve" smooth="yes"/>
      <point x="-369" y="791"/>
      <point x="-339" y="761"/>
    </contour>
    <contour>
      <point x="-299" y="784" type="curve" smooth="yes"/>
      <point x="-328" y="784"/>
      <point x="-343" y="806"/>
      <point x="-343" y="844" type="curve" smooth="yes"/>
      <point x="-343" y="880"/>
      <point x="-325" y="903"/>
      <point x="-299" y="903" type="curve" smooth="yes"/>
      <point x="-274" y="903"/>
      <point x="-257" y="880"/>
      <point x="-257" y="844" type="curve" smooth="yes"/>
      <point x="-257" y="806"/>
      <point x="-274" y="784"/>
    </contour>
  </outline>
</glyph>
<glyph name="oe_kyh" format="2">
  <unicode hex="1072"/>
  <note>
oe_kyh
</note>
  <outline>
    <contour>
      <point x="-206" y="713" type="curve" smooth="yes"/>
      <point x="-156" y="713"/>
      <point x="-112" y="748"/>
      <point x="-93" y="811" type="curve"/>
      <point x="-115" y="821" type="line"/>
      <point x="-132" y="760"/>
      <point x="-168" y="736"/>
      <point x="-206" y="736" type="curve" smooth="yes"/>
      <point x="-262" y="736"/>
      <point x="-298" y="794"/>
      <point x="-298" y="882" type="curve" smooth="yes"/>
      <point x="-298" y="954"/>
      <point x="-264" y="1024"/>
      <point x="-206" y="1024" type="curve" smooth="yes"/>
      <point x="-161" y="1024"/>
      <point x="-131" y="993"/>
      <point x="-118" y="942" type="curve"/>
      <point x="-97" y="953" type="line"/>
      <point x="-115" y="1014"/>
      <point x="-152" y="1046"/>
      <point x="-205" y="1046" type="curve" smooth="yes"/>
      <point x="-278" y="1046"/>
      <point x="-324" y="967"/>
      <point x="-324" y="882" type="curve" smooth="yes"/>
      <point x="-324" y="789"/>
      <point x="-281" y="713"/>
    </contour>
  </outline>
</glyph>
<glyph name="u_kyh" format="2">
  <unicode hex="1073"/>
  <note>
u_kyh
</note>
  <outline>
    <contour>
      <point x="-372" y="723" type="line"/>
      <point x="-211" y="929" type="line"/>
      <point x="-50" y="723" type="line"/>
      <point x="-31" y="739" type="line"/>
      <point x="-211" y="969" type="line"/>
      <point x="-391" y="739" type="line"/>
    </contour>
  </outline>
</glyph>
<glyph name="ee_kyh" format="2">
  <unicode hex="1074"/>
  <note>
ee_kyh
</note>
  <outline>
    <contour>
      <point x="-211" y="723" type="line"/>
      <point x="-31" y="953" type="line"/>
      <point x="-50" y="969" type="line"/>
      <point x="-211" y="763" type="line"/>
      <point x="-372" y="969" type="line"/>
      <point x="-391" y="953" type="line"/>
    </contour>
  </outline>
</glyph>
<glyph name="ka_shn" format="2">
  <advance width="444"/>
  <unicode hex="1075"/>
  <note>
ka_shn
</note>
  <outline>
    <contour>
      <point x="103" y="142" type="curve" smooth="yes"/>
      <point x="139" y="142"/>
      <point x="161" y="172"/>
      <point x="161" y="208" type="curve" smooth="yes"/>
      <point x="161" y="235"/>
      <point x="154" y="256"/>
      <point x="124" y="295" type="curve" smooth="yes"/>
      <point x="90" y="339"/>
      <point x="71" y="374"/>
      <point x="71" y="439" type="curve" smooth="yes"/>
      <point x="71" y="540"/>
      <point x="124" y="609"/>
      <point x="218" y="609" type="curve" smooth="yes"/>
      <point x="306" y="609"/>
      <point x="375" y="524"/>
      <point x="375" y="375" type="curve" smooth="yes"/>
      <point x="375" y="289"/>
      <point x="347" y="204"/>
      <point x="305" y="158" type="curve"/>
      <point x="321" y="140" type="line"/>
      <point x="366" y="191"/>
      <point x="401" y="274"/>
      <point x="401" y="375" type="curve" smooth="yes"/>
      <point x="401" y="532"/>
      <point x="326" y="631"/>
      <point x="217" y="631" type="curve" smooth="yes"/>
      <point x="110" y="631"/>
      <point x="45" y="550"/>
      <point x="45" y="439" type="curve" smooth="yes"/>
      <point x="45" y="370"/>
      <point x="68" y="325"/>
      <point x="105" y="280" type="curve" smooth="yes"/>
      <point x="127" y="253"/>
      <point x="136" y="227"/>
      <point x="136" y="208" type="curve" smooth="yes"/>
      <point x="136" y="182"/>
      <point x="124" y="164"/>
      <point x="102" y="164" type="curve" smooth="yes"/>
      <point x="84" y="164"/>
      <point x="68" y="178"/>
      <point x="57" y="199" type="curve"/>
      <point x="40" y="182" type="line"/>
      <point x="53" y="155"/>
      <point x="74" y="142"/>
    </contour>
  </outline>
</glyph>
<glyph name="kha_shn" format="2">
  <advance width="444"/>
  <unicode hex="1076"/>
  <note>
kha_shn
</note>
  <outline>
    <contour>
      <point x="223" y="140" type="curve" smooth="yes"/>
      <point x="331" y="140"/>
      <point x="401" y="242"/>
      <point x="401" y="384" type="curve" smooth="yes"/>
      <point x="401" y="541"/>
      <point x="357" y="628"/>
      <point x="287" y="628" type="curve" smooth="yes"/>
      <point x="235" y="628"/>
      <point x="213" y="596"/>
      <point x="178" y="532" type="curve" smooth="yes"/>
      <point x="157" y="492"/>
      <point x="136" y="476"/>
      <point x="113" y="476" type="curve" smooth="yes"/>
      <point x="88" y="476"/>
      <point x="69" y="495"/>
      <point x="69" y="532" type="curve" smooth="yes"/>
      <point x="69" y="565"/>
      <point x="85" y="595"/>
      <point x="110" y="612" type="curve"/>
      <point x="93" y="629" type="line"/>
      <point x="65" y="608"/>
      <point x="43" y="577"/>
      <point x="43" y="532" type="curve" smooth="yes"/>
      <point x="43" y="482"/>
      <point x="74" y="453"/>
      <point x="112" y="453" type="curve" smooth="yes"/>
      <point x="145" y="453"/>
      <point x="175" y="472"/>
      <point x="200" y="519" type="curve" smooth="yes"/>
      <point x="227" y="568"/>
      <point x="242" y="605"/>
      <point x="288" y="605" type="curve" smooth="yes"/>
      <point x="342" y="605"/>
      <point x="375" y="514"/>
      <point x="375" y="384" type="curve" smooth="yes"/>
      <point x="375" y="251"/>
      <point x="312" y="163"/>
      <point x="223" y="163" type="curve" smooth="yes"/>
      <point x="153" y="163"/>
      <point x="104" y="203"/>
      <point x="73" y="276" type="curve"/>
      <point x="107" y="320"/>
      <point x="155" y="344"/>
      <point x="212" y="344" type="curve" smooth="yes"/>
      <point x="282" y="344"/>
      <point x="329" y="306"/>
      <point x="363" y="271" type="curve"/>
      <point x="378" y="288" type="line"/>
      <point x="344" y="328"/>
      <point x="286" y="367"/>
      <point x="213" y="367" type="curve" smooth="yes"/>
      <point x="138" y="367"/>
      <point x="81" y="332"/>
      <point x="47" y="280" type="curve"/>
      <point x="76" y="191"/>
      <point x="137" y="140"/>
    </contour>
  </outline>
</glyph>
<glyph name="ga_shn" format="2">
  <advance width="442"/>
  <unicode hex="1077"/>
  <note>
ga_shn
</note>
  <outline>
    <contour>
      <point x="104" y="140" type="curve" smooth="yes"/>
      <point x="140" y="140"/>
      <point x="162" y="170"/>
      <point x="162" y="207" type="curve" smooth="yes"/>
      <point x="162" y="234"/>
      <point x="155" y="254"/>
      <point x="125" y="293" type="curve" smooth="yes"/>
      <point x="91" y="337"/>
      <point x="72" y="372"/>
      <point x="72" y="437" type="curve" smooth="yes"/>
      <point x="72" y="538"/>
      <point x="125" y="607"/>
      <point x="220" y="607" type="curve" smooth="yes"/>
      <point x="319" y="607"/>
      <point x="373" y="511"/>
      <point x="373" y="372" type="curve" smooth="yes"/>
      <point x="373" y="283"/>
      <point x="350" y="219"/>
      <point x="322" y="178" type="curve"/>
      <point x="290" y="221"/>
      <point x="266" y="290"/>
      <point x="266" y="361" type="curve" smooth="yes"/>
      <point x="266" y="468"/>
      <point x="300" y="519"/>
      <point x="335" y="556" type="curve"/>
      <point x="319" y="573" type="line"/>
      <point x="280" y="538"/>
      <point x="240" y="473"/>
      <point x="240" y="361" type="curve" smooth="yes"/>
      <point x="240" y="278"/>
      <point x="272" y="197"/>
      <point x="321" y="138" type="curve"/>
      <point x="367" y="186"/>
      <point x="399" y="267"/>
      <point x="399" y="372" type="curve" smooth="yes"/>
      <point x="399" y="526"/>
      <point x="334" y="630"/>
      <point x="221" y="630" type="curve" smooth="yes"/>
      <point x="111" y="630"/>
      <point x="46" y="548"/>
      <point x="46" y="437" type="curve" smooth="yes"/>
      <point x="46" y="369"/>
      <point x="69" y="324"/>
      <point x="106" y="278" type="curve" smooth="yes"/>
      <point x="128" y="251"/>
      <point x="137" y="226"/>
      <point x="137" y="207" type="curve" smooth="yes"/>
      <point x="137" y="181"/>
      <point x="125" y="163"/>
      <point x="103" y="163" type="curve" smooth="yes"/>
      <point x="86" y="163"/>
      <point x="69" y="177"/>
      <point x="58" y="197" type="curve"/>
      <point x="41" y="181" type="line"/>
      <point x="54" y="158"/>
      <point x="75" y="140"/>
    </contour>
  </outline>
</glyph>
<glyph name="za_shn" format="2">
  <advance width="772"/>
  <unicode hex="1079"/>
  <note>
za_shn
</note>
  <outline>
    <contour>
      <point x="215" y="140" type="curve" smooth="yes"/>
      <point x="245" y="140"/>
      <point x="273" y="149"/>
      <point x="289" y="156" type="curve"/>
      <point x="289" y="321"/>
      <point x="216" y="419"/>
      <point x="65" y="420" type="curve"/>
      <point x="62" y="397" type="line"/>
      <point x="204" y="397"/>
      <point x="261" y="308"/>
      <point x="263" y="166" type="curve"/>
      <point x="273" y="175" type="line"/>
      <point x="254" y="166"/>
      <point x="237" y="163"/>
      <point x="216" y="163" type="curve" smooth="yes"/>
      <point x="121" y="163"/>
      <point x="69" y="258"/>
      <point x="69" y="380" type="curve" smooth="yes"/>
      <point x="69" y="506"/>
      <point x="120" y="609"/>
      <point x="219" y="609" type="curve" smooth="yes"/>
      <point x="290" y="609"/>
      <point x="341" y="574"/>
      <point x="393" y="460" type="curve"/>
      <point x="405" y="488" type="line"/>
      <point x="363" y="584"/>
      <point x="304" y="631"/>
      <point x="219" y="631" type="curve" smooth="yes"/>
      <point x="108" y="631"/>
      <point x="43" y="526"/>
      <point x="43" y="380" type="curve" smooth="yes"/>
      <point x="43" y="252"/>
      <point x="102" y="140"/>
    </contour>
    <contour>
      <point x="552" y="140" type="curve" smooth="yes"/>
      <point x="664" y="140"/>
      <point x="729" y="248"/>
      <point x="729" y="384" type="curve" smooth="yes"/>
      <point x="729" y="516"/>
      <point x="667" y="631"/>
      <point x="552" y="631" type="curve" smooth="yes"/>
      <point x="439" y="631"/>
      <point x="371" y="522"/>
      <point x="371" y="384" type="curve" smooth="yes"/>
      <point x="371" y="241"/>
      <point x="443" y="140"/>
    </contour>
    <contour>
      <point x="552" y="163" type="curve" smooth="yes"/>
      <point x="460" y="163"/>
      <point x="397" y="251"/>
      <point x="397" y="384" type="curve" smooth="yes"/>
      <point x="397" y="511"/>
      <point x="455" y="609"/>
      <point x="552" y="609" type="curve" smooth="yes"/>
      <point x="649" y="609"/>
      <point x="703" y="506"/>
      <point x="703" y="384" type="curve" smooth="yes"/>
      <point x="703" y="246"/>
      <point x="639" y="163"/>
    </contour>
  </outline>
</glyph>
<glyph name="nya_shn" format="2">
  <advance width="770"/>
  <unicode hex="107A"/>
  <note>
nya_shn
</note>
  <outline>
    <contour>
      <point x="210" y="139" type="curve" smooth="yes"/>
      <point x="252" y="139"/>
      <point x="268" y="144"/>
      <point x="291" y="155" type="curve"/>
      <point x="281" y="176" type="line"/>
      <point x="260" y="166"/>
      <point x="240" y="162"/>
      <point x="211" y="162" type="curve" smooth="yes"/>
      <point x="130" y="162"/>
      <point x="69" y="237"/>
      <point x="69" y="385" type="curve" smooth="yes"/>
      <point x="69" y="523"/>
      <point x="116" y="609"/>
      <point x="221" y="609" type="curve" smooth="yes"/>
      <point x="311" y="609"/>
      <point x="367" y="520"/>
      <point x="367" y="387" type="curve" smooth="yes"/>
      <point x="367" y="237"/>
      <point x="444" y="139"/>
      <point x="555" y="139" type="curve" smooth="yes"/>
      <point x="671" y="139"/>
      <point x="727" y="242"/>
      <point x="727" y="386" type="curve" smooth="yes"/>
      <point x="727" y="548"/>
      <point x="653" y="631"/>
      <point x="560" y="631" type="curve" smooth="yes"/>
      <point x="520" y="631"/>
      <point x="499" y="625"/>
      <point x="477" y="613" type="curve"/>
      <point x="488" y="592" type="line"/>
      <point x="508" y="604"/>
      <point x="530" y="609"/>
      <point x="558" y="609" type="curve" smooth="yes"/>
      <point x="639" y="609"/>
      <point x="701" y="533"/>
      <point x="701" y="386" type="curve" smooth="yes"/>
      <point x="701" y="248"/>
      <point x="654" y="162"/>
      <point x="555" y="162" type="curve" smooth="yes"/>
      <point x="459" y="162"/>
      <point x="393" y="247"/>
      <point x="393" y="386" type="curve" smooth="yes"/>
      <point x="393" y="536"/>
      <point x="324" y="631"/>
      <point x="221" y="631" type="curve" smooth="yes"/>
      <point x="95" y="631"/>
      <point x="43" y="530"/>
      <point x="43" y="385" type="curve" smooth="yes"/>
      <point x="43" y="223"/>
      <point x="117" y="139"/>
    </contour>
    <contour>
      <point x="367" y="-272" type="line"/>
      <point x="485" y="-272" type="line"/>
      <point x="485" y="-249" type="line"/>
      <point x="393" y="-249" type="line"/>
      <point x="393" y="326" type="line"/>
      <point x="367" y="473" type="line"/>
    </contour>
  </outline>
</glyph>
<glyph name="da_shn" format="2">
  <advance width="770"/>
  <unicode hex="107B"/>
  <note>
da_shn
</note>
  <outline>
    <contour>
      <point x="555" y="140" type="curve" smooth="yes"/>
      <point x="668" y="140"/>
      <point x="727" y="252"/>
      <point x="727" y="380" type="curve" smooth="yes"/>
      <point x="727" y="526"/>
      <point x="662" y="631"/>
      <point x="551" y="631" type="curve" smooth="yes"/>
      <point x="466" y="631"/>
      <point x="407" y="584"/>
      <point x="365" y="488" type="curve"/>
      <point x="377" y="460" type="line"/>
      <point x="429" y="574"/>
      <point x="480" y="609"/>
      <point x="551" y="609" type="curve" smooth="yes"/>
      <point x="650" y="609"/>
      <point x="701" y="506"/>
      <point x="701" y="380" type="curve" smooth="yes"/>
      <point x="701" y="258"/>
      <point x="649" y="163"/>
      <point x="554" y="163" type="curve" smooth="yes"/>
      <point x="533" y="163"/>
      <point x="516" y="166"/>
      <point x="497" y="175" type="curve"/>
      <point x="507" y="166" type="line"/>
      <point x="509" y="308"/>
      <point x="566" y="397"/>
      <point x="708" y="397" type="curve"/>
      <point x="705" y="420" type="line"/>
      <point x="554" y="419"/>
      <point x="481" y="321"/>
      <point x="481" y="156" type="curve"/>
      <point x="497" y="149"/>
      <point x="525" y="140"/>
    </contour>
    <contour>
      <point x="220" y="140" type="curve" smooth="yes"/>
      <point x="329" y="140"/>
      <point x="401" y="241"/>
      <point x="401" y="384" type="curve" smooth="yes"/>
      <point x="401" y="522"/>
      <point x="333" y="631"/>
      <point x="220" y="631" type="curve" smooth="yes"/>
      <point x="105" y="631"/>
      <point x="43" y="516"/>
      <point x="43" y="384" type="curve" smooth="yes"/>
      <point x="43" y="248"/>
      <point x="108" y="140"/>
    </contour>
    <contour>
      <point x="220" y="163" type="curve" smooth="yes"/>
      <point x="133" y="163"/>
      <point x="69" y="246"/>
      <point x="69" y="384" type="curve" smooth="yes"/>
      <point x="69" y="506"/>
      <point x="123" y="609"/>
      <point x="220" y="609" type="curve" smooth="yes"/>
      <point x="317" y="609"/>
      <point x="375" y="511"/>
      <point x="375" y="384" type="curve" smooth="yes"/>
      <point x="375" y="251"/>
      <point x="312" y="163"/>
    </contour>
  </outline>
</glyph>
<glyph name="na_shn" format="2">
  <advance width="766"/>
  <unicode hex="107C"/>
  <note>
na_shn
</note>
  <outline>
    <contour>
      <point x="218" y="140" type="curve" smooth="yes"/>
      <point x="326" y="140"/>
      <point x="396" y="242"/>
      <point x="396" y="384" type="curve" smooth="yes"/>
      <point x="396" y="521"/>
      <point x="326" y="631"/>
      <point x="206" y="631" type="curve" smooth="yes"/>
      <point x="114" y="631"/>
      <point x="65" y="572"/>
      <point x="43" y="487" type="curve"/>
      <point x="66" y="475" type="line"/>
      <point x="85" y="554"/>
      <point x="127" y="609"/>
      <point x="207" y="609" type="curve" smooth="yes"/>
      <point x="308" y="609"/>
      <point x="370" y="511"/>
      <point x="370" y="384" type="curve" smooth="yes"/>
      <point x="370" y="251"/>
      <point x="307" y="163"/>
      <point x="218" y="163" type="curve" smooth="yes"/>
      <point x="151" y="163"/>
      <point x="105" y="203"/>
      <point x="75" y="276" type="curve"/>
      <point x="101" y="311"/>
      <point x="194" y="344"/>
      <point x="312" y="344" type="curve" smooth="yes"/>
      <point x="443" y="344" type="line" smooth="yes"/>
      <point x="560" y="344"/>
      <point x="660" y="317"/>
      <point x="691" y="276" type="curve"/>
      <point x="661" y="203"/>
      <point x="615" y="163"/>
      <point x="548" y="163" type="curve" smooth="yes"/>
      <point x="459" y="163"/>
      <point x="396" y="251"/>
      <point x="396" y="384" type="curve" smooth="yes"/>
      <point x="396" y="511"/>
      <point x="458" y="609"/>
      <point x="559" y="609" type="curve" smooth="yes"/>
      <point x="639" y="609"/>
      <point x="681" y="554"/>
      <point x="700" y="475" type="curve"/>
      <point x="723" y="487" type="line"/>
      <point x="701" y="572"/>
      <point x="652" y="631"/>
      <point x="560" y="631" type="curve" smooth="yes"/>
      <point x="440" y="631"/>
      <point x="370" y="521"/>
      <point x="370" y="384" type="curve" smooth="yes"/>
      <point x="370" y="242"/>
      <point x="440" y="140"/>
      <point x="548" y="140" type="curve" smooth="yes"/>
      <point x="631" y="140"/>
      <point x="691" y="191"/>
      <point x="719" y="280" type="curve"/>
      <point x="686" y="332"/>
      <point x="587" y="367"/>
      <point x="442" y="367" type="curve" smooth="yes"/>
      <point x="313" y="367" type="line" smooth="yes"/>
      <point x="174" y="367"/>
      <point x="79" y="330"/>
      <point x="47" y="280" type="curve"/>
      <point x="76" y="191"/>
      <point x="135" y="140"/>
    </contour>
  </outline>
</glyph>
